<svg id="Layer_1" data-name="Layer 1" xmlns="http://www.w3.org/2000/svg" xmlns:xlink="http://www.w3.org/1999/xlink" width="491.83" height="259.35" viewBox="0 0 491.83 259.35"><defs><style>.cls-1,.cls-3{fill:none;}.cls-2{clip-path:url(#clip-path);}.cls-3{stroke:#000;stroke-miterlimit:10;stroke-width:19px;}</style><clipPath id="clip-path"><rect class="cls-1" x="-185.23" y="163.67" width="223.39" height="412.72"/></clipPath></defs><title>arrow_down</title><g class="cls-2"><path d="M-157.22,175.83,14.57,374.78l-181,188.81-5.47-5.25L3.68,375.17l.63-.66-.59-.69L-163,180.79l5.74-5m.1-1.41-7.26,6.27L3,374.48-173.36,558.36l6.92,6.64L15.92,374.81l-173-200.39Z"/><path d="M90.36,146.48l171.79,199-181,188.81L75.64,529,251.27,345.82l.63-.66-.6-.68-166.68-193,5.74-5m.1-1.41-7.25,6.27L250.55,345.13,74.23,529l6.92,6.63L263.51,345.47l-173-200.4Z"/></g><polyline class="cls-3" points="485.11 6.72 245.91 245.91 6.72 6.72"/></svg>
