<svg id="Layer_1" data-name="Layer 1" xmlns="http://www.w3.org/2000/svg" width="1000" height="1240.28" viewBox="0 0 1000 1240.28"><title>maliklogo copy</title><path d="M589.29,317.83V444.1l46.58-.1V317.83Z"/><path d="M544.17,444.21V574h46.58V444.1Z"/><path d="M360.63,601.52c-68.45-25-141.89,8.42-169.74,74.48l44.24,16.06c19.38-43.5,66.58-66.15,110.68-50A85.71,85.71,0,0,1,394,686.91l41.65-16.07C422.44,640.38,396.13,614.5,360.63,601.52Z"/><path d="M315.9,735.84v38.94h75.21c0,2.29-.76,4.2-1.15,6.11-6.49,32.45-35.88,51.92-74.45,51.92-49.25,0-87-42.34-87-92.36l-47,.14c.1,74,58.86,134.6,134,134.6,74.14,0,124.92-42.27,126.34-135.29,0-1.32,0-2.71,0-4.06Z"/><path d="M497.44,303.16l-21-176.77-71,147h-37.8L296.24,126.77,274.86,303.16H228.28l32.06-263h40.48l85.52,181,85.14-181H512L544,303.16Z"/><path d="M709.68,33h-50.4l-63,167.65H772.46ZM684.48,84.9,721.89,191H647.06Z"/><path d="M311.7,301.11h46.58V522.55H460.6v41.61H311.7Z"/><path d="M881.64,564.16l-90.87-100v100h-46.2v-263h46.2v99.65l74.07-99.65h57.65l-100.41,131,122.55,132.1Z"/><path d="M564.47,784.62H540.81v95.83H494.22V617.4H597.31c58.8,0,83.61,42.38,83.61,84.37,0,37.42-19.47,72.93-65.28,81.33l68.72,97.35h-55ZM540.81,745.3h47c32.84,0,46.58-18.71,46.58-42.77S619.45,659,593.87,659H540.81Z"/><path d="M237.25,1090.33h46.19c.39,20.23,19.86,38.94,48.87,38.94,26.73,0,43.91-15.27,43.91-35.89,0-18.32-15.65-29-37.8-35.12l-32.83-9.16c-56.51-14.51-66.43-48.49-66.43-71.4C239.16,931.12,280,901,328.5,901c48.1,0,85.9,29.78,85.9,79H368.2c0-21.76-16.42-37.42-40.85-37.42-22.53,0-41.23,13.75-41.23,34.37,0,7.25,2.29,22.9,32.45,30.54l31.31,8.4c41.23,11.46,72.92,33.6,72.92,75.59,0,48.11-40.09,79.42-91.63,79.42C275,1170.89,237.25,1134.62,237.25,1090.33Z"/><path d="M455.66,1035.73c0-74.45,58.42-134.77,133.63-134.77,74.83,0,133.63,60.32,133.63,134.77s-58.8,135.16-133.63,135.16C514.08,1170.89,455.66,1110.18,455.66,1035.73Zm220.68,0c0-50.39-37-91.24-87.43-91.24-50,0-86.29,40.85-86.29,91.24S538.89,1127,588.91,1127C639.3,1127,676.34,1086.13,676.34,1035.73Z"/><path d="M931.46,743.46c-3.61,46.75-39.36,83.43-87.12,83.43-50,0-86.28-40.85-86.28-91.24s36.27-91.25,86.28-91.25a84.89,84.89,0,0,1,70.25,36.1l32.11-32.35a132.34,132.34,0,0,0-102-47.28c-75.22,0-133.63,60.33-133.63,134.78S769.51,870.8,844.73,870.8c72.19,0,129.46-56.5,133.38-127.34Z"/><path d="M758.77,1090.33H805c.38,20.23,19.85,38.94,48.86,38.94,26.73,0,43.91-15.27,43.91-35.89,0-18.32-15.65-29-37.79-35.12l-32.84-9.16c-56.5-14.51-66.43-48.49-66.43-71.4,0-46.58,40.85-76.74,89.34-76.74,48.11,0,85.9,29.78,85.9,79h-46.2c0-21.76-16.41-37.42-40.85-37.42-22.52,0-41.23,13.75-41.23,34.37,0,7.25,2.29,22.9,32.45,30.54l31.31,8.4c41.23,11.46,72.92,33.6,72.92,75.59,0,48.11-40.09,79.42-91.63,79.42C796.57,1170.89,758.77,1134.62,758.77,1090.33Z"/><path d="M811.1,199.68H634.88L599,295.1h49.63l22.91-64.52H774.65l22.91,64.52h49.25Z"/><path d="M58.29,1065.14c24.31,0,48,14.1,48,47.09v34.08h53.61v26.48H10.32v-60.56C10.32,1079.24,34.42,1065.14,58.29,1065.14Zm0,26.47c-11.72,0-24.31,6.08-24.31,21.27v33.43h48.4v-32.77C82.38,1097.91,70.44,1091.61,58.29,1091.61Z"/><path d="M85.2,1048.86c-42.32,0-76.61-33.2-76.61-76,0-42.54,34.29-76,76.61-76S162,930.36,162,972.9C162,1015.66,127.52,1048.86,85.2,1048.86Zm0-125.44c-28.65,0-51.87,21.05-51.87,49.7,0,28.43,23.22,49,51.87,49s51.87-20.62,51.87-49C137.07,944.47,113.85,923.42,85.2,923.42Z"/><path d="M105.38,828.36v13.45h54.48v26.48H10.32v-58.6c0-33.42,24.1-47.53,48-47.53,21.27,0,41.45,11.07,46.23,37.12l55.34-39.07v31.25ZM83,841.81V815.12c0-18.66-10.63-26.48-24.31-26.48S34,797.11,34,811.65v30.16Z"/><path d="M34,636.94v42.75H159.86v26.48H34v42.75H10.32v-112Z"/><path d="M34,587H74.57V536.23H98.22V587h61.64V613.5H10.32V522.78H34Z"/><path d="M85.2,509.54c-42.32,0-76.61-33.2-76.61-76,0-42.54,34.29-76,76.61-76S162,391,162,433.58C162,476.34,127.52,509.54,85.2,509.54Zm0-125.44c-28.65,0-51.87,21-51.87,49.7,0,28.43,23.22,49.05,51.87,49.05s51.87-20.62,51.87-49.05C137.07,405.15,113.85,384.1,85.2,384.1Z"/><path d="M10.32,329V302.49H136.2V244.33h23.66V329Z"/><path d="M10.32,220.67V194.2H159.86v26.47Z"/><path d="M85.2,165.55c-42.32,0-76.61-33.2-76.61-76,0-42.54,34.29-76,76.61-76S162,47.05,162,89.59C162,132.35,127.52,165.55,85.2,165.55Zm0-125.44c-28.65,0-51.87,21-51.87,49.7,0,28.43,23.22,49.05,51.87,49.05s51.87-20.62,51.87-49.05C137.07,61.16,113.85,40.11,85.2,40.11Z"/></svg>