<svg id="Layer_1" data-name="Layer 1" xmlns="http://www.w3.org/2000/svg" width="1000" height="1000" viewBox="0 0 1000 1000"><defs><style>.cls-1{fill:#111426;}</style></defs><title>v</title><path class="cls-1" d="M141.5,73.11h-104V179.73h47V115.11H138c25.81,0,40.84,19.65,40.84,43.92a48.32,48.32,0,0,1-4.21,20.7h49a102.2,102.2,0,0,0,2.24-21.47C225.87,115.88,200.83,73.11,141.5,73.11Z"/><path class="cls-1" d="M191.51,240.32c37.3-6.83,57.3-31.49,63.64-60.59h-49c-6.31,13.48-20,22.45-42.8,22.45H116V179.73H69V338.56h47v-96.7h23.89l65.49,96.7h55.48Z"/><path class="cls-1" d="M465.64,296.58v42H298.82V73.13h163v42H345.44v71.66H447.15v42.76H345.44v67Z"/><path class="cls-1" d="M378.15,370.82H270.67V477.43h47V412.81H377c27,0,37.75,22.35,37.75,43.15a53,53,0,0,1-4.27,21.47h49.1A104.69,104.69,0,0,0,461.76,456C461.76,413.58,436.71,370.82,378.15,370.82Z"/><path class="cls-1" d="M426.21,477.43c-6,10.47-16.53,17.79-32.86,17.79H335.18V477.43h-47V632.76h47V537.6h60.49c47.07,0,72.46-27.11,80.62-60.17Z"/><path class="cls-1" d="M490.65,503.75c0-75.13,59-136,134.85-136,75.51,0,134.84,60.87,134.84,136S701,640.13,625.5,640.13C549.6,640.13,490.65,578.87,490.65,503.75Zm222.69,0c0-50.86-37.37-92.08-88.23-92.08-50.47,0-87.07,41.22-87.07,92.08s36.6,92.08,87.07,92.08C676,595.83,713.34,554.6,713.34,503.75Z"/><path class="cls-1" d="M800.68,502V636.26h47V502Zm148.71,0V548L922.25,502H874l79.61,134.31H996.4V502Z"/><path class="cls-1" d="M931.88,370.82V502h47V370.82Zm-148.71,0V502h47V457.5L856.51,502h48.23L827.48,370.82Z"/><path class="cls-1" d="M246.67,778.64H126.82c10.09,9.07,24.59,17,45.29,22.27l33.13,9.25c22.35,6.16,38.14,17,38.14,35.44,0,20.81-17.34,36.22-44.3,36.22-29.28,0-48.93-18.88-49.32-39.3H103.15c0,44.69,38.14,81.29,94.77,81.29,52,0,92.46-31.59,92.46-80.13C290.38,812.22,272.77,791.8,246.67,778.64Z"/><path class="cls-1" d="M313.22,782.14V923.46h47V782.14Z"/><path class="cls-1" d="M487,782.14,468.9,846l-18.07-63.88h-46.2l43.08,141.32h42.77l42.86-141.32Z"/><path class="cls-1" d="M663,876.37v-67H764.68V777H616.35V918.36H783.17v-42Z"/><path class="cls-1" d="M101.15,758.92c-30.44-7.71-32.75-23.5-32.75-30.82,0-20.81,18.88-34.68,41.61-34.68,24.66,0,41.22,15.8,41.22,37.76h46.62c0-49.7-38.14-79.75-86.68-79.75C62.24,651.43,21,681.86,21,728.87c0,15.79,4.7,36.84,25.92,53.27H169c-10.62-6.24-22.95-11-36.29-14.75Z"/><path class="cls-1" d="M225.66,494.94H105.81c10.08,9.07,24.58,16.95,45.28,22.28l33.14,9.24c22.34,6.17,38.14,16.95,38.14,35.45,0,20.8-17.34,36.21-44.31,36.21-29.28,0-48.93-18.88-49.31-39.29H82.13c0,44.69,38.14,81.29,94.78,81.29,52,0,92.46-31.6,92.46-80.14C269.37,528.53,251.75,508.11,225.66,494.94Z"/><path class="cls-1" d="M80.13,475.22c-30.43-7.7-32.74-23.5-32.74-30.82,0-20.8,18.88-34.67,41.61-34.67,24.65,0,41.22,15.79,41.22,37.75h46.62c0-49.69-38.15-79.75-86.69-79.75C41.22,367.73,0,398.17,0,445.17,0,461,4.69,482,25.92,498.44H148c-10.61-6.23-22.94-11-36.28-14.74Z"/><path class="cls-1" d="M313.22,658V785.64h47V658Z"/><path class="cls-1" d="M546.58,658,510.51,785.64h46.3L595.51,658Zm-155.26,0,38.91,127.63h46.1L440.25,658Z"/><path class="cls-1" d="M779.32,694.91v-42h-163V780.54H764.68v-14H663V694.91Z"/><path class="cls-1" d="M592.5,116.48c0-18.67,15.2-32.13,33-32.13,18.23,0,33,13.46,33,32.13,0,18.23-14.76,32.12-33,32.12C607.7,148.6,592.5,134.71,592.5,116.48Zm0,178.74c0-18.66,15.2-32.12,33-32.12,18.23,0,33,13.46,33,32.12s-14.76,32.13-33,32.13C607.7,327.35,592.5,313.89,592.5,295.22Z"/></svg>
