<svg id="Layer_1" data-name="Layer 1" xmlns="http://www.w3.org/2000/svg" width="1000" height="1240.28" viewBox="0 0 1000 1240.28"><defs><style>.cls-1{fill:#111426;}</style></defs><title>animation</title><path class="cls-1" d="M302.72,190.85h-60.8l7.35,20.8H151.7l7.35-20.8H98L38.7,348.51h64.7l29.87-84.12H267.7l29.87,84.12h64.21Z"/><path class="cls-1" d="M404.06,190.85V348.51h60.72V190.85Zm192.15,0v43.67l-25.74-43.67H508.23l93.45,157.66h55.24V190.85Z"/><path class="cls-1" d="M744.5,190.85V348.51h60.76V190.85Z"/><path class="cls-1" d="M19.24,572,0,729.66H60.76L79.86,572Zm210.7,0-23.85,50.67-24-50.67H123.81L181.7,690.87H231L288.42,572Zm162.55,0H332.23L351,729.66h60.72Z"/><path class="cls-1" d="M699.57,572H638.76l7.35,20.8H548.54l7.35-20.8H494.82L435.54,729.66h64.71l29.86-84.12H664.54l29.87,84.12h64.21Z"/><path class="cls-1" d="M782.92,572V729.66h60.72V572Z"/><path class="cls-1" d="M80.71,971.08v162.15h60.72V971.08Z"/><path class="cls-1" d="M454.19,971.08C450,1032.56,403.17,1081,340.52,1081c-62.19,0-108.06-48.43-112.19-109.91H167c4.57,92.87,79,167.12,174,167.12,94.48,0,169.36-74.25,174-167.12Z"/><path class="cls-1" d="M773.06,971.08v48.16l-28.38-48.16H682.44l96.09,162.15h55.24V971.08Zm-192.14,0v162.15h60.71V971.08Z"/><path class="cls-1" d="M233.35,10.05H167.62L98,195.33h61.07L200.48,77.71l41.44,117.62h60.8Z"/><path class="cls-1" d="M412,5.56H354.74V190.85h60.71V117.53l43.45,73.32h62.24Zm134.93,0V190.85H607.6V5.56Z"/><path class="cls-1" d="M744.5,10.05V195.33h60.76V10.05Z"/><path class="cls-1" d="M419.22,400.17H366.44L285.59,572H344.2l28.7-59.37,7,59.37h60.22Zm-275.28,0H91.16L70.22,572H130.8l7.13-58.83L166.58,572H225.1Z"/><path class="cls-1" d="M631.92,391.2H562.75l-68,180.8h63.93l38.64-109.61L636,572h63.64Z"/><path class="cls-1" d="M743.15,400.17v54.25h98.07V572h60.71V454.42H1000V400.17Z"/><path class="cls-1" d="M80.71,794.77V971.08h60.72V794.77Z"/><path class="cls-1" d="M341,790.78c-98.07,0-174.26,78.65-174.26,175.68,0,1.57,0,3.1.05,4.62h61.3c-.05-1.52-.09-3.09-.09-4.62,0-65.69,47.26-119,112.5-119,65.69,0,114,53.27,114,119,0,1.53-.05,3.1-.09,4.62h60.76c0-1.52,0-3.05,0-4.62C515.22,869.43,438.55,790.78,341,790.78Z"/><path class="cls-1" d="M579.84,794.77H522.62V971.08h60.72V906.73l38.16,64.35h62.24Zm134.93,0V971.08h60.71V794.77Z"/></svg>
