<svg id="Layer_1" data-name="Layer 1" xmlns="http://www.w3.org/2000/svg" width="1000" height="1000" viewBox="0 0 1000 1000"><defs><style>.cls-1{fill:#111426;}</style></defs><title>v copy</title><path class="cls-1" d="M575.05,74.2c0-17.44,14.19-30,30.82-30,17,0,30.83,12.57,30.83,30,0,17-13.79,30-30.83,30C589.24,104.22,575.05,91.24,575.05,74.2Zm0,167c0-17.44,14.19-30,30.82-30,17,0,30.83,12.57,30.83,30s-13.79,30-30.83,30C589.24,271.22,575.05,258.64,575.05,241.2Z"/><path class="cls-1" d="M183,68.52V23.78H9.38V157.7h158V144.87H59.05V68.52Z"/><path class="cls-1" d="M456.39,23.78H396.46l-58.7,91.53L279.47,23.78H219.54L307.8,155.13l-1.68,2.57h63l-1.41-2.16Z"/><path class="cls-1" d="M123,309.73H8.52V443.66H58.6V354.47h63.21c28.74,0,40.23,23.81,40.23,46,0,18.58-7.76,36.87-26.35,43.21H203.2a104.54,104.54,0,0,0,8.92-43.21C212.12,355.3,185.44,309.73,123,309.73Z"/><path class="cls-1" d="M434.45,357V312.2H260.82V442.25h158v-9H310.49V357Z"/><path class="cls-1" d="M598.57,312.2H487.74V442.25h50.08V357h57c27.51,0,43.52,20.93,43.52,46.79,0,16.34-5.9,30.37-19.15,38.51h61.65a101,101,0,0,0,7.57-39.33C688.46,357.77,661.78,312.2,598.57,312.2Z"/><path class="cls-1" d="M753.39,312.2V442.25h50.08v-130Z"/><path class="cls-1" d="M183.41,650.21V605.47H9.78V746.89h158V726.56H59.45V650.21Z"/><path class="cls-1" d="M290.92,601.77h-47.2V746.89h50.07V694.13l31.28,52.76h51.34Zm111.24,0V746.89h50.08V601.77Z"/><path class="cls-1" d="M656.29,598.49c-79.63,0-146.14,64.85-146.14,144.9,0,1.19,0,2.35,0,3.5h50.53c0-1.15-.08-2.31-.08-3.5,0-54.19,40.64-98.11,94.41-98.11,30.79,0,56.24,14.37,73.48,37l37.76-28.74C740.84,620.24,702.68,598.49,656.29,598.49Z"/><path class="cls-1" d="M987.54,646.51V601.77H813.91V746.89h158v-24H863.57V646.51Z"/><path class="cls-1" d="M135.69,443.66A45.87,45.87,0,0,1,120.58,446h-62v-2.35Z"/><path class="cls-1" d="M60.27,841V769.62H168.64V746.37H10.6V885.78H188.34V841Z"/><path class="cls-1" d="M447.76,746.37v41.72l-24.59-41.72H371.82l80.46,135.72h45.56V746.37ZM289.32,882.09h50.07V746.37H289.32Z"/><path class="cls-1" d="M774.13,802.46C756.89,824.62,731.44,839,700.65,839c-52.73,0-91.68-41-94.26-92.62H555.87c2.83,77.51,65.75,139.41,143.55,139.41,46.38,0,87-21.34,112.47-55Z"/><path class="cls-1" d="M864.4,837.35V765.93H972.76V746.37h-158V882.09H992.46V837.35Z"/><path class="cls-1" d="M311,542.67V471.24H419.34v-29h-158V587.41H439V542.67Z"/><path class="cls-1" d="M663.54,482.74c28.88-5.3,48-20.6,58.92-40.49H533V587.41h50.08v-103h25.45l69.78,103h59.11Z"/><path class="cls-1" d="M753.88,442.25V587.41H804V442.25Z"/><path class="cls-1" d="M58.19,256.93V185.5H166.55V157.7H8.52v144H186.26V256.93Z"/><path class="cls-1" d="M406.38,157.7H337l-93.26,144h59.11l69-110.83,69,110.83h59.11Z"/><path class="cls-1" d="M59.9,443.66v144H110V486.24h64.45c39.4,0,64.55-17.84,77.73-42.58Z"/></svg>
