<svg id="Layer_1" data-name="Layer 1" xmlns="http://www.w3.org/2000/svg" width="959.71" height="744.11" viewBox="0 0 959.71 744.11"><title>ommig</title><path d="M841.53,377.41c-91.72-33.54-190.12,11.29-227.44,99.8l59.27,21.52c26-58.29,89.22-88.64,148.32-67,29.78,10.89,52.12,33.22,64.62,60.13l55.8-21.54C924.35,429.48,889.09,394.8,841.53,377.41Z"/><path d="M790.89,557.39v52.18H891.67c0,3.07-1,5.63-1.54,8.19-8.69,43.48-48.08,69.57-99.75,69.57-66,0-116.59-56.74-116.64-123.76l-62.92.19c.14,99.15,78.87,180.35,179.56,180.35,99.34,0,167.37-56.64,169.28-181.28.05-1.77.05-3.63.05-5.44Z"/><path d="M202.3,0c-100.78,0-179,80.83-179,180.58a192.32,192.32,0,0,0,1.86,26.56H88.78a134.71,134.71,0,0,1-2.6-26.56c0-67.52,48.6-122.26,115.61-122.26,67.53,0,117.15,54.74,117.15,122.26a127.56,127.56,0,0,1-2.7,26.56h63.21a186.28,186.28,0,0,0,1.9-26.56C381.35,80.83,302.57,0,202.3,0Z"/><path d="M512.73,4.6H458.51l-24.7,202.54h62.32l10.47-86.41,42.08,86.41h59.76Zm282.9,0H741.41l-95.3,202.54h59.95l42-86.92,10.32,86.92h62Z"/><path d="M506.26,383.68V586.26h62.41V383.68Z"/><path d="M315.45,204.84c-11,54.78-56,95.71-114.45,95.71-57.95,0-102.13-40.93-113-95.71H24.32c12.47,87.24,85.53,154.54,177.19,154.54,91.2,0,164.64-67.3,177.15-154.54Z"/><path d="M870.69,204.84H808.75l17.81,149.93H889Zm-174.21,0-18.79,39.95-18.88-39.95H599l53.63,110h50.64l53.16-110Zm-212.35,0L465.86,354.77h62.45l18.14-149.93Z"/><path d="M78.92,382.3H24.69L0,584.84H62.32l10.46-86.41,42.09,86.41h59.76Zm282.9,0H307.59L212.3,584.84h59.95l42-86.92,10.33,86.92h61.95Z"/><path d="M436.88,582.54H374.94l17.81,149.93h62.41Zm-174.21,0-18.79,40-18.88-40H165.19l53.62,110h50.65l53.16-110Zm-212.35,0L32,732.47H94.5l18.14-149.93Z"/><path d="M506.26,583V731.5h62.41V583Z"/></svg>
