<svg id="Layer_1" data-name="Layer 1" xmlns="http://www.w3.org/2000/svg" width="1000" height="1240.28" viewBox="0 0 1000 1240.28"><defs><style>.cls-1{fill:#111426;}</style></defs><title>redesign</title><path class="cls-1" d="M580.82,309.16V367.7H348.28v-370H575.44V56.21H413.26V156.1H555v59.61H413.26v93.45Z"/><path class="cls-1" d="M765.76,72.13c0-23.09,18.8-39.74,40.82-39.74,22.55,0,40.81,16.65,40.81,39.74,0,22.55-18.26,39.74-40.81,39.74C784.56,111.87,765.76,94.68,765.76,72.13Zm0,221.11c0-23.09,18.8-39.74,40.82-39.74,22.55,0,40.81,16.65,40.81,39.74S829.13,333,806.58,333C784.56,333,765.76,316.33,765.76,293.24Z"/><path class="cls-1" d="M145,404H0V589H65.52V462.52H145c66.88,0,101.26,57.56,101.5,126.49h66.05C312.26,484.14,250.55,404,145,404Z"/><path class="cls-1" d="M612.71,462.52V404H385.54V589H592.3V562.4H450.52V462.52Z"/><path class="cls-1" d="M785.1,549.52c-42.43-10.74-45.65-32.76-45.65-43,0-29,26.31-48.33,58-48.33,34.37,0,57.46,22,57.46,52.63h65c0-69.28-53.16-111.17-120.83-111.17-68.2,0-125.67,42.43-125.67,108,0,24.41,8,57.8,46.53,81.38H890.75c-17-12.2-38.23-21.19-61.62-27.68Z"/><path class="cls-1" d="M33.78,828.24v185H99.3v-185Z"/><path class="cls-1" d="M358.69,823.94c-105.55,0-188.11,84.41-188.5,189.33h66.06c.39-71.08,53.41-128.64,122.44-128.64,33.3,0,63.37,14,85.39,36l47.26-41.35C459.12,845.42,411.86,823.94,358.69,823.94Z"/><path class="cls-1" d="M661,828.24H599.23v185H664.8v-64.2l38,64.2h67.23Zm145.54,0v185H872.1v-185Z"/><path class="cls-1" d="M33.78,1012.56v184.35H99.3V1012.56Z"/><path class="cls-1" d="M407.85,1006.26V1061h105.8c0,3.22-1.07,5.91-1.61,8.59-9.13,45.65-50.48,73-104.72,73-69.33,0-122.45-59.61-122.45-130v-.15h-66.1v.15c0,104.18,82.75,189.57,188.55,189.57,104.13,0,175.46-59.32,177.71-189.72.05-2,.05-4.2.05-6.3Z"/><path class="cls-1" d="M855.16,1012.56v61.37L819,1012.56H751.8l109.26,184.35h59.61V1012.56Zm-207.3,184.35h65.52V1012.56H647.86Z"/><path class="cls-1" d="M313.09,589c-.24,68.4-34.61,124.89-101.5,124.89H132.11V589H66.54V772.48H211.59c105.55,0,167.26-79.14,167.56-183.47Z"/><path class="cls-1" d="M450.47,713.9V620.45H592.24V589H385.48V772.48H618V713.9Z"/><path class="cls-1" d="M959.44,589H789.15c11.81,6.89,26.41,12.89,44.28,17.48l46.19,12.94c31.14,8.54,53.16,23.58,53.16,49.4,0,29-24.17,50.44-61.76,50.44-40.81,0-68.2-26.32-68.74-54.78h-65c0,62.34,53.17,113.36,132.11,113.36,72.5,0,128.89-44,128.89-111.75C998.3,631.88,983.31,607,959.44,589Z"/><path class="cls-1" d="M141.75-2.32h-145V146.29H62.26V56.21h74.65c36,0,56.93,27.39,56.93,61.23,0,10.54-1.86,20.35-5.86,28.85h68.25a141.83,141.83,0,0,0,3.13-29.93C259.36,57.29,224.45-2.32,141.75-2.32Z"/><path class="cls-1" d="M211.46,230.75c52-9.52,79.88-43.89,88.71-84.46H231.92c-8.79,18.8-27.88,31.29-59.66,31.29H106.2V146.29H40.69V367.7H106.2V232.9h33.3l91.3,134.8h77.33Z"/></svg>
