<svg xmlns="http://www.w3.org/2000/svg" viewBox="0 0 800 400"><defs><style>.cls-1,.cls-8,.cls-9{fill:none;}.cls-1{stroke:#1a541d;}.cls-1,.cls-9{stroke-miterlimit:10;}.cls-2{fill:#75431a;}.cls-3{fill:#bf7934;}.cls-4{fill:#941800;}.cls-5{fill:gray;}.cls-6{fill:#fff;}.cls-7{fill:#b3b3b3;}.cls-9{stroke:#aaa;stroke-width:0.75px;}.cls-10{fill:#aaa;}</style></defs><title>Bass</title><g id="gamescreen"><g id="Layer_3" data-name="Layer 3"><g id="BASS"><g id="BASS-2" data-name="BASS"><line class="cls-1" x1="489.02" y1="174.86" x2="463.7" y2="180.45"/><polygon class="cls-2" points="630.71 143.53 489.02 174.86 463.7 180.45 457.7 181.78 379.78 199.01 357.75 203.88 343.18 207.1 319.87 212.25 319.87 172.25 328.84 170.91 357.9 166.57 363.62 165.72 448.1 153.11 464.91 150.6 485.83 147.48 614.22 128.31 630.71 143.53"/><path class="cls-1" d="M271.7,128.31h0"/><path class="cls-3" d="M328.3,100.25a96.66,96.66,0,0,1,94.18-19.77c1.22.4,2.42.82,3.62,1.27a14.12,14.12,0,0,1,7.37,12.55c0,7.76-6,14-13.37,14a12.51,12.51,0,0,1-5.15-1.09,3.76,3.76,0,0,0-1.55-.34c-29.54.42-56.85,18-56.85,47.58a54.52,54.52,0,0,0,1.35,12.07l-29.06,4.34A58.06,58.06,0,0,1,327.06,160s.85-7.61-24.95-4.23-67.24-12.3-90.71-3.82a60.28,60.28,0,1,0,36,108.66l.1-.08c2.68-2,57.49-43.12,90.43-20a37.67,37.67,0,0,1,4.41,3.61,10.08,10.08,0,0,0,4.7.83,10.36,10.36,0,0,0,7.87-16.3l-.08-.13c-.68-1.15-5.89-9.94-11.61-21.45l14.57-3.22A54.3,54.3,0,0,0,402,246c1.08.18,2.18.32,3.29.43a11.42,11.42,0,0,1,7.59,11.08c0,5.52-2.13,8.4-4.47,9.89q-4.55.76-9.21,1.08-3.3.23-6.65.23a96.09,96.09,0,0,1-29.19-4.5h0l-.12-.07-.18-.1-.36-.19-.29-.16-.61-.32-.36-.18L361,263l-.28-.14-.38-.19h0c-1-.52-2.34-1.13-3.84-1.8l-1.09-.47c-1.2-.51-2.51-1.05-3.91-1.59l-1.55-.58-1.08-.39-1.57-.53-.92-.3c-15.25-4.89-37.28-7.71-50.85,9.48-22.1,39.84-67.77,64.79-118.2,56a110.92,110.92,0,0,1-89.81-88.76c-13.23-71.3,41.12-133.47,110-133.47a111.57,111.57,0,0,1,74.15,28.06c.76.13,22.71,3.52,48.55-20Z"/><path class="cls-3" d="M614.22,128.31l7.33-11.84s90.62-11.29,92.74-9.18-16.76,32-18.45,33.28-49.06,10.15-50.75,9.3-14.38-6.34-14.38-6.34Z"/><path class="cls-4" d="M356.75,235A10.44,10.44,0,0,1,347,245a10.08,10.08,0,0,1-4.7-.83,37.67,37.67,0,0,0-4.41-3.61c-32.94-23.11-87.75,18-90.43,20l-.1.08A60.28,60.28,0,1,1,211.4,152c23.47-8.48,64.91,7.21,90.71,3.82S327.06,160,327.06,160a58.06,58.06,0,0,0,1.78,10.89l-9,1.34v40l23.31-5.15c5.72,11.51,10.93,20.3,11.61,21.45l.08.13A10.34,10.34,0,0,1,356.75,235Z"/><rect class="cls-5" x="96.9" y="190.79" width="45.36" height="53.6" rx="5.05"/><rect x="96.9" y="190.79" width="31.72" height="53.6" rx="6.67"/><rect class="cls-6" x="206.53" y="163.41" width="19.45" height="48.84" rx="9.73"/><rect class="cls-6" x="206.53" y="216.12" width="19.45" height="48.84" rx="9.73"/><ellipse cx="215.84" cy="187.83" rx="4.92" ry="5.42"/><ellipse cx="216.21" cy="240.54" rx="4.92" ry="5.42"/><path class="cls-7" d="M216.26,265h0a9.76,9.76,0,0,0,9.73-9.72V225.85a9.76,9.76,0,0,0-9.73-9.73h0C216.24,216,216.28,264.82,216.26,265Z"/><path class="cls-7" d="M216.26,212.25h0a9.76,9.76,0,0,0,9.73-9.73V173.13a9.75,9.75,0,0,0-9.73-9.72h0C216.24,163.26,216.28,212.11,216.26,212.25Z"/><line class="cls-8" x1="622.15" y1="123.31" x2="104.51" y2="202.1"/><line class="cls-8" x1="622.15" y1="136.31" x2="104.51" y2="215.1"/><line class="cls-9" x1="699.22" y1="119.74" x2="114.66" y2="203.16"/><line class="cls-9" x1="688.35" y1="124.82" x2="104.51" y2="215.1"/><line class="cls-9" x1="658.35" y1="136.04" x2="107.79" y2="237.94"/><line class="cls-9" x1="688.35" y1="126.23" x2="108.95" y2="226.95"/></g><circle class="cls-10" cx="689.33" cy="126.06" r="3.21"/><circle class="cls-10" cx="673.35" cy="130.84" r="3.21"/><circle class="cls-10" cx="658.35" cy="136.04" r="3.21"/><circle class="cls-10" cx="699.65" cy="119.68" r="3.21"/></g></g></g></svg>
