<svg xmlns="http://www.w3.org/2000/svg" viewBox="0 0 313 346"><defs><style>.cls-1{fill:#3faf49;}.cls-10,.cls-2,.cls-4{fill:none;}.cls-2{stroke:#3faf49;}.cls-10,.cls-2,.cls-4,.cls-6,.cls-7,.cls-8{stroke-miterlimit:10;}.cls-3{fill:#1aaa00;}.cls-10,.cls-4{stroke:#1a541d;}.cls-5{fill:#1a541d;}.cls-6,.cls-9{fill:#fff;}.cls-6,.cls-7,.cls-8{stroke:#000;}.cls-8{fill:#2d6623;}.cls-10{stroke-width:1.5px;}</style></defs><title>broccoli</title><g id="Layer_1" data-name="Layer 1"><g id="Broccoli"><path class="cls-1" d="M247.11,66a5.26,5.26,0,0,1-.15.53l-.42,0A5.47,5.47,0,0,1,247.11,66Z"/><path class="cls-1" d="M282.51,94c-.49,0-1,.08-1.46.14.3-.35.58-.7.86-1.06C282.12,93.39,282.31,93.69,282.51,94Z"/><path class="cls-1" d="M101,29.18a17.8,17.8,0,0,1,.21-2.75,28.38,28.38,0,0,0-3.94,4.84,32,32,0,0,1,4,.74A17.62,17.62,0,0,1,101,29.18Zm-2,1.34c.32-.44.65-.87,1-1.29,0,.5,0,1,.06,1.49C99.71,30.64,99.35,30.58,99,30.52Z"/><path class="cls-1" d="M140,7.29a33.71,33.71,0,0,0-10.24,1.58,23,23,0,0,1,13.52,8.87,19.85,19.85,0,0,1,4.49-9.54A33.12,33.12,0,0,0,140,7.29Zm2.77,8.19A23.91,23.91,0,0,0,133.4,9a33.65,33.65,0,0,1,6.6-.66,33.2,33.2,0,0,1,6,.55A21,21,0,0,0,142.77,15.48Z"/><path class="cls-1" d="M189.16,18.57l-.27.43a4.18,4.18,0,0,0-.06-.51Z"/><path class="cls-1" d="M247.11,66a5.26,5.26,0,0,1-.15.53l-.42,0A5.47,5.47,0,0,1,247.11,66Z"/><path class="cls-1" d="M247.11,66a5.26,5.26,0,0,1-.15.53l-.42,0A5.47,5.47,0,0,1,247.11,66Z"/><path class="cls-2" d="M71.12,144.35c1.48-.13,2.38-.11,2.38.16m203-15.5c0-1.43,4.3,1.73,9.6,2.92M246.54,66.51l.42,0a5.26,5.26,0,0,0,.15-.53A5.47,5.47,0,0,0,246.54,66.51Zm35.37,26.57c-.28.36-.56.71-.86,1.06.49-.06,1-.1,1.46-.14C282.31,93.69,282.12,93.39,281.91,93.08Z"/><path class="cls-3" d="M285,74c0,.33,0,.64,0,1-.1-.33-.23-.67-.36-1l.39,0v-.13c0-10.08-5.79-18.93-14.5-23.93a18.85,18.85,0,0,0,.5-4.33c0-11.58-10.3-21-23-21a24.1,24.1,0,0,0-16.06,6,17.94,17.94,0,0,1-.61,3.6c-.65-.31-1.31-.59-2-.86a21,21,0,0,1,2.6-2.74q.06-.7.06-1.41c0-11.58-10.3-21-23-21a23.47,23.47,0,0,0-19.84,10.36l-.27.43a4.18,4.18,0,0,0-.06-.51C187.49,8.08,177.78,0,166,0a23.75,23.75,0,0,0-18.23,8.2,19.85,19.85,0,0,0-4.49,9.54,23,23,0,0,0-13.52-8.87A24.75,24.75,0,0,0,124,8.21c-11.68,0-21.33,7.94-22.79,18.22a17.8,17.8,0,0,0-.21,2.75,17.62,17.62,0,0,0,.22,2.83,32,32,0,0,0-4-.74A33.41,33.41,0,0,0,93,31,31.77,31.77,0,0,0,66.75,44.22,24.68,24.68,0,0,0,62,43.76c-11,0-20.17,7-22.45,16.42H39c-12.7,0-23,9.39-23,21a18.89,18.89,0,0,0,.3,3.38C6.6,89.29,0,98.65,0,109.41,0,123,10.47,134.29,24.44,137A23,23,0,0,0,42.1,148.44c-.06,1.3,21.68-3.38,29-4.09,39.27,18.3,55.23,51.54,55.23,86.62,0,31-4,58.39-23.82,83.2-9.47,9.14-7.13,22.8,8,22.8l16.59,4.93a28.39,28.39,0,0,0,11.4,2.28,26.4,26.4,0,0,0,14.37-3.9,17.17,17.17,0,0,0,2.41,1.62,29,29,0,0,0,26.44,0,16.43,16.43,0,0,0,2.79-1.94,14.81,14.81,0,0,0,2.31,1.94,28.32,28.32,0,0,0,29.37,0c14.69-.27,22.86-13.45,13.77-22.55L217.13,306.5c-34.63-46.2-38.63-138.59,27.23-170.73l.28-.28c29,22.37,39.42,1.62,41.46-3.56a13.62,13.62,0,0,0,7.4-.19c2.86-1,4-2.09,3.29-4.77-1.33-5.31,13.64-11.55,15.4-18.39a26.13,26.13,0,0,0,.81-6.47C313,87.43,300.71,75.35,285,74ZM128.82,192.72a14,14,0,1,1,17.9,8.46A14,14,0,0,1,128.82,192.72ZM160.5,234c-25,0-21-15.5-21-15.5h42S184.5,234,160.5,234Zm27.68-42.28a14,14,0,1,1-8.46-17.9A14,14,0,0,1,188.18,191.72ZM247,66.53l-.42,0a5.47,5.47,0,0,1,.57-.51A5.26,5.26,0,0,1,247,66.53Zm34.09,27.61c.3-.35.58-.7.86-1.06.21.31.4.61.6.92C282,94,281.54,94.08,281.05,94.14Z"/><path class="cls-1" d="M285,74c0,.33,0,.64,0,1-.1-.33-.23-.67-.36-1Z"/><path class="cls-4" d="M282.51,94c-.49,0-1,.08-1.46.14.3-.35.58-.7.86-1.06C282.12,93.39,282.31,93.69,282.51,94Z"/><path class="cls-1" d="M285,74c0,.33,0,.64,0,1-.1-.33-.23-.67-.36-1Z"/><path class="cls-1" d="M247.11,66a5.26,5.26,0,0,1-.15.53l-.42,0A5.47,5.47,0,0,1,247.11,66Z"/><path class="cls-4" d="M247.11,66a5.26,5.26,0,0,1-.15.53l-.42,0A5.47,5.47,0,0,1,247.11,66Z"/><path class="cls-1" d="M231.94,30.59a17.94,17.94,0,0,1-.61,3.6c-.65-.31-1.31-.59-2-.86A21,21,0,0,1,231.94,30.59Z"/><path class="cls-1" d="M231.94,30.59a17.94,17.94,0,0,1-.61,3.6c-.65-.31-1.31-.59-2-.86A21,21,0,0,1,231.94,30.59Z"/><path class="cls-4" d="M41.5,119l23.55,22.74c2.08.84,4.11,1.71,6.07,2.63"/><line class="cls-2" x1="249.5" y1="130.63" x2="244.64" y2="135.49"/><path class="cls-4" d="M71.58,103.14c-2.1-7.3,2.69-14.78,10.7-16.7a15.89,15.89,0,0,1,1.65-.3A14.34,14.34,0,0,1,94.76,75.92a16.13,16.13,0,0,1,9.29.51A12.94,12.94,0,0,1,111.21,72,13.48,13.48,0,0,1,126,77.89l.34-.09c5.88-1.4,11.89,1.8,13.43,7.16"/><path class="cls-4" d="M137.05,79.16a13,13,0,0,1,7.16-4.44A13.49,13.49,0,0,1,159,80.63l.34-.09c5.88-1.41,11.89,1.79,13.43,7.16"/><path class="cls-4" d="M145.5,56.07c0-5.54,4.92-10,11-10,5.4,0,9.88,3.54,10.82,8.21h.18c6.08,0,11,4.48,11,10s-4.92,10-11,10"/><path class="cls-4" d="M205.88,62.79a6.4,6.4,0,0,1-3.78-8.69,7.44,7.44,0,0,1,8.28-3.82l.05-.1A7.51,7.51,0,0,1,220,46.74a6.39,6.39,0,0,1,3.77,8.69"/><path class="cls-4" d="M172.5,90.72c0-5.55,4.92-10,11-10a11.86,11.86,0,0,1,5.08,1.13,11.12,11.12,0,0,1,9.92-5.69,11,11,0,0,1,10.26,6.41c.25,0,.49,0,.74,0a11.23,11.23,0,0,1,9.51,5,11.67,11.67,0,0,1,5.49-1.34c6.08,0,11,4.48,11,10a9.28,9.28,0,0,1-1.24,4.62,10.2,10.2,0,0,1,1.24-.06c6.08,0,11,4.48,11,10s-4.92,10-11,10"/><path class="cls-4" d="M114.62,46.5c-2.73-5-.54-11,4.89-13.46a11.93,11.93,0,0,1,5.1-1.07,10,10,0,0,1,6.07-9.14A11.81,11.81,0,0,1,143,24.36c.21-.12.42-.22.65-.33a11.89,11.89,0,0,1,10.95.57,10.55,10.55,0,0,1,4.25-3.44c5.43-2.49,12-.5,14.76,4.46a9.33,9.33,0,0,1,1.17,4.64,9.21,9.21,0,0,1,1.08-.57c5.43-2.48,12-.49,14.76,4.46s.54,11-4.89,13.47"/><path class="cls-4" d="M89.5,105.68s24,17.38,20,40.65"/><path class="cls-4" d="M124.5,100.75s-11,25.38,10,45.13c0,0,20-32.37,11-42.4"/><path class="cls-4" d="M158.5,107.13s-6,26.44,5,37.38c0,0,36-31,27-41.94"/><path class="cls-4" d="M231.5,126.27s-13,18.24-31,25.53c-20.54,8.32,13-38.29,13-38.29"/><path class="cls-2" d="M244.64,135.49l-.14-.1"/><path class="cls-2" d="M286.5,130.83s-.12.41-.4,1.1"/><path class="cls-4" d="M101.5,50.6c-2.86-.52-17.47,3.12-20,9.12"/><path class="cls-5" d="M126.65,218.5,92.87,234.28A9,9,0,0,0,90.63,249l27.87,26,3.88-12.93-21.49-9.18a7.16,7.16,0,0,1,.71-12.49L127,232Z"/><path class="cls-5" d="M191.86,229.86,248.5,201.5c20,1,17-4,17-4s30-1,27-5-24,0-24,0,17-11,12-14-19,9-19,9,14-12,9-15-16,10-16,10,11-7-3-9-3,15-3,15c-34,29-56.64,30-56.64,30Z"/><g id="EYE"><path class="cls-6" d="M188.18,191.72a14,14,0,1,1-8.46-17.9A14,14,0,0,1,188.18,191.72Z"/><circle class="cls-7" cx="174.33" cy="188.88" r="5.6"/><path class="cls-8" d="M188.18,191.72c-.46,1.27-4.24.83-8.81-.41a74.7,74.7,0,0,1-10.48-3.75c-4.32-1.94-7.53-4-7.07-5.28a14,14,0,0,1,26.36,9.44Z"/></g><g id="EYE-2" data-name="EYE"><path class="cls-6" d="M146.72,201.18a14,14,0,1,1,8.46-17.9A14,14,0,0,1,146.72,201.18Z"/><circle class="cls-7" cx="142.67" cy="189.88" r="5.6"/><path class="cls-8" d="M148.11,188.56a74.7,74.7,0,0,1-10.48,3.75c-4.57,1.24-8.35,1.68-8.81.41a14,14,0,1,1,26.36-9.44C155.64,184.56,152.43,186.62,148.11,188.56Z"/></g><path class="cls-9" d="M160.5,233.5c-9.15,0-15.39-2.06-18.55-6.13a11,11,0,0,1-2-8.37h41.15a11.77,11.77,0,0,1-2.55,8.52C175.22,231.49,169.16,233.5,160.5,233.5Z"/><path d="M180.6,219.5a11.21,11.21,0,0,1-2.49,7.71C174.92,231.05,169,233,160.5,233c-9,0-15.07-2-18.13-5.91a10.45,10.45,0,0,1-2-7.59H180.6m.9-1h-42s-4,15.5,21,15.5c24,0,21-15.5,21-15.5Z"/><path class="cls-4" d="M138.88,264.16s1.4,27.46-10.76,47"/><path class="cls-4" d="M176.4,265.54s1.08,27.47,14.94,46"/><path class="cls-4" d="M184.51,340a9.62,9.62,0,0,1-3-6.72,10.13,10.13,0,0,1,4-7.64"/><path class="cls-10" d="M127.94,320.57c-5.67,2.25-9.44,6.27-9.44,10.84,0,3.07,1.71,5.9,4.56,8.11,1.16.91,5.42,1.81,6.94,2.48"/></g></g><g id="Layer_5" data-name="Layer 5"><g id="Broccoli-2" data-name="Broccoli"><path class="cls-1" d="M247.11,66a5.26,5.26,0,0,1-.15.53l-.42,0A5.47,5.47,0,0,1,247.11,66Z"/><path class="cls-1" d="M282.51,94c-.49,0-1,.08-1.46.14.3-.35.58-.7.86-1.06C282.12,93.39,282.31,93.69,282.51,94Z"/><path class="cls-1" d="M101,29.18a17.8,17.8,0,0,1,.21-2.75,28.38,28.38,0,0,0-3.94,4.84,32,32,0,0,1,4,.74A17.62,17.62,0,0,1,101,29.18Zm-2,1.34c.32-.44.65-.87,1-1.29,0,.5,0,1,.06,1.49C99.71,30.64,99.35,30.58,99,30.52Z"/><path class="cls-1" d="M140,7.29a33.71,33.71,0,0,0-10.24,1.58,23,23,0,0,1,13.52,8.87,19.85,19.85,0,0,1,4.49-9.54A33.12,33.12,0,0,0,140,7.29Zm2.77,8.19A23.91,23.91,0,0,0,133.4,9a33.65,33.65,0,0,1,6.6-.66,33.2,33.2,0,0,1,6,.55A21,21,0,0,0,142.77,15.48Z"/><path class="cls-1" d="M189.16,18.57l-.27.43a4.18,4.18,0,0,0-.06-.51Z"/><path class="cls-1" d="M247.11,66a5.26,5.26,0,0,1-.15.53l-.42,0A5.47,5.47,0,0,1,247.11,66Z"/><path class="cls-1" d="M247.11,66a5.26,5.26,0,0,1-.15.53l-.42,0A5.47,5.47,0,0,1,247.11,66Z"/><path class="cls-2" d="M71.12,144.35c1.48-.13,2.38-.11,2.38.16m203-15.5c0-1.43,4.3,1.73,9.6,2.92M246.54,66.51l.42,0a5.26,5.26,0,0,0,.15-.53A5.47,5.47,0,0,0,246.54,66.51Zm35.37,26.57c-.28.36-.56.71-.86,1.06.49-.06,1-.1,1.46-.14C282.31,93.69,282.12,93.39,281.91,93.08Z"/><path class="cls-3" d="M285,74c0,.33,0,.64,0,1-.1-.33-.23-.67-.36-1l.39,0v-.13c0-10.08-5.79-18.93-14.5-23.93a18.85,18.85,0,0,0,.5-4.33c0-11.58-10.3-21-23-21a24.1,24.1,0,0,0-16.06,6,17.94,17.94,0,0,1-.61,3.6c-.65-.31-1.31-.59-2-.86a21,21,0,0,1,2.6-2.74q.06-.7.06-1.41c0-11.58-10.3-21-23-21a23.47,23.47,0,0,0-19.84,10.36l-.27.43a4.18,4.18,0,0,0-.06-.51C187.49,8.08,177.78,0,166,0a23.75,23.75,0,0,0-18.23,8.2,19.85,19.85,0,0,0-4.49,9.54,23,23,0,0,0-13.52-8.87A24.75,24.75,0,0,0,124,8.21c-11.68,0-21.33,7.94-22.79,18.22a17.8,17.8,0,0,0-.21,2.75,17.62,17.62,0,0,0,.22,2.83,32,32,0,0,0-4-.74A33.41,33.41,0,0,0,93,31,31.77,31.77,0,0,0,66.75,44.22,24.68,24.68,0,0,0,62,43.76c-11,0-20.17,7-22.45,16.42H39c-12.7,0-23,9.39-23,21a18.89,18.89,0,0,0,.3,3.38C6.6,89.29,0,98.65,0,109.41,0,123,10.47,134.29,24.44,137A23,23,0,0,0,42.1,148.44c-.06,1.3,21.68-3.38,29-4.09,39.27,18.3,55.23,51.54,55.23,86.62,0,31-4,58.39-23.82,83.2-9.47,9.14-7.13,22.8,8,22.8l16.59,4.93a28.39,28.39,0,0,0,11.4,2.28,26.4,26.4,0,0,0,14.37-3.9,17.17,17.17,0,0,0,2.41,1.62,29,29,0,0,0,26.44,0,16.43,16.43,0,0,0,2.79-1.94,14.81,14.81,0,0,0,2.31,1.94,28.32,28.32,0,0,0,29.37,0c14.69-.27,22.86-13.45,13.77-22.55L217.13,306.5c-34.63-46.2-38.63-138.59,27.23-170.73l.28-.28c29,22.37,39.42,1.62,41.46-3.56a13.62,13.62,0,0,0,7.4-.19c2.86-1,4-2.09,3.29-4.77-1.33-5.31,13.64-11.55,15.4-18.39a26.13,26.13,0,0,0,.81-6.47C313,87.43,300.71,75.35,285,74ZM128.82,192.72a14,14,0,1,1,17.9,8.46A14,14,0,0,1,128.82,192.72ZM160.5,234c-25,0-21-15.5-21-15.5h42S184.5,234,160.5,234Zm27.68-42.28a14,14,0,1,1-8.46-17.9A14,14,0,0,1,188.18,191.72ZM247,66.53l-.42,0a5.47,5.47,0,0,1,.57-.51A5.26,5.26,0,0,1,247,66.53Zm34.09,27.61c.3-.35.58-.7.86-1.06.21.31.4.61.6.92C282,94,281.54,94.08,281.05,94.14Z"/><path class="cls-1" d="M285,74c0,.33,0,.64,0,1-.1-.33-.23-.67-.36-1Z"/><path class="cls-4" d="M282.51,94c-.49,0-1,.08-1.46.14.3-.35.58-.7.86-1.06C282.12,93.39,282.31,93.69,282.51,94Z"/><path class="cls-1" d="M285,74c0,.33,0,.64,0,1-.1-.33-.23-.67-.36-1Z"/><path class="cls-1" d="M247.11,66a5.26,5.26,0,0,1-.15.53l-.42,0A5.47,5.47,0,0,1,247.11,66Z"/><path class="cls-4" d="M247.11,66a5.26,5.26,0,0,1-.15.53l-.42,0A5.47,5.47,0,0,1,247.11,66Z"/><path class="cls-1" d="M231.94,30.59a17.94,17.94,0,0,1-.61,3.6c-.65-.31-1.31-.59-2-.86A21,21,0,0,1,231.94,30.59Z"/><path class="cls-1" d="M231.94,30.59a17.94,17.94,0,0,1-.61,3.6c-.65-.31-1.31-.59-2-.86A21,21,0,0,1,231.94,30.59Z"/><path class="cls-4" d="M41.5,119l23.55,22.74c2.08.84,4.11,1.71,6.07,2.63"/><line class="cls-2" x1="249.5" y1="130.63" x2="244.64" y2="135.49"/><path class="cls-4" d="M71.58,103.14c-2.1-7.3,2.69-14.78,10.7-16.7a15.89,15.89,0,0,1,1.65-.3A14.34,14.34,0,0,1,94.76,75.92a16.13,16.13,0,0,1,9.29.51A12.94,12.94,0,0,1,111.21,72,13.48,13.48,0,0,1,126,77.89l.34-.09c5.88-1.4,11.89,1.8,13.43,7.16"/><path class="cls-4" d="M137.05,79.16a13,13,0,0,1,7.16-4.44A13.49,13.49,0,0,1,159,80.63l.34-.09c5.88-1.41,11.89,1.79,13.43,7.16"/><path class="cls-4" d="M145.5,56.07c0-5.54,4.92-10,11-10,5.4,0,9.88,3.54,10.82,8.21h.18c6.08,0,11,4.48,11,10s-4.92,10-11,10"/><path class="cls-4" d="M205.88,62.79a6.4,6.4,0,0,1-3.78-8.69,7.44,7.44,0,0,1,8.28-3.82l.05-.1A7.51,7.51,0,0,1,220,46.74a6.39,6.39,0,0,1,3.77,8.69"/><path class="cls-4" d="M172.5,90.72c0-5.55,4.92-10,11-10a11.86,11.86,0,0,1,5.08,1.13,11.12,11.12,0,0,1,9.92-5.69,11,11,0,0,1,10.26,6.41c.25,0,.49,0,.74,0a11.23,11.23,0,0,1,9.51,5,11.67,11.67,0,0,1,5.49-1.34c6.08,0,11,4.48,11,10a9.28,9.28,0,0,1-1.24,4.62,10.2,10.2,0,0,1,1.24-.06c6.08,0,11,4.48,11,10s-4.92,10-11,10"/><path class="cls-4" d="M114.62,46.5c-2.73-5-.54-11,4.89-13.46a11.93,11.93,0,0,1,5.1-1.07,10,10,0,0,1,6.07-9.14A11.81,11.81,0,0,1,143,24.36c.21-.12.42-.22.65-.33a11.89,11.89,0,0,1,10.95.57,10.55,10.55,0,0,1,4.25-3.44c5.43-2.49,12-.5,14.76,4.46a9.33,9.33,0,0,1,1.17,4.64,9.21,9.21,0,0,1,1.08-.57c5.43-2.48,12-.49,14.76,4.46s.54,11-4.89,13.47"/><path class="cls-4" d="M89.5,105.68s24,17.38,20,40.65"/><path class="cls-4" d="M124.5,100.75s-11,25.38,10,45.13c0,0,20-32.37,11-42.4"/><path class="cls-4" d="M158.5,107.13s-6,26.44,5,37.38c0,0,36-31,27-41.94"/><path class="cls-4" d="M231.5,126.27s-13,18.24-31,25.53c-20.54,8.32,13-38.29,13-38.29"/><path class="cls-2" d="M244.64,135.49l-.14-.1"/><path class="cls-2" d="M286.5,130.83s-.12.41-.4,1.1"/><path class="cls-4" d="M101.5,50.6c-2.86-.52-17.47,3.12-20,9.12"/><path class="cls-5" d="M126.65,218.5,92.87,234.28A9,9,0,0,0,90.63,249l27.87,26,3.88-12.93-21.49-9.18a7.16,7.16,0,0,1,.71-12.49L127,232Z"/><path class="cls-5" d="M191.86,229.86,248.5,201.5c20,1,17-4,17-4s30-1,27-5-24,0-24,0,17-11,12-14-19,9-19,9,14-12,9-15-16,10-16,10,11-7-3-9-3,15-3,15c-34,29-56.64,30-56.64,30Z"/><g id="EYE-3" data-name="EYE"><path class="cls-6" d="M188.18,191.72a14,14,0,1,1-8.46-17.9A14,14,0,0,1,188.18,191.72Z"/><circle class="cls-7" cx="174.33" cy="188.88" r="5.6"/><path class="cls-8" d="M188.18,191.72c-.46,1.27-4.24.83-8.81-.41a74.7,74.7,0,0,1-10.48-3.75c-4.32-1.94-7.53-4-7.07-5.28a14,14,0,0,1,26.36,9.44Z"/></g><g id="EYE-4" data-name="EYE"><path class="cls-6" d="M146.72,201.18a14,14,0,1,1,8.46-17.9A14,14,0,0,1,146.72,201.18Z"/><circle class="cls-7" cx="142.67" cy="189.88" r="5.6"/><path class="cls-8" d="M148.11,188.56a74.7,74.7,0,0,1-10.48,3.75c-4.57,1.24-8.35,1.68-8.81.41a14,14,0,1,1,26.36-9.44C155.64,184.56,152.43,186.62,148.11,188.56Z"/></g><path class="cls-9" d="M160.5,233.5c-9.15,0-15.39-2.06-18.55-6.13a11,11,0,0,1-2-8.37h41.15a11.77,11.77,0,0,1-2.55,8.52C175.22,231.49,169.16,233.5,160.5,233.5Z"/><path d="M180.6,219.5a11.21,11.21,0,0,1-2.49,7.71C174.92,231.05,169,233,160.5,233c-9,0-15.07-2-18.13-5.91a10.45,10.45,0,0,1-2-7.59H180.6m.9-1h-42s-4,15.5,21,15.5c24,0,21-15.5,21-15.5Z"/><path class="cls-4" d="M138.88,264.16s1.4,27.46-10.76,47"/><path class="cls-4" d="M176.4,265.54s1.08,27.47,14.94,46"/><path class="cls-4" d="M184.51,340a9.62,9.62,0,0,1-3-6.72,10.13,10.13,0,0,1,4-7.64"/><path class="cls-10" d="M127.94,320.57c-5.67,2.25-9.44,6.27-9.44,10.84,0,3.07,1.71,5.9,4.56,8.11,1.16.91,5.42,1.81,6.94,2.48"/></g></g></svg>
