<svg xmlns="http://www.w3.org/2000/svg" viewBox="0 0 324.1 242"><defs><style>.cls-1{fill:#c7b299;}.cls-2{fill:#666;}.cls-3{fill:#ccc;}.cls-4{fill:#f2f2f2;}.cls-5{fill:gray;}.cls-6{fill:#fff;}.cls-7{fill:#b3b3b3;}.cls-8{fill:#999;}.cls-10,.cls-9{fill:none;stroke-miterlimit:10;}.cls-9{stroke:#050505;}.cls-10{stroke:#000;}</style></defs><title>drum</title><g id="Layer_5" data-name="Layer 5"><g id="Trommer"><path class="cls-1" d="M324.1,13a1.56,1.56,0,0,1-.5,1.05c-1.36,1.43-6.08,3.2-13.5,5.1-3.61.93-7.85,1.89-12.67,2.85-7,1.4-15.18,2.82-24.33,4.17-14.27,2.12-30.89,4.09-49,5.63-15.43,1.31-31.94,2.31-49,2.82-5.8.18-11.67.29-17.58.35s-11.77-.18-17.42-.36l-48.43-2-3.57-.31-1.34-.12h-.07L85,31.93l-1.33-.19-.76-.11C71.73,30,61.7,28.47,52.66,27L50.1,26.6C43.47,25.49,36.67,24.28,30.32,23a1.81,1.81,0,0,1-.27-.06c-2.45-.54-7.86-1.68-9.54-2l-.42-.09-.09,0v-.36h1.35A126,126,0,0,1,7.58,16.23a54.29,54.29,0,0,1-6.26-2.49l-.73-.55L.5,13.11v0s0,0,0,0A1.12,1.12,0,0,1,.6,12.5C3.81,6.08,74.18,0,163.1,0S324.1,5.82,324.1,13Z"/><path class="cls-2" d="M323.6,228a1.46,1.46,0,0,1,.5,1c0,1.81-4.64,3.53-13,5.1l-1,.18V19.15c7.42-1.9,12.14-3.67,13.5-5.1Z"/><path class="cls-3" d="M310.1,19.15V234.28c-7.71,1.38-18.37,2.64-31.31,3.72H273.1V26.17c9.15-1.35,17.34-2.77,24.33-4.17C302.25,21,306.49,20.08,310.1,19.15Z"/><path class="cls-4" d="M273.1,238v.45c-14.19,1.07-30.77,1.94-49,2.56-11.11.37-22.83.65-35,.81V34.62c-8.23.25-16.58.38-25,.38-2.21,0-4.41,0-6.58,0,5.91-.06,11.78-.17,17.58-.35,17.06-.51,33.57-1.51,49-2.82,18.11-1.54,34.73-3.51,49-5.63Zm-5.5-125.5a35,35,0,1,0-35,35A35,35,0,0,0,267.6,112.5Z"/><path class="cls-5" d="M232.6,77.5a35,35,0,0,1,35,35c0,3.39-9.27,5.54-21.07,6.47,0-.48.07-1,.07-1.47a14,14,0,0,0-28,0c0,.5,0,1,.07,1.47-11.8-.93-21.07-3.08-21.07-6.47A35,35,0,0,1,232.6,77.5Z"/><path class="cls-6" d="M267.6,112.5a35,35,0,0,1-70,0c0,3.39,9.27,5.54,21.07,6.47a14,14,0,0,0,27.86,0C258.33,118,267.6,115.89,267.6,112.5Z"/><path class="cls-5" d="M246.6,117.5c0,.5,0,1-.07,1.47a190.5,190.5,0,0,1-27.86,0c0-.48-.07-1-.07-1.47a14,14,0,0,1,28,0Z"/><path d="M246.53,119a14,14,0,0,1-27.86,0A190.5,190.5,0,0,0,246.53,119Z"/><path class="cls-4" d="M169.54,242H162.1c-12.38,0-24.43-.11-36-.32-13.38-.25-26.12-.64-38-1.13V32.4a3.18,3.18,0,0,1,.5.1l3.07.13c10.71.9,22.22,1.58,34.43,2q11.58.38,24,.39c2.48,0,5,0,7.42,0,2.17,0,4.37,0,6.58,0,8.42,0,16.77-.13,25-.38v207.2c-4.6.06-9.28.11-14,.14ZM174.6,112.5a35,35,0,1,0-35,35A35,35,0,0,0,174.6,112.5Z"/><path class="cls-5" d="M139.6,77.5a35,35,0,0,1,35,35c0,3.39-9.27,5.54-21.07,6.47,0-.48.07-1,.07-1.47a14,14,0,0,0-28,0c0,.5,0,1,.07,1.47-11.8-.93-21.07-3.08-21.07-6.47A35,35,0,0,1,139.6,77.5Z"/><path class="cls-6" d="M174.6,112.5a35,35,0,0,1-70,0c0,3.39,9.27,5.54,21.07,6.47a14,14,0,0,0,27.86,0C165.33,118,174.6,115.89,174.6,112.5Z"/><path class="cls-5" d="M153.6,117.5c0,.5,0,1-.07,1.47a190.5,190.5,0,0,1-27.86,0c0-.48-.07-1-.07-1.47a14,14,0,0,1,28,0Z"/><path d="M153.53,119a14,14,0,0,1-27.86,0A190.5,190.5,0,0,0,153.53,119Z"/><path class="cls-3" d="M88.1,32.4V240.55c-15.76-.66-30-1.52-42.17-2.55H50.1V26.6l2.56.42c12.26,2,23.67,3.67,30.21,4.61l.76.11,1.33.19,1.73.26h.07Z"/><path class="cls-1" d="M85,31.93l-1.33-.19Z"/><path class="cls-1" d="M52.66,27c9,1.45,19.07,3,30.21,4.61C76.33,30.69,64.92,29,52.66,27Z"/><path class="cls-7" d="M50.1,26.6V238H45.93c-7.29-.61-13.84-1.28-19.53-2q-2.79-.36-5.3-.72L20,20.81l.09,0,.42.09c3,.69,6.2,1.37,9.54,2a1.81,1.81,0,0,0,.27.06C36.19,24.31,42.66,25.4,50.1,26.6Z"/><path class="cls-7" d="M20.51,20.92c1.68.35,7.09,1.49,9.54,2C26.71,22.29,23.51,21.61,20.51,20.92Z"/><path class="cls-1" d="M21.35,20.45H20v.36c-4.33-1-8.19-2-11.32-3-.68-.26-1.36-.54-2-.81l-.1,0a36.19,36.19,0,0,1-5.26-3.19,54.29,54.29,0,0,0,6.26,2.49A126,126,0,0,0,21.35,20.45Z"/><path class="cls-8" d="M20,20.81l1.1,214.47C8.35,233.42,0,229.73,0,227.45a1.5,1.5,0,0,1,.5-1V13.25a2.7,2.7,0,0,0,1.1,1.41s2.22,1.11,5,2.27l.1,0a15.24,15.24,0,0,0,2,.81C11.81,18.79,15.67,19.81,20,20.81Z"/><path class="cls-8" d="M1.32,13.74a36.19,36.19,0,0,0,5.26,3.19c-2.76-1.16-5-2.27-5-2.27A2.7,2.7,0,0,1,.5,13.25v-.12l.09.06A3.57,3.57,0,0,0,1.32,13.74Z"/><path class="cls-1" d="M.59,13.19l.73.55A3.57,3.57,0,0,1,.59,13.19Z"/><path class="cls-1" d="M.5,13.13v.12a.68.68,0,0,1,0-.14S.49,13.12.5,13.13Z"/><line class="cls-9" x1="273.1" y1="238" x2="273.1" y2="238.45"/><path class="cls-10" d="M267.6,112.5c0,3.39-9.27,5.54-21.07,6.47a190.5,190.5,0,0,1-27.86,0c-11.8-.93-21.07-3.08-21.07-6.47"/><path class="cls-10" d="M174.6,112.5c0,3.39-9.27,5.54-21.07,6.47a190.5,190.5,0,0,1-27.86,0c-11.8-.93-21.07-3.08-21.07-6.47"/></g><g id="Trommer-2" data-name="Trommer"><path class="cls-1" d="M324.1,13a1.56,1.56,0,0,1-.5,1.05c-1.36,1.43-6.08,3.2-13.5,5.1-3.61.93-7.85,1.89-12.67,2.85-7,1.4-15.18,2.82-24.33,4.17-14.27,2.12-30.89,4.09-49,5.63-15.43,1.31-31.94,2.31-49,2.82-5.8.18-11.67.29-17.58.35s-11.77-.18-17.42-.36l-48.43-2-3.57-.31-1.34-.12h-.07L85,31.93l-1.33-.19-.76-.11C71.73,30,61.7,28.47,52.66,27L50.1,26.6C43.47,25.49,36.67,24.28,30.32,23a1.81,1.81,0,0,1-.27-.06c-2.45-.54-7.86-1.68-9.54-2l-.42-.09-.09,0v-.36h1.35A126,126,0,0,1,7.58,16.23a54.29,54.29,0,0,1-6.26-2.49l-.73-.55L.5,13.11v0s0,0,0,0A1.12,1.12,0,0,1,.6,12.5C3.81,6.08,74.18,0,163.1,0S324.1,5.82,324.1,13Z"/><path class="cls-2" d="M323.6,228a1.46,1.46,0,0,1,.5,1c0,1.81-4.64,3.53-13,5.1l-1,.18V19.15c7.42-1.9,12.14-3.67,13.5-5.1Z"/><path class="cls-3" d="M310.1,19.15V234.28c-7.71,1.38-18.37,2.64-31.31,3.72H273.1V26.17c9.15-1.35,17.34-2.77,24.33-4.17C302.25,21,306.49,20.08,310.1,19.15Z"/><path class="cls-4" d="M273.1,238v.45c-14.19,1.07-30.77,1.94-49,2.56-11.11.37-22.83.65-35,.81V34.62c-8.23.25-16.58.38-25,.38-2.21,0-4.41,0-6.58,0,5.91-.06,11.78-.17,17.58-.35,17.06-.51,33.57-1.51,49-2.82,18.11-1.54,34.73-3.51,49-5.63Zm-5.5-125.5a35,35,0,1,0-35,35A35,35,0,0,0,267.6,112.5Z"/><path class="cls-5" d="M232.6,77.5a35,35,0,0,1,35,35c0,3.39-9.27,5.54-21.07,6.47,0-.48.07-1,.07-1.47a14,14,0,0,0-28,0c0,.5,0,1,.07,1.47-11.8-.93-21.07-3.08-21.07-6.47A35,35,0,0,1,232.6,77.5Z"/><path class="cls-6" d="M267.6,112.5a35,35,0,0,1-70,0c0,3.39,9.27,5.54,21.07,6.47a14,14,0,0,0,27.86,0C258.33,118,267.6,115.89,267.6,112.5Z"/><path class="cls-5" d="M246.6,117.5c0,.5,0,1-.07,1.47a190.5,190.5,0,0,1-27.86,0c0-.48-.07-1-.07-1.47a14,14,0,0,1,28,0Z"/><path d="M246.53,119a14,14,0,0,1-27.86,0A190.5,190.5,0,0,0,246.53,119Z"/><path class="cls-4" d="M169.54,242H162.1c-12.38,0-24.43-.11-36-.32-13.38-.25-26.12-.64-38-1.13V32.4a3.18,3.18,0,0,1,.5.1l3.07.13c10.71.9,22.22,1.58,34.43,2q11.58.38,24,.39c2.48,0,5,0,7.42,0,2.17,0,4.37,0,6.58,0,8.42,0,16.77-.13,25-.38v207.2c-4.6.06-9.28.11-14,.14ZM174.6,112.5a35,35,0,1,0-35,35A35,35,0,0,0,174.6,112.5Z"/><path class="cls-5" d="M139.6,77.5a35,35,0,0,1,35,35c0,3.39-9.27,5.54-21.07,6.47,0-.48.07-1,.07-1.47a14,14,0,0,0-28,0c0,.5,0,1,.07,1.47-11.8-.93-21.07-3.08-21.07-6.47A35,35,0,0,1,139.6,77.5Z"/><path class="cls-6" d="M174.6,112.5a35,35,0,0,1-70,0c0,3.39,9.27,5.54,21.07,6.47a14,14,0,0,0,27.86,0C165.33,118,174.6,115.89,174.6,112.5Z"/><path class="cls-5" d="M153.6,117.5c0,.5,0,1-.07,1.47a190.5,190.5,0,0,1-27.86,0c0-.48-.07-1-.07-1.47a14,14,0,0,1,28,0Z"/><path d="M153.53,119a14,14,0,0,1-27.86,0A190.5,190.5,0,0,0,153.53,119Z"/><path class="cls-3" d="M88.1,32.4V240.55c-15.76-.66-30-1.52-42.17-2.55H50.1V26.6l2.56.42c12.26,2,23.67,3.67,30.21,4.61l.76.11,1.33.19,1.73.26h.07Z"/><path class="cls-1" d="M85,31.93l-1.33-.19Z"/><path class="cls-1" d="M52.66,27c9,1.45,19.07,3,30.21,4.61C76.33,30.69,64.92,29,52.66,27Z"/><path class="cls-7" d="M50.1,26.6V238H45.93c-7.29-.61-13.84-1.28-19.53-2q-2.79-.36-5.3-.72L20,20.81l.09,0,.42.09c3,.69,6.2,1.37,9.54,2a1.81,1.81,0,0,0,.27.06C36.19,24.31,42.66,25.4,50.1,26.6Z"/><path class="cls-7" d="M20.51,20.92c1.68.35,7.09,1.49,9.54,2C26.71,22.29,23.51,21.61,20.51,20.92Z"/><path class="cls-1" d="M21.35,20.45H20v.36c-4.33-1-8.19-2-11.32-3-.68-.26-1.36-.54-2-.81l-.1,0a36.19,36.19,0,0,1-5.26-3.19,54.29,54.29,0,0,0,6.26,2.49A126,126,0,0,0,21.35,20.45Z"/><path class="cls-8" d="M20,20.81l1.1,214.47C8.35,233.42,0,229.73,0,227.45a1.5,1.5,0,0,1,.5-1V13.25a2.7,2.7,0,0,0,1.1,1.41s2.22,1.11,5,2.27l.1,0a15.24,15.24,0,0,0,2,.81C11.81,18.79,15.67,19.81,20,20.81Z"/><path class="cls-8" d="M1.32,13.74a36.19,36.19,0,0,0,5.26,3.19c-2.76-1.16-5-2.27-5-2.27A2.7,2.7,0,0,1,.5,13.25v-.12l.09.06A3.57,3.57,0,0,0,1.32,13.74Z"/><path class="cls-1" d="M.59,13.19l.73.55A3.57,3.57,0,0,1,.59,13.19Z"/><path class="cls-1" d="M.5,13.13v.12a.68.68,0,0,1,0-.14S.49,13.12.5,13.13Z"/><line class="cls-9" x1="273.1" y1="238" x2="273.1" y2="238.45"/><path class="cls-10" d="M267.6,112.5c0,3.39-9.27,5.54-21.07,6.47a190.5,190.5,0,0,1-27.86,0c-11.8-.93-21.07-3.08-21.07-6.47"/><path class="cls-10" d="M174.6,112.5c0,3.39-9.27,5.54-21.07,6.47a190.5,190.5,0,0,1-27.86,0c-11.8-.93-21.07-3.08-21.07-6.47"/></g></g></svg>
