<svg xmlns="http://www.w3.org/2000/svg" xmlns:xlink="http://www.w3.org/1999/xlink" width="856.44" height="1079.9" viewBox="0 0 856.44 1079.9"><defs><style>.cls-1{fill:url(#radial-gradient);}.cls-2{fill:#ffece9;}.cls-3{fill:#e8cfb8;}.cls-4{fill:#ffe2ca;}.cls-10,.cls-11,.cls-15,.cls-21,.cls-5{fill:none;}.cls-15,.cls-5{stroke:#3d3d3d;}.cls-10,.cls-5,.cls-7{stroke-linecap:round;}.cls-5{stroke-linejoin:bevel;stroke-width:4px;}.cls-6{fill:#fff;}.cls-7{fill:#f3d7c0;stroke:#f3d7c0;stroke-width:0.75px;}.cls-10,.cls-11,.cls-13,.cls-15,.cls-21,.cls-7{stroke-miterlimit:10;}.cls-8{fill:#dcc3ae;}.cls-9{fill:#fceee3;}.cls-10{stroke:#dcc3ae;}.cls-10,.cls-11,.cls-15{stroke-width:3px;}.cls-11,.cls-13{stroke:#000;}.cls-12,.cls-13{fill:#ff876a;}.cls-14{fill:#3d3d3d;}.cls-16{fill:#352b19;}.cls-17{fill:#666;}.cls-18{fill:#d3a879;}.cls-19{fill:url(#radial-gradient-2);}.cls-20{fill:url(#radial-gradient-3);}.cls-21{stroke:#ff876a;}.cls-22{fill:url(#radial-gradient-4);}.cls-23{fill:url(#radial-gradient-5);}.cls-24{fill:#ffd550;}.cls-25{fill:#382e26;}</style><radialGradient id="radial-gradient" cx="372.63" cy="509.17" fx="65.7605870978033" fy="478.90614033680237" r="509.63" gradientTransform="translate(749.98 121.7) rotate(87.79) scale(1 0.77)" gradientUnits="userSpaceOnUse"><stop offset="0" stop-color="#fff"/><stop offset="0.99" stop-color="#e8c7ff"/></radialGradient><radialGradient id="radial-gradient-2" cx="293.36" cy="399.08" r="33.51" gradientUnits="userSpaceOnUse"><stop offset="0" stop-color="#ffcfca"/><stop offset="1" stop-color="#ffe2ca" stop-opacity="0.3"/></radialGradient><radialGradient id="radial-gradient-3" cx="510.06" cy="405.08" r="33.51" xlink:href="#radial-gradient-2"/><radialGradient id="radial-gradient-4" cx="-58.8" cy="574.68" r="6.05" gradientTransform="matrix(0, 0.78, -4.93, 0, 3120, 373.43)" gradientUnits="userSpaceOnUse"><stop offset="0" stop-color="#fff"/><stop offset="1" stop-color="#ffe2ca" stop-opacity="0.3"/></radialGradient><radialGradient id="radial-gradient-5" cx="-1016.76" cy="544.65" r="6.05" gradientTransform="matrix(0, 0.49, -6.75, 0, 3967.97, 834.25)" xlink:href="#radial-gradient-4"/></defs><title>girl4</title><g id="Layer_3" data-name="Layer 3"><rect class="cls-1" x="0.5" y="0.5" width="855.44" height="1078.9"/><path class="cls-2" d="M855.44,1V1078.9H1V1H855.44m1-1H0V1079.9H856.44V0Z"/><path class="cls-3" d="M490.78,528.92l-11.15,50.33-1.14,1.46q-2,2.56-4.08,5.11-10.87,13.41-23.5,26.62c-15.24,15.9-10.74,9.93-22.33,24.29L316.84,553.37l8.94-39.56c2.14,1.31,8.32,14.64,10.55,15.83,14.63,7.78,58.23,38.37,70.05,35.54,27.6-6.61,51.95-14.53,72.75-28C483.15,534.54,487,531.81,490.78,528.92Z"/><path class="cls-4" d="M564,351.5c0,46.05-7.92,84.33-23,115.48a170,170,0,0,1-50.23,61.94c-3.75,2.89-53,49.78-84.4,38.26-110-40.37-132.33-104.35-132.48-104.78-27.06-77.08-29.27-91.33-29.59-137.1a.14.14,0,0,1,0-.09,1.5,1.5,0,0,1,0-.3,2.28,2.28,0,0,1,0-.37c-.65-138.49,92.62-151.66,104.12-153l.27,0,.33,0h.11l.94-.11.26,0h.13l.19,0c.94-.12,2.47-.31,4.53-.5l.8-.08c3.06-.28,7.14-.57,12.06-.74l2.46-.07,2.86-.05h1.48c29.07-.18,78.51,4.61,122.64,33.59,1.05.7,2.11,1.41,3.16,2.13q7.1,4.88,14,10.64,1.53,1.29,3,2.61c1,.89,2,1.79,3,2.71a187.94,187.94,0,0,1,40.72,55.12.28.28,0,0,0,0,.06s0,0,0,.06c.17,1.83.34,3.66.49,5.51v0c.18,2.2.35,4.4.51,6.62.95,13.67,1.38,27.94,1.55,42.69Q564,341.42,564,351.5Z"/><path class="cls-5" d="M421.28,303.07l122.29-1.9s9.66,61.85-52.82,76.12S413,337.33,421.28,303.07Z"/><path class="cls-5" d="M266.27,309.57,393.78,305s26.79,61.64-43.57,75.86S273.41,346.66,266.27,309.57Z"/><path d="M519.5,311.5s-77,31-80,40c0,0,75-29,76-28s3.27,9.52,1.27,10.52S529.5,319.5,519.5,311.5Z"/><path class="cls-6" d="M493.84,333.52l-.37-.19h0Z"/><path class="cls-6" d="M497.62,338H489l3.57-7A10.91,10.91,0,0,1,494,332,11.94,11.94,0,0,1,497.62,338Z"/><path d="M494.65,334a.16.16,0,0,0-.08-.06l0,0Z"/><path d="M498,341c0,.21,0,.41,0,.62a3.25,3.25,0,0,1,0,.44,4.52,4.52,0,0,1-.06.53c0,.18-.23,1.26-.27,1.41s-.08.31-.13.46a11.93,11.93,0,0,1-1.19,2.71l-.22.35c-.13.2-.26.39-.4.58s-.22.3-.34.44a12.21,12.21,0,0,1-1.95,1.92l-.36.27c-.21.15-.41.29-.62.42l-.45.27a11.92,11.92,0,0,1-6,1.58l-.62,0a3.25,3.25,0,0,1-.44,0,4.52,4.52,0,0,1-.53-.06l-.53-.08-.43-.08-.45-.11-.46-.13a11.93,11.93,0,0,1-2.71-1.19l-.35-.22-.58-.4c-.15-.11-.3-.22-.44-.34a12.21,12.21,0,0,1-1.92-1.95l-.27-.36c-.15-.21-.29-.41-.42-.62s-.19-.3-.27-.45a11.92,11.92,0,0,1-1.58-6c0-.21,0-.41,0-.62a3.25,3.25,0,0,1,0-.44,4.52,4.52,0,0,1,.06-.53c0-.18.05-.36.08-.53s.05-.29.08-.43.07-.3.11-.45.08-.31.13-.46a11.93,11.93,0,0,1,1.19-2.71c.07-.11.14-.23.23-.35s.25-.39.39-.58.22-.3.34-.44a13.72,13.72,0,0,1,1.1-1.19l.46-.41.14-.12c.21-.17.43-.34.65-.49a10.92,10.92,0,0,1,1.45-.9l0,0a13.25,13.25,0,0,1,1.56-.66c.26-.09.54-.18.81-.25A11.54,11.54,0,0,1,486,329a11.85,11.85,0,0,1,5.47,1.33l.37.19c.25.14.49.28.73.44L489,338h8.62a.36.36,0,0,1,0,.1c.06.21.1.42.14.63s.09.49.12.74,0,.34.06.52,0,.26,0,.39S498,340.79,498,341Z"/><line class="cls-5" x1="421.28" y1="303.07" x2="394.34" y2="304.77"/><path d="M404.09,429c-4.27,0-12.93-5.16-12.15-4.9,20,6.67,41.65-6.69,41.87-6.82C434.51,416.87,420.56,429,404.09,429Z"/><path class="cls-7" d="M467.27,471.08s-38.8-5.27-40.62-1.07c-2.75,6.34-7,5.47-9.57,6.46-3,1.16-12.28-4.87-12.28-4.87l-30.46,19.33c24.07,7.76,66-5.28,92.93-19.85,14.72-7.95,25.8-12.66,25.8-12.66"/><path class="cls-8" d="M454.78,492.73a38,38,0,0,1-10.47,12A46,46,0,0,1,430,512.3c-1.31.4-2.64.75-4,1.05s-2.71.53-4.09.64a34.32,34.32,0,0,1-8.29,0,28.86,28.86,0,0,1-14.94-6.16l-.06,0a.25.25,0,0,1,.24-.42,44,44,0,0,0,7.29,1.94,40.24,40.24,0,0,0,7.5.68c1.26,0,2.51-.07,3.77-.13s2.5-.25,3.73-.49a48.25,48.25,0,0,0,7.32-1.79,63.9,63.9,0,0,0,13.75-6.2q3.25-1.93,6.31-4.19a62.49,62.49,0,0,0,5.88-4.77.24.24,0,0,1,.34,0,.24.24,0,0,1,0,.28Z"/><path class="cls-9" d="M418.87,533.82a15.07,15.07,0,0,1,5.19-6.93A21.32,21.32,0,0,1,431.9,523a23.79,23.79,0,0,1,4.34-.7c.73,0,1.46-.07,2.18-.06s1.45.1,2.17.18a23,23,0,0,1,4.21.9,22.76,22.76,0,0,1,3.91,1.82l-.06.29c-1.34-.16-2.67-.38-4-.5l-2-.11-1,0-1,0-2,.07c-.67,0-1.33.16-2,.24l-1,.13c-.33,0-.66.14-1,.21-.66.15-1.32.27-2,.45a29.19,29.19,0,0,0-7.39,3.08,25.4,25.4,0,0,0-6.18,5.07Z"/><path class="cls-8" d="M428.22,389s-17.05-5.07-33.88,0"/><path class="cls-8" d="M314.56,358.23s28.52,6.2,45.35,1.12"/><path class="cls-10" d="M416.21,326.23c-.39-39.58-6,17.76,9.44,57.21"/><path class="cls-8" d="M384.15,353.86s-38.35-24-90.8-22.36c0,0,7.54-18.37,43.88-20.5C380.58,308.47,384.15,353.86,384.15,353.86Z"/><path d="M381.32,351.5c17,11.83-41.38-13.38-82.47-7.4l-5.5-12.6S349.13,329.08,381.32,351.5Z"/><path class="cls-8" d="M519.5,311.5c3.49-1.35-17.76-11.7-52.86-3-21.51,5.31-28.89,39.42-27.14,43C437.34,348.67,481.77,326.13,519.5,311.5Z"/><path class="cls-11" d="M563.29,288.58c.52,3.88,1.07,8.64,1.55,14.18"/><line class="cls-11" x1="71.76" y1="890.8" x2="71.75" y2="890.81"/><path class="cls-4" d="M312.45,154.39s-53.73,37.47-54.55,48.75c-.85,11.63-41.25-30.17-56.37-39.58-12.9-8,18.88,40.43,25.52,87.47-1.38,3.21-3.7,4.46-4.94,7.76L222,259a309.81,309.81,0,0,0-9.85,34c-22.53,96.49-4.93,199.75-4.93,199.75,9.42,81.27-26.21,175-68.54,264.92l-5.8,12.73c4.65-21.25,5.31-36.94,5.83-38.5,63.79-192.51,14.56-390.43-17.13-521.44-13.71-56.68-12.76-94.25-14.28-118-2.49-39,7.62-41.87,40.92-32.36C174.44,67.64,256.18,132.86,312.45,154.39Z"/><path class="cls-11" d="M564.84,302.76c.67,7.8,1.2,17.15,1.3,27.8A57,57,0,0,1,563.8,314,60.33,60.33,0,0,1,564.84,302.76Z"/><path class="cls-11" d="M575.85,283.91l-3,1.13a15.12,15.12,0,0,1,2.71-2.29C575.65,283.14,575.76,283.52,575.85,283.91Z"/><path class="cls-12" d="M348.43,171.56c-15.22,1.87-172.41,28.81-66.19,336C172.89,196.09,333.12,173.31,348.43,171.56Z"/><path class="cls-13" d="M349,171.49h.11l-.44.05Z"/><path class="cls-13" d="M349.14,171.48l.94-.11-.48.07Z"/><path class="cls-14" d="M563.29,288.58h0Zm0,0-.54.35-19.33,10.89,1.79,2.11,17.53-7.05.55-6.3Z"/><polygon class="cls-15" points="266.27 309.57 241.44 292.05 240.74 297.05 266.27 309.57"/><path class="cls-16" d="M387.72,282a9.15,9.15,0,0,0-5.46-10,112.81,112.81,0,0,0-52.39-8.26c-34.19,2.86-68.6,21.3-68.6,21.3s48-16.85,66-11.12A99.25,99.25,0,0,0,338,276.64c14.7,2.94,44.29,9.16,46.3,11.94C385.83,290.63,387,286.28,387.72,282Z"/><path class="cls-16" d="M423.29,275.44l.29,5.61a6.12,6.12,0,0,0,8.17,5.45c18.05-6.45,63.06-21.11,85.06-15.34,27.28,7.16-25.59-24.16-89.43-1.82A6.14,6.14,0,0,0,423.29,275.44Z"/><ellipse class="cls-17" cx="419.99" cy="345.82" rx="3.83" ry="9.45" transform="translate(-69.76 108.9) rotate(-13.65)"/><ellipse class="cls-17" cx="399.49" cy="347.71" rx="10.89" ry="3.57" transform="translate(-43.44 638.05) rotate(-74.28)"/><path class="cls-11" d="M455.84,779.17a29.92,29.92,0,0,0-6.49,6C451.21,781.78,453.36,779.56,455.84,779.17Z"/><path class="cls-2" d="M300.26,629l-1.75,7.67c0-1,0-1.95,0-2.92C299.08,632.14,299.67,630.55,300.26,629Z"/><path class="cls-4" d="M856.44,766.43v312.12a1.35,1.35,0,0,1-1.35,1.34l-58.56-1.39c-.51,0-15.69,1.12-15.91.66-5.54-11.67-143.25-187.29-198.36-240.66-3.82-3.7-36.37-26.25-38.84-28.61-28-26.73-34,248.52-25.66,268.87.23.57-14.45-.19-19-.28-141-2.73-348.66.09-372.41,0a1.34,1.34,0,0,1-1.25-1.82c3.72-9.78,19.66-61,7.81-194.57-.08-.88,4.69-1.89,5.59-2.79a1.39,1.39,0,0,1,.8-.42c57.41-7.51,110.24,9.8,115.88,11.73a1.35,1.35,0,0,0,1,0c16.4-7.3,26.69-38.32,33-79q1-6.37,1.85-13.05c5.44-41.88,7.25-91.7,7.48-136.06,0-3-1.59-30.58-1.6-33.48,0-5.34,17.08-60.84,19.59-73.45a1.34,1.34,0,0,1,2.12-.8L427.55,636a1.35,1.35,0,0,0,1.85-.24C440,622.65,436,628,450.91,612.44q12.64-13.2,23.5-26.62c.55-.67,1.09-1.35,1.63-2a1.34,1.34,0,0,1,2.39.86h0l0,1.16-.33.4q-10.72,13.21-23.17,26.22c-15.47,16.14-29,31.5-40.67,46q-10.82,13.43-19.7,25.92c-15.62,21.9-27.08,41.7-35.43,59.34a261.51,261.51,0,0,0-11.95,29.6,198.05,198.05,0,0,0-5.68,20.58c-6.82,31.36-1.94,49.5-.59,53.59a1.34,1.34,0,0,0,1.23.93c1.46,0,4.63.16,9.21.28l1.33,0,.8,0,2,0c14.13.33,37.5.67,64.39.24l1.32-1.22a105.44,105.44,0,0,1,12.6-41.21,0,0,0,0,1,0,0,102.9,102.9,0,0,1,6.92-10.78c1.1-1.5,2.17-2.89,3.19-4.16a1.34,1.34,0,0,1,2.33,1.24c-5.86,18.92-6.82,51.31-7.05,55.74v.1c5.16-.12,10.3-.27,15.34-.46h.31l.35,0c.25,0,.49,0,.73,0,.88,0,1.75-.06,2.62-.09,2.6-.11,5.16-.22,7.69-.35l1.29-.07-6,.25,7.94-.38v0c.74,0,1.47-.07,2.21-.13l-2.21.1,0-.2c4.89-45.9,22.16-75.36,31.8-87.23.31-.38.61-.75.91-1.1-.35.63-.68,1.3-1,2-11.08,23.55-10.81,79.38-10.76,84.65,0,.26,0,.4,0,.4,19.11-1.83,28.47-4.7,29.37-9.09.94-4.56-.27-20.2,2.73-36.69s10.23-33.85,16.57-56.56c5.94-21.27,12.61-44,22.55-65.89a7.36,7.36,0,0,0,.59.91C581.11,703.41,837,761,855.39,765.12A1.33,1.33,0,0,1,856.44,766.43Z"/><path class="cls-12" d="M594.63,546.68a342.8,342.8,0,0,1-31,129c-.33.71-.66,1.43-1,2.14-.14.3-.27.61-.41.91a460.53,460.53,0,0,0-23.14,65c-6.34,22.71-10.7,43.75-13.7,60.24s-4.66,28.45-5.6,33c-.84,4.08-12.42,6.84-29.38,8.69l-4,.4s2.9-60.32,14.75-85.05c.33-.69.66-1.36,1-2-.3.35-.6.72-.91,1.1-9.41,11.87-22.86,41-27.72,87l-2.24.15-1.84.11-.85,0-3.18.18-3.23.17c-2.53.13-5.09.24-7.69.35l-4,.15c-3.73.14-7.52.26-11.34.36l-4,.1c.23-4.21-.79-35.27,5.53-52.92a34,34,0,0,1,2.17-4.93,51.58,51.58,0,0,0-9.09,15.71,0,0,0,0,0,0,0c-3.48,9.07-6.45,22.15-8.29,42.29l-4.42.07c-25.21.35-49.67.09-65.6-.17l-2,0-.8,0-1.33,0c-8.81-.16-14.12-.31-14.12-.31s-7.54-18.57.27-54.49a198.05,198.05,0,0,1,5.68-20.58,261.51,261.51,0,0,1,11.95-29.6c8.35-17.64,19.81-37.44,35.43-59.34q9.13-12.81,20.23-26.57c11.59-14.36,24.9-29.5,40.14-45.4q12.64-13.2,23.5-26.62,2.07-2.55,4.08-5.11l1.14-1.46A394.52,394.52,0,0,0,541,467a402,402,0,0,0,22.4-135.67l.5.31,21.73,13.28C596.84,416.55,597,491.31,594.63,546.68Z"/><path class="cls-9" d="M140.15,916.5c0,19.63,5.67,35.54,4,35.54s-9.93-15.91-9.93-35.54S152.38,881,154,881,140.15,896.88,140.15,916.5Z"/><path class="cls-12" d="M575.54,285.75a15.12,15.12,0,0,0-2.71,2.29l-9.54,3.54c-.93-6.94-1.77-11.06-1.93-11.82,0,0,0,0,0-.06a.28.28,0,0,1,0-.06,187.94,187.94,0,0,0-40.72-55.12c-1-.92-2-1.82-3-2.71s-2-1.76-3-2.61q-6.84-5.77-14-10.64c-1-.73-2.11-1.43-3.16-2.13-44.13-29-93.57-33.77-122.64-33.59h-1.48l-2.86.05-2.46.07c-4.92.17-9,.46-12.06.74l-.8.08c-2.06.19-3.59.38-4.53.5l-.32,0-.26,0-.94.11H349l-.33,0a1.31,1.31,0,0,0-.27,0c-169.79,61.59-72.68,268.31-60.16,312.72,4.19,14.87,9.93,116.82,10.22,149.45.45,50.46-.77,113.57-7.42,164.79q-.85,6.68-1.85,13.05c-6.38,41.11-16.81,72.34-33.5,79.24,0,0-87.7-17.88-148.71-9.69-13.46,1.8-25.62,4.87-35.25,9.68.42-.75,22-39.39,47.79-94.22a.11.11,0,0,0,0,0c42.33-90,96.09-223.47,86.67-304.74,0,0-17.6-103.26,4.93-199.75A322.86,322.86,0,0,1,221,261l.09-.23q1.86-5,3.94-9.76c21.88-50.83,60.71-89.63,104.82-108.5l.07,0c20.71-8.85,42.58-13.31,64.4-12.56,67.75,2.32,108.54,20.67,133.06,50.46q5.85,7.68,11.11,16.09C554.64,222.26,566.67,252.87,575.54,285.75Z"/><path class="cls-4" d="M594.6,314c0,11.67-3.18,21.92-8,27.81a18.34,18.34,0,0,1-2.24,2.32,11,11,0,0,1-7.17,2.93,9.93,9.93,0,0,1-4.49-1.11c-4.51-2.28-8.29-7.91-10.57-15.41-.1-10.65-.63-20-1.3-27.8,1.44-7.58,4.31-13.88,8-17.72l3-1.13c-.09-.39-.2-.77-.31-1.16A10.26,10.26,0,0,1,577.2,281C586.81,281,594.6,295.77,594.6,314Z"/><path class="cls-8" d="M589.85,315.26c0,9.19-3.51,17.1-8.55,20.66a10.37,10.37,0,0,1-6,2c-5.38,0-10.08-4.55-12.58-11.33-.09-7.31-.53-13.72-1.09-19.07,1.2-5.2,3.6-9.52,6.68-12.15,0,0,2.35-1.3,2.26-1.57a9.9,9.9,0,0,1,4.73-1.23C583.34,292.58,589.85,302.74,589.85,315.26Z"/><path class="cls-4" d="M577.25,317.25c0,5.09-1.94,9.47-4.73,11.44a5.78,5.78,0,0,1-3.32,1.11c-3,0-5.58-2.52-7-6.27-.05-4-.29-7.59-.6-10.55a12.56,12.56,0,0,1,3.7-6.73l1.39-.43c0-.15-.09-.29-.14-.44a5.5,5.5,0,0,1,2.62-.68C573.64,304.7,577.25,310.32,577.25,317.25Z"/><circle class="cls-18" cx="422.66" cy="916.95" r="9.18"/><circle class="cls-18" cx="192.1" cy="913.5" r="11.1"/><polygon class="cls-2" points="298.51 636.65 298.51 636.73 298.49 636.73 298.51 636.65"/><circle class="cls-19" cx="293.36" cy="399.08" r="33.51"/><circle class="cls-20" cx="510.06" cy="405.08" r="33.51"/><ellipse class="cls-9" cx="311.26" cy="592.13" rx="31.79" ry="2.37" transform="translate(-347.92 706.07) rotate(-72.08)"/><path class="cls-8" d="M491.1,914.7a102,102,0,0,1-6.58,17.47,113.66,113.66,0,0,1-9.44,16.24,92.66,92.66,0,0,1-12.33,14.4,75.16,75.16,0,0,1-15.47,11.25,41.43,41.43,0,0,1-4.35,2.1l-2.23.94-1.11.46-1.15.38c-1.54.48-3.06,1-4.62,1.44s-3.15.7-4.73,1a65.19,65.19,0,0,1-19.17.16,84.2,84.2,0,0,1-34.51-14.35l.15-.26c10.69,6.13,22.4,10.7,34.63,12.27a66.18,66.18,0,0,0,18.38-.6,59.7,59.7,0,0,0,17.29-6.2c10.88-5.8,20-14.57,27.33-24.42a128.06,128.06,0,0,0,9.93-15.59,125.58,125.58,0,0,0,7.7-16.81Z"/><path class="cls-8" d="M154.43,956c-.29.37.13,1,.48,1.49a10.3,10.3,0,0,0,1.28,1.37,26.19,26.19,0,0,0,2.95,2.4,53.59,53.59,0,0,0,6.54,4,83.93,83.93,0,0,0,14.1,5.71,103.11,103.11,0,0,0,14.82,3.35,111.1,111.1,0,0,0,15.14,1.28A125.27,125.27,0,0,0,225,975c5.08-.42,10.13-1.18,15.18-2.08a267,267,0,0,0,30-7.62l.12.28a173.43,173.43,0,0,1-29.65,9.64,129.75,129.75,0,0,1-31,3.29A100.1,100.1,0,0,1,179,973.16a76.07,76.07,0,0,1-14.14-6.59,50.81,50.81,0,0,1-6.38-4.53,26.79,26.79,0,0,1-2.82-2.72,10.83,10.83,0,0,1-1.18-1.58,4.22,4.22,0,0,1-.43-.91,1,1,0,0,1,.21-1.07Z"/><path class="cls-12" d="M586.17,353.84c3.93,26.64,7.22,53.36,10.1,80.14s5.17,53.61,6.77,80.49q1.26,20.17,1.84,40.37c.21,6.73.27,13.47.34,20.21s-.05,13.48-.27,20.21l-.15,5.06-.24,5c-.19,3.36-.28,6.73-.55,10.09l-.74,10.09-1,10.06c-.4,3.35-.89,6.68-1.34,10-.19,1.67-.53,3.32-.81,5l-.87,5c-.27,1.66-.68,3.3-1.05,4.95l-1.12,4.93c-.17.82-.39,1.64-.63,2.44l-.7,2.43-1.39,4.86-.19-.06,1.22-4.89.61-2.45c.21-.81.4-1.63.54-2.46l1-5c.3-1.65.66-3.29.86-5,.47-3.33,1.06-6.63,1.44-10s.77-6.67,1.1-10c1.27-13.37,1.85-26.81,2.09-40.25s.22-26.88-.05-40.32-.75-26.89-1.46-40.33c-1.4-26.87-3.56-53.7-6.17-80.48s-5.63-53.54-9.3-80.21Z"/><path class="cls-12" d="M230.68,494.57C223,520.38,214.78,546,206.14,571.5s-17.8,50.82-27.63,75.88q-7.32,18.82-15.27,37.39c-2.63,6.2-5.41,12.33-8.16,18.47s-5.64,12.23-8.63,18.26c-6,12.07-12.23,24-19.16,35.57s-14.44,22.8-23.37,32.89l-.08-.07L107,786l1.59-2c.54-.65,1-1.31,1.53-2l3-4.09c1-1.37,2-2.71,2.89-4.13,1.83-2.82,3.76-5.57,5.52-8.44s3.53-5.72,5.23-8.62c6.81-11.59,12.94-23.58,18.81-35.67,3-6,5.78-12.15,8.63-18.24s5.52-12.26,8.15-18.45q8.05-18.51,15.44-37.29c9.91-25,19.11-50.31,27.9-75.75s17.14-51,24.91-76.8Z"/><path class="cls-12" d="M229.68,514.54c-7.64,25.81-15.9,51.43-24.54,76.93s-17.8,50.81-27.63,75.88q-7.32,18.81-15.27,37.39c-2.63,6.19-5.41,12.32-8.16,18.47s-5.64,12.23-8.63,18.26c-6,12.06-12.23,24-19.16,35.57s-14.44,22.79-23.37,32.89l-.08-.07,3.18-3.92,1.59-2c.54-.64,1-1.31,1.53-2l3-4.09c1-1.36,2-2.7,2.89-4.12,1.83-2.82,3.76-5.58,5.52-8.44s3.53-5.73,5.23-8.62c6.81-11.6,12.94-23.58,18.81-35.68,3-6,5.78-12.14,8.63-18.23s5.52-12.27,8.15-18.46q8.05-18.5,15.44-37.29c9.91-25,19.11-50.31,27.9-75.74s17.14-51,24.91-76.8Z"/><path class="cls-21" d="M204.63,570.52S138.07,797.58,77.88,865.89"/><path class="cls-21" d="M577.2,347.08s36,222.59,7.66,305.38"/><path class="cls-9" d="M711.84,746.26c69.51,14.66,137.64,41.85,129.6,47.26-.7.48-68.13-31.82-132.15-43.54-82.78-15.17-138.53-44.35-137.83-44.82S589.18,720.4,711.84,746.26Z"/><path class="cls-9" d="M147,1025.19c1.41,16-10.31,39-9.75,39s13.2-23.17,11.79-39.15-3-28.88-3.57-28.83S145.63,1009.22,147,1025.19Z"/><path class="cls-9" d="M502.38,938.8c-4,45.68,4.35,109.36,3.78,109.3s-9.88-63.8-5.85-109.49,7.74-82.68,8.32-82.63S506.41,893.11,502.38,938.8Z"/><path class="cls-9" d="M177.67,535.41c3.68,41.72-11.29,100.52-10.47,100.45s17.14-59,13.47-100.71-7.32-75.49-8.15-75.42S174,493.69,177.67,535.41Z"/><path class="cls-9" d="M122.73,152.91c-3.68,41.72,40.58,194.87,39.75,194.8s-46.42-153.34-42.75-195.06S114.15,80.7,115,80.77,126.4,111.19,122.73,152.91Z"/><path class="cls-12" d="M494.5,153.17a1.25,1.25,0,0,1,.78-.82,4,4,0,0,1,1.06-.19,11,11,0,0,1,2.08.16,31.21,31.21,0,0,1,4,1,75.12,75.12,0,0,1,7.68,3,142.84,142.84,0,0,1,14.6,7.54,181.56,181.56,0,0,1,26.67,19.23c8.27,7.22,16.12,15.11,22.29,24.32s11,19.39,13,30.21a.16.16,0,0,1-.12.18.15.15,0,0,1-.17-.1,109.45,109.45,0,0,0-15.12-28.58,164.27,164.27,0,0,0-21.43-24.25,181.1,181.1,0,0,0-25.85-19.73,145.6,145.6,0,0,0-14.2-8,77.31,77.31,0,0,0-7.49-3.2,29.32,29.32,0,0,0-3.89-1.13,10.31,10.31,0,0,0-2-.24c-.63,0-1.38.14-1.55.71h0a.14.14,0,0,1-.18.1A.16.16,0,0,1,494.5,153.17Z"/><path class="cls-12" d="M494.52,153.29a2.89,2.89,0,0,1-.3-.61.71.71,0,0,1,0-.39.52.52,0,0,1,.29-.35,2.47,2.47,0,0,1,1.36.06,16.56,16.56,0,0,1,2.41.9,49.49,49.49,0,0,1,4.51,2.36c2.94,1.7,5.77,3.57,8.54,5.53a168.63,168.63,0,0,1,15.82,12.78,181.49,181.49,0,0,1,26.81,30.62c7.73,11.18,14.3,23.35,18.38,36.42a115.26,115.26,0,0,1,4.39,20c.42,3.38.69,6.78.83,10.18s.07,6.8-.18,10.18a.15.15,0,0,1-.16.14.15.15,0,0,1-.14-.14c-.21-3.38-.45-6.74-.88-10.08s-.88-6.66-1.54-9.95a143.36,143.36,0,0,0-5.17-19.38,161.35,161.35,0,0,0-17.53-36,179.3,179.3,0,0,0-25.83-30.87,171.41,171.41,0,0,0-15.33-13.15c-2.69-2-5.45-4-8.31-5.74-1.44-.88-2.89-1.73-4.4-2.46a14.84,14.84,0,0,0-2.32-.94,2.14,2.14,0,0,0-1.12-.12c-.25.06-.05.56.16.87a.17.17,0,0,1,0,.21.15.15,0,0,1-.21,0Z"/><path class="cls-12" d="M359.92,133.15a178.28,178.28,0,0,0-27,5.69,201,201,0,0,0-25.94,9.47,174.2,174.2,0,0,0-24.26,13.06,144.11,144.11,0,0,0-21.62,16.94,141.38,141.38,0,0,0-17.85,20.79c-2.46,3.84-5.07,7.6-7.16,11.66-2.37,3.92-4.18,8.12-6.15,12.24-.93,2.08-1.71,4.24-2.57,6.35l-1.26,3.19c-.38,1.08-.69,2.18-1,3.27l-2.1,6.54L221.23,249l-.84,3.34c-.32,1.11-.44,2.25-.67,3.38l-1.23,6.79-.32,1.7-.22,1.71-.42,3.43q-.41,3.44-.87,6.87h0a.16.16,0,0,1-.17.13.15.15,0,0,1-.13-.15c.09-2.31.19-4.63.31-6.94l.17-3.47.09-1.74.21-1.73.87-6.91c.17-1.14.24-2.31.5-3.45l.68-3.42c.46-2.27.88-4.57,1.41-6.83l1.89-6.73c.32-1.12.62-2.25,1-3.36l1.21-3.28c.82-2.18,1.57-4.4,2.46-6.56,2-4.23,3.8-8.54,6.18-12.57,2.16-4.15,4.9-8,7.46-11.86a144.64,144.64,0,0,1,18.64-20.82,146.32,146.32,0,0,1,22.21-16.84,177.84,177.84,0,0,1,24.71-12.79,202.12,202.12,0,0,1,26.3-9,178.92,178.92,0,0,1,27.26-5.13.16.16,0,0,1,.16.14.15.15,0,0,1-.13.16Z"/><ellipse class="cls-22" cx="284.02" cy="327.62" rx="17.71" ry="4.71" transform="translate(-120.91 482.64) rotate(-70.03)"/><ellipse class="cls-23" cx="290.5" cy="333.44" rx="24.23" ry="2.98" transform="translate(-122.12 492.56) rotate(-70.03)"/><path class="cls-24" d="M585.68,341.72a33,33,0,0,1,4.8,5.2,33.32,33.32,0,0,1,3.48,6.23,75.06,75.06,0,0,1,4.09,13.59c1.87,9.25,3,18.56,4.15,27.84a136,136,0,0,1,1.12,14.16,93.68,93.68,0,0,1-.63,14.36,47.23,47.23,0,0,1-1.52,7.23,27.42,27.42,0,0,1-3.12,7.07,16.4,16.4,0,0,1-2.63,3.19,13,13,0,0,1-3.58,2.44,13.57,13.57,0,0,1-4.2,1.17,19.12,19.12,0,0,1-4.09-.08,20.64,20.64,0,0,1-7.6-2.5,23.36,23.36,0,0,1-6.06-5,33.39,33.39,0,0,1-6.71-13.42,51.65,51.65,0,0,1-1.35-7.21,65.21,65.21,0,0,1-.3-7.25c0-4.73.17-9.4.41-14.1a207.62,207.62,0,0,1,3.11-28,115.21,115.21,0,0,1,3.37-13.71c1.43-4.47,3.27-8.94,6.28-12.6l.23.19c-2.79,3.72-4.39,8.19-5.69,12.64a115.87,115.87,0,0,0-2.89,13.68,234.26,234.26,0,0,0-2.41,27.87c-.14,4.67-.19,9.34-.12,14a54.15,54.15,0,0,0,1.92,13.77,31.56,31.56,0,0,0,6.32,12.25,20.27,20.27,0,0,0,5.32,4.35,17.56,17.56,0,0,0,10,2.16,10.36,10.36,0,0,0,6.08-2.79,13.44,13.44,0,0,0,2.18-2.63,24.36,24.36,0,0,0,2.82-6.31,47.16,47.16,0,0,0,1.47-6.79,91.41,91.41,0,0,0,.82-13.93c-.05-4.67-.35-9.32-.78-14-.93-9.28-1.83-18.59-3.4-27.79a73.82,73.82,0,0,0-3.47-13.51,31.34,31.34,0,0,0-7.58-11.56Z"/><path class="cls-9" d="M481.06,893.22c0,19.63-5.66,35.54-4,35.54S487,912.85,487,893.22s-18.12-35.54-19.75-35.54S481.06,873.6,481.06,893.22Z"/><path class="cls-12" d="M548.7,713.18c-3.64,10-6.74,20.24-9.53,30.53s-5.18,20.7-7.11,31.18A301.66,301.66,0,0,0,528,806.58c-.38,5.3-.6,10.63-.59,15.95s.27,10.65.8,16h-.1a139.51,139.51,0,0,1-1.4-16c-.15-5.34,0-10.69.29-16s.94-10.66,1.63-16,1.64-10.56,2.64-15.81q3.06-15.72,7.42-31.16c2.92-10.27,6.15-20.45,9.92-30.44Z"/><path class="cls-12" d="M504.24,754.28a248.7,248.7,0,0,0-15.33,46.2c-.84,4-1.61,7.95-2.19,12s-1.09,8-1.35,12.07a120.14,120.14,0,0,0-.32,12.15,100.55,100.55,0,0,0,1.11,12.11l-.09,0a79.4,79.4,0,0,1-1.71-12.1,108.65,108.65,0,0,1,0-12.24c.27-4.08.77-8.13,1.38-12.17s1.47-8,2.38-12A229.62,229.62,0,0,1,495,776.85a235.78,235.78,0,0,1,9.18-22.62Z"/><path class="cls-25" d="M496.08,455.94a201,201,0,0,1-27.66,16.95c-4.79,2.52-9.73,4.76-14.69,7s-10.07,4.08-15.19,5.9-10.38,3.29-15.67,4.61a132.81,132.81,0,0,1-16.12,2.93c-2.71.34-5.44.55-8.17.68s-5.48.12-8.21-.07a63.17,63.17,0,0,1-16.07-2.84l.07-.29a74,74,0,0,0,16,1.55,102.74,102.74,0,0,0,16-1.36,181.23,181.23,0,0,0,31.16-8.05,294.9,294.9,0,0,0,29.85-12.17c9.73-4.59,19.28-9.55,28.51-15.07Z"/><path class="cls-6" d="M832.44,24V1055.9H24V24H832.44m24-24H0V1079.9H856.44V0Z"/></g></svg>
