<svg xmlns="http://www.w3.org/2000/svg" xmlns:xlink="http://www.w3.org/1999/xlink" width="856.44" height="1079.9" viewBox="0 0 856.44 1079.9"><defs><style>.cls-1{fill:#aae4f9;}.cls-2{fill:#d3edf4;}.cls-3{fill:#e8cfb8;}.cls-4{fill:#ffe2ca;}.cls-5{fill:#fff;}.cls-6{fill:#f2c2f1;stroke:#f3d7c0;stroke-width:0.75px;}.cls-6,.cls-9{stroke-linecap:round;}.cls-10,.cls-12,.cls-22,.cls-6,.cls-9{stroke-miterlimit:10;}.cls-7{fill:#dcc3ae;}.cls-8{fill:#fceee3;}.cls-10,.cls-22,.cls-9{fill:none;}.cls-9{stroke:#dcc3ae;}.cls-10,.cls-9{stroke-width:3px;}.cls-10,.cls-12{stroke:#000;}.cls-11,.cls-12{fill:#ff876a;}.cls-13{fill:#c4b671;}.cls-14{fill:#ffece9;}.cls-15{fill:#d3a879;}.cls-16{fill:url(#radial-gradient);}.cls-17{fill:url(#radial-gradient-2);}.cls-18{fill:#ffd550;}.cls-19{fill:#382e26;}.cls-20{fill:#fcf2eb;}.cls-21{fill:#697eff;}.cls-22{stroke:#c4b671;}</style><radialGradient id="radial-gradient" cx="364.36" cy="480.08" r="33.51" gradientUnits="userSpaceOnUse"><stop offset="0" stop-color="#ffcfca"/><stop offset="1" stop-color="#ffe2ca" stop-opacity="0.3"/></radialGradient><radialGradient id="radial-gradient-2" cx="581.06" cy="486.08" r="33.51" xlink:href="#radial-gradient"/></defs><title>girl6</title><g id="The_girl" data-name="The girl"><rect class="cls-1" y="647.13" width="856.44" height="432.77"/><rect class="cls-2" x="-1.81" y="1.37" width="856.44" height="643.86"/><path class="cls-3" d="M556.78,608.92s-10,58.2-11.37,59.9c-7.25,8.94-19.07,20.82-27.5,29.62-15.24,15.9-11.74,3.93-23.33,18.29L382.84,633.37l8.94-39.56c2.14,1.31,8.32,14.64,10.55,15.83,14.63,7.78,58.23,38.37,70.05,35.54,27.6-6.61,52-14.53,72.75-28C549.15,614.54,553,611.81,556.78,608.92Z"/><path class="cls-4" d="M635,432.5c0,46.05-7.92,84.33-23,115.48a170,170,0,0,1-50.23,61.94c-3.75,2.89-53,49.78-84.4,38.26-110-40.37-132.33-104.35-132.48-104.78-27.06-77.08-29.27-91.33-29.59-137.1a.14.14,0,0,1,0-.09,1.5,1.5,0,0,1,0-.3,2.28,2.28,0,0,1,0-.37c-.65-138.49,92.62-151.66,104.12-153l.27,0,.33,0h.11l.94-.11.26,0h.13l.19,0c.94-.12,2.47-.31,4.53-.5l.8-.08c3.06-.28,7.14-.57,12.06-.74l2.46-.07,2.86-.05h1.48c29.07-.18,78.51,4.61,122.64,33.59,1,.7,2.11,1.41,3.16,2.13q7.1,4.88,14,10.64,1.53,1.29,3,2.61c1,.89,2,1.79,3,2.71a187.94,187.94,0,0,1,40.72,55.12.28.28,0,0,0,0,.06s0,0,0,.06c.17,1.83.34,3.66.49,5.51v0c.18,2.2.35,4.4.51,6.62.95,13.67,1.38,27.94,1.55,42.69Q635,422.42,635,432.5Z"/><path d="M592.42,397.52S512.1,418.48,508,427c0,0,78.08-19.22,78.94-18.1s2,9.86-.08,10.59S601.32,406.73,592.42,397.52Z"/><path class="cls-5" d="M564.84,414.52l-.37-.19h0Z"/><path class="cls-5" d="M567.34,421l-8.55-1.09,4.44-6.53a10.53,10.53,0,0,1,1.26,1.24A11.89,11.89,0,0,1,567.34,421Z"/><path d="M567.34,424.05c0,.21-.06.4-.1.61a3,3,0,0,1-.09.43,4,4,0,0,1-.12.52c0,.18-.39,1.22-.45,1.37s-.12.29-.19.44a12.23,12.23,0,0,1-1.52,2.53c-.09.1-.17.21-.26.32l-.48.53a4.78,4.78,0,0,1-.39.39,12.18,12.18,0,0,1-2.18,1.66l-.39.22c-.23.12-.44.23-.67.33a5.11,5.11,0,0,1-.48.22,12,12,0,0,1-6.11.8c-.21,0-.41-.06-.61-.09a3.43,3.43,0,0,1-.44-.09,4.23,4.23,0,0,1-.51-.13l-.52-.14-.42-.14-.43-.16-.44-.19A11.85,11.85,0,0,1,548,432l-.32-.26-.53-.47-.39-.39a12.94,12.94,0,0,1-1.66-2.18c-.07-.13-.14-.26-.22-.39l-.34-.67a5,5,0,0,1-.21-.48,12,12,0,0,1-.81-6.11c0-.21.07-.41.1-.62a3.29,3.29,0,0,1,.09-.43,3,3,0,0,1,.13-.52c0-.17.09-.35.14-.51s.09-.28.14-.42a3.75,3.75,0,0,1,.16-.43,4.48,4.48,0,0,1,.19-.44,12,12,0,0,1,1.52-2.54c.09-.1.17-.21.28-.32s.3-.35.46-.52.25-.27.39-.4a15.5,15.5,0,0,1,1.24-1l.51-.34.16-.1c.23-.15.47-.29.7-.41a11.5,11.5,0,0,1,1.56-.71h0a13.66,13.66,0,0,1,1.63-.46c.27,0,.56-.11.83-.14a11.52,11.52,0,0,1,3.16,0,11.85,11.85,0,0,1,5.26,2l.34.24c.23.17.45.34.67.53l-4.44,6.53,8.55,1.09a.45.45,0,0,1,0,.11c0,.21,0,.43.06.64a6.21,6.21,0,0,1,0,.75c0,.17,0,.34,0,.52l0,.39C567.38,423.63,567.37,423.84,567.34,424.05Z"/><path class="cls-5" d="M398,423.6l4.47,7.37-7.87.6a10.61,10.61,0,0,1,.18-1.76A11.93,11.93,0,0,1,398,423.6Z"/><path d="M400.33,421.72l.54-.31a3,3,0,0,1,.4-.2,3.41,3.41,0,0,1,.48-.22c.16-.08,1.2-.46,1.35-.51s.3-.09.46-.12a11.61,11.61,0,0,1,2.93-.39h.41c.24,0,.47,0,.71,0a5.14,5.14,0,0,1,.55.06,11.45,11.45,0,0,1,2.65.67l.42.17.68.31c.16.07.32.16.47.24a12,12,0,0,1,4.44,4.28c.11.18.2.35.3.54a2.93,2.93,0,0,1,.21.39,5.11,5.11,0,0,1,.22.48c.08.17.14.34.21.5a3.39,3.39,0,0,1,.15.41c0,.14.1.29.14.44s.09.3.13.46a12.15,12.15,0,0,1,.39,2.93c0,.13,0,.27,0,.42s0,.46,0,.7a5.14,5.14,0,0,1-.06.55,12.8,12.8,0,0,1-.67,2.66c-.06.13-.11.27-.17.41s-.2.46-.31.68a5.19,5.19,0,0,1-.25.47,11.86,11.86,0,0,1-4.27,4.44l-.54.31c-.13.07-.25.14-.39.2a5.27,5.27,0,0,1-.49.22,5.16,5.16,0,0,1-.49.21,3.39,3.39,0,0,1-.41.15,3.22,3.22,0,0,1-.44.14,4.61,4.61,0,0,1-.46.13,11.75,11.75,0,0,1-2.94.39h-.41c-.24,0-.47,0-.7,0a5.32,5.32,0,0,1-.56-.06,14.26,14.26,0,0,1-1.58-.32l-.59-.18-.18-.06c-.25-.09-.51-.19-.75-.3a12.16,12.16,0,0,1-1.53-.77s0,0,0,0a12.36,12.36,0,0,1-1.38-1c-.21-.17-.43-.37-.63-.56a11.78,11.78,0,0,1-2-2.46,11.92,11.92,0,0,1-1.7-5.36l0-.42c0-.28,0-.56,0-.85l7.87-.6L398,423.6a.46.46,0,0,1,.07-.07c.15-.16.31-.3.47-.45s.37-.33.57-.48.27-.21.41-.32a3.05,3.05,0,0,1,.32-.22Z"/><path d="M475.09,510c-4.27,0-12.93-5.16-12.15-4.9,20,6.67,41.65-6.69,41.87-6.82C505.51,497.87,491.56,510,475.09,510Z"/><path class="cls-6" d="M536.26,552s-38-9.59-40.24-5.63c-3.45,6-7.59,4.66-10.24,5.35-3.13.81-11.65-6.21-11.65-6.21l-32.45,15.78c23.06,10.41,66.15,2.15,94.58-9.29"/><path class="cls-7" d="M521.19,574.05a38.09,38.09,0,0,1-11.75,10.79,46.15,46.15,0,0,1-15.06,5.88c-1.35.26-2.71.45-4.08.6a40.82,40.82,0,0,1-4.14.18,34.64,34.64,0,0,1-8.23-1,28.76,28.76,0,0,1-14.15-7.79l0-.05a.25.25,0,0,1,0-.35.24.24,0,0,1,.28,0,43.56,43.56,0,0,0,7,2.74,40.38,40.38,0,0,0,7.37,1.53c1.25.18,2.51.2,3.76.28s2.51,0,3.77-.06a48.16,48.16,0,0,0,7.47-1,63.33,63.33,0,0,0,14.36-4.62,75,75,0,0,0,6.74-3.45,61.46,61.46,0,0,0,6.37-4.08.24.24,0,0,1,.34.06.23.23,0,0,1,0,.28Z"/><path class="cls-8" d="M480.72,620.68a15.12,15.12,0,0,1,5.93-6.32,21.58,21.58,0,0,1,8.24-3,23.07,23.07,0,0,1,4.39-.2c.72.06,1.45.09,2.17.18s1.43.26,2.14.42a23.29,23.29,0,0,1,4.08,1.37,23,23,0,0,1,3.68,2.24l-.09.29c-1.31-.31-2.61-.68-3.93-1l-2-.33-1-.17-1-.08-2-.15c-.67,0-1.34,0-2,0h-1c-.34,0-.67.07-1,.1-.67.08-1.34.12-2,.23a29,29,0,0,0-7.68,2.24,24.76,24.76,0,0,0-6.71,4.34Z"/><path class="cls-7" d="M499.22,470s-17.05-5.07-33.88,0Z"/><path class="cls-9" d="M486.05,401.58s-4.88,23.41,10.6,62.86"/><path class="cls-7" d="M456.82,429.51S416,410.09,364.06,417.78c0,0,5.36-19.11,41.22-25.42C448,384.84,456.82,429.51,456.82,429.51Z"/><path d="M453.4,424.52c18.24,9.79-42.65-8.51-82.77,2.17l-6.92-11.89S418.83,406,453.4,424.52Z"/><path class="cls-7" d="M592.42,397.52c3.63-.89-16.13-13.87-52-9.73-22,2.53-33.66,35.43-32.39,39.23C506.19,423.94,553.13,407.24,592.42,397.52Z"/><path class="cls-10" d="M634.29,369.58c.52,3.88,1.07,8.64,1.55,14.18"/><line class="cls-10" x1="142.76" y1="945.8" x2="142.75" y2="945.81"/><path class="cls-4" d="M341.82,933.64c-2.53,10.2-98.81-1.41-134.47-11.75-14.94-4.33-83.61,101.85-73.81,100.15,7.67-1.34,44.5,14.89,73.66,30.59l.55.3,3.6,2,2.37,1.32,2.73,1.54,1.4.8h0c16.2,9.3,27.84,17.56,26.61,20.7a4.11,4.11,0,0,0-.19.65H71s-80-12-28.8-78.12c12.65-16.34,86.2-156.85,166.05-239.33,0,0,28.67-29,32.5-37.67,0,0,130.49,22.28,130.51,22.25C382.4,721.86,361.65,853.42,341.82,933.64Z"/><path class="cls-10" d="M635.84,383.76c.67,7.8,1.2,17.15,1.3,27.8A57,57,0,0,1,634.8,395,60.33,60.33,0,0,1,635.84,383.76Z"/><path class="cls-10" d="M646.85,364.91l-3,1.13a15.12,15.12,0,0,1,2.71-2.29C646.65,364.14,646.76,364.52,646.85,364.91Z"/><path class="cls-11" d="M419.43,252.56c-15.22,1.87-172.41,28.81-66.19,336C243.89,277.09,404.12,254.31,419.43,252.56Z"/><path class="cls-12" d="M420,252.49h.11l-.44.05Z"/><path class="cls-12" d="M420.14,252.48l.94-.11-.48.07Z"/><path class="cls-13" d="M456.72,372a9.15,9.15,0,0,0-5.46-10,112.81,112.81,0,0,0-52.39-8.26c-34.19,2.86-68.6,21.3-68.6,21.3s48-16.85,66-11.12A99.25,99.25,0,0,0,407,366.64c14.7,2.94,44.29,9.16,46.3,11.94C454.83,380.63,456,376.28,456.72,372Z"/><path class="cls-13" d="M496.67,352.73l-.57,5.58a6.12,6.12,0,0,0,7.24,6.64c18.82-3.63,65.54-11.23,86.4-2.17,25.87,11.23-21.6-27.79-88.1-15.46A6.13,6.13,0,0,0,496.67,352.73Z"/><path class="cls-10" d="M526.84,834.17a29.92,29.92,0,0,0-6.49,6C522.21,836.78,524.36,834.56,526.84,834.17Z"/><path class="cls-14" d="M371.26,684l-1.75,7.67c0-1,0-1.95,0-2.92C370.08,687.14,370.67,685.55,371.26,684Z"/><path class="cls-4" d="M856.44,803.8v276.1H811.11c-46.45-59.42-120.81-150.52-157.85-186.4-3.82-3.7-36.37-26.24-38.84-28.61-6.43-6.14-11.69,3.64-15.89,22.57v0c-1,4.57-2,9.67-2.85,15.22-1.56,9.69-2.93,20.71-4.12,32.58-2.81,27.92-4.62,60.47-5.54,91.09,0,.15,0,.29,0,.43-.56,19-.78,37.2-.69,53.1H206c.75-7.94,1.37-16.9,1.78-27,.47-11.88.65-25.31.39-40.42,0-.21,0-.42,0-.62q-.19-10.71-.69-22.57v0q-.51-11.92-1.38-25l-.09-1.35q-.83-12.3-2-25.69a.82.82,0,0,1,0-.1c0-.54,1.8-1.14,3.41-1.74l.53-.2a5.32,5.32,0,0,0,1.65-.85,1.4,1.4,0,0,1,.81-.41q5.49-.72,10.92-1.14c53-4.23,99.67,11.05,105,12.86a1.35,1.35,0,0,0,1,0c4.88-2.17,9.22-6.44,13.07-12.45,9.11-14.17,29-171.33,29.27-215.69,0,0,0,0,0,0s0,0,0,0,0,0,0,0c0-3.24-1.59-30.54-1.6-33.42a39.5,39.5,0,0,1,1.23-6.23v0c4-16.12,16.27-56.65,18.36-67.19a1.34,1.34,0,0,1,2-.85l.07,0L498.55,691a1.35,1.35,0,0,0,1.78-.16l0,0,0,0c.33-.41,132.63,42.74,132.86,43C646.35,750.87,773.64,783.86,856.44,803.8Z"/><path class="cls-8" d="M211.15,971.5c0,19.63,5.67,35.54,4,35.54s-9.93-15.91-9.93-35.54S223.38,936,225,936,211.15,951.88,211.15,971.5Z"/><path class="cls-4" d="M665.6,395c0,11.67-3.18,21.92-8,27.81a18.34,18.34,0,0,1-2.24,2.32,11,11,0,0,1-7.17,2.93,9.93,9.93,0,0,1-4.49-1.11c-4.51-2.28-8.29-7.91-10.57-15.41-.1-10.65-.63-20-1.3-27.8,1.44-7.58,4.31-13.88,8-17.72l3-1.13c-.09-.39-.2-.77-.31-1.16A10.26,10.26,0,0,1,648.2,362C657.81,362,665.6,376.77,665.6,395Z"/><path class="cls-7" d="M660.85,396.26c0,9.19-3.51,17.1-8.55,20.66a10.37,10.37,0,0,1-6,2c-5.38,0-10.08-4.55-12.58-11.33-.09-7.31-.53-13.72-1.09-19.07,1.2-5.2,3.6-9.52,6.68-12.15,0,0,2.35-1.3,2.26-1.57a9.9,9.9,0,0,1,4.73-1.23C654.34,373.58,660.85,383.74,660.85,396.26Z"/><path class="cls-4" d="M648.25,398.25c0,5.09-1.94,9.47-4.73,11.44a5.78,5.78,0,0,1-3.32,1.11c-3,0-5.58-2.52-7-6.27-.05-4-.29-7.59-.6-10.55a12.56,12.56,0,0,1,3.7-6.73l1.39-.43c0-.15-.09-.29-.14-.44a5.5,5.5,0,0,1,2.62-.68C644.64,385.7,648.25,391.32,648.25,398.25Z"/><circle class="cls-15" cx="493.66" cy="971.95" r="9.18"/><circle class="cls-15" cx="263.1" cy="968.5" r="11.1"/><polygon class="cls-14" points="369.51 691.65 369.51 691.73 369.49 691.73 369.51 691.65"/><circle class="cls-16" cx="364.36" cy="480.08" r="33.51"/><circle class="cls-17" cx="581.06" cy="486.08" r="33.51"/><path class="cls-3" d="M367.31,725.69a202.83,202.83,0,0,1,14.52,18q6.74,9.42,12.6,19.46c1,1.67,2,3.33,2.91,5l2.84,5.08a107.29,107.29,0,0,1,4.87,10.56c.68,1.82,1.42,3.62,2.05,5.45s1.2,3.69,1.74,5.56c.27.93.58,1.85.81,2.79l.66,2.84c.41,1.9.83,3.8,1.14,5.71l-.38.12c-3.43-7-6.33-14-9.69-20.88-1.55-3.48-3.27-6.88-4.76-10.4s-3.19-6.94-5-10.31q-5.26-10.19-11.46-19.89A224.93,224.93,0,0,0,367,726Z"/><ellipse class="cls-8" cx="382.26" cy="647.13" rx="31.79" ry="2.37" transform="translate(-351.1 811.7) rotate(-72.08)"/><path class="cls-7" d="M562.1,969.7a102,102,0,0,1-6.58,17.47,113.66,113.66,0,0,1-9.44,16.24,92.66,92.66,0,0,1-12.33,14.4,75.16,75.16,0,0,1-15.47,11.25,41.43,41.43,0,0,1-4.35,2.1l-2.23.94-1.11.46-1.15.38c-1.54.48-3.06,1-4.62,1.44s-3.15.7-4.73,1a65.19,65.19,0,0,1-19.17.16,84.2,84.2,0,0,1-34.51-14.35l.15-.26c10.69,6.13,22.4,10.7,34.63,12.27a66.18,66.18,0,0,0,18.38-.6,59.7,59.7,0,0,0,17.29-6.2c10.88-5.8,20-14.57,27.33-24.42a128.06,128.06,0,0,0,9.93-15.59,125.58,125.58,0,0,0,7.7-16.81Z"/><path class="cls-8" d="M856.44,821.21v5.07c-22.66-8.1-49.7-16.46-76.15-21.3-82.78-15.16-138.53-44.34-137.83-44.82s17.73,15.24,140.38,41.1A698.42,698.42,0,0,1,856.44,821.21Z"/><path class="cls-8" d="M220.08,1079.9H218c-.78-8.92-1.33-16.88-1.56-22.15-.19-4.09-.18-6.55.07-6.57s.75,2.79,1.33,7.37h0C218.53,1063.8,219.33,1071.42,220.08,1079.9Z"/><path class="cls-3" d="M231.46,1011c-.23.32.18.94.54,1.39a10.22,10.22,0,0,0,1.32,1.31,26,26,0,0,0,3,2.3,53.67,53.67,0,0,0,6.59,3.77,87.37,87.37,0,0,0,14.1,5.44,107.48,107.48,0,0,0,14.72,3.17,109.31,109.31,0,0,0,15,1.23,127.6,127.6,0,0,0,15.13-.47c5.05-.37,10.08-1.11,15.12-1.92,10.07-1.72,20.06-4.24,30.17-7l.16.37a173.56,173.56,0,0,1-29.65,9.68,130,130,0,0,1-31,3.31,99.9,99.9,0,0,1-30.69-5.41,75.69,75.69,0,0,1-14.16-6.61,50.71,50.71,0,0,1-6.37-4.53,27,27,0,0,1-2.83-2.73,12.42,12.42,0,0,1-1.19-1.59,4.92,4.92,0,0,1-.43-.93,1,1,0,0,1,.23-1.12Z"/><path class="cls-18" d="M656.68,422.72a33,33,0,0,1,4.8,5.2,33.32,33.32,0,0,1,3.48,6.23,75.06,75.06,0,0,1,4.09,13.59c1.87,9.25,3,18.56,4.15,27.84a136,136,0,0,1,1.12,14.16,92.44,92.44,0,0,1-.64,14.36,46,46,0,0,1-1.51,7.23,27.42,27.42,0,0,1-3.12,7.07,16.4,16.4,0,0,1-2.63,3.19,13,13,0,0,1-3.58,2.44,13.57,13.57,0,0,1-4.2,1.17,19.12,19.12,0,0,1-4.09-.08,20.64,20.64,0,0,1-7.6-2.5,23.36,23.36,0,0,1-6.06-5,33.39,33.39,0,0,1-6.71-13.42,51.65,51.65,0,0,1-1.35-7.21,65.21,65.21,0,0,1-.3-7.25c0-4.73.17-9.4.41-14.1a207.62,207.62,0,0,1,3.11-28,115.21,115.21,0,0,1,3.37-13.71c1.43-4.47,3.27-8.94,6.28-12.6l.23.19c-2.79,3.72-4.39,8.19-5.69,12.64a115.87,115.87,0,0,0-2.89,13.68,234.26,234.26,0,0,0-2.41,27.87c-.14,4.67-.19,9.34-.12,14a54.15,54.15,0,0,0,1.92,13.77,31.56,31.56,0,0,0,6.32,12.25,20.27,20.27,0,0,0,5.32,4.35,17.56,17.56,0,0,0,10,2.16,10.36,10.36,0,0,0,6.08-2.79,13.44,13.44,0,0,0,2.18-2.63,24.36,24.36,0,0,0,2.82-6.31,47.16,47.16,0,0,0,1.47-6.79,91.41,91.41,0,0,0,.82-13.93c-.05-4.67-.35-9.32-.78-14-.93-9.28-1.83-18.59-3.4-27.79a73.82,73.82,0,0,0-3.47-13.51,31.34,31.34,0,0,0-7.58-11.56Z"/><path class="cls-19" d="M546.09,548.32a160.62,160.62,0,0,1-24.9,10.13c-4.25,1.42-8.6,2.56-12.94,3.7s-8.78,2-13.21,2.78a139,139,0,0,1-27,2.13c-2.26,0-4.53-.2-6.79-.39s-4.5-.53-6.73-.95a59,59,0,0,1-13-3.87l.09-.29a72.45,72.45,0,0,0,13.05,2.58,98.44,98.44,0,0,0,13.3.56q6.68-.11,13.3-.85c4.42-.48,8.83-1.09,13.2-1.87,8.77-1.48,17.45-3.48,26-5.81s17.08-5,25.41-8.13Z"/><path class="cls-20" d="M213.72,1056.21c-1.13,8.4-2.53,16.47-3.95,23.69h-2c1.27-7.59,2.54-16.13,3.54-25,1.68-15.06,4.24-46.35,4.32-45.46C217,1024,215.8,1040.68,213.72,1056.21Z"/><path class="cls-21" d="M208.13,1011.89c-7.36-21.61-4-73.61-4.17-74.67a.82.82,0,0,1,0-.1c-9.22-22.15,2.5-29.88,23.68-30,29.55-.11,77.5,14.68,112.65,26,.52.16,38.8,12.7,43.17,12.65,0,0,215.08-58.34,209.9-21.37-.47,3.36-1.24,7-1.79,10.85-3.43,24.42-5.54,91.38-5.55,91.52C585.65,1046.39,208.19,1012.08,208.13,1011.89Z"/><g id="HAIR"><path class="cls-13" d="M665.63,627.68a342.8,342.8,0,0,1-31,129c-.33.71-.66,4.43-1,5.14-.14.3-159.32-13.84-151.9-23,11.59-14.36,24.9-29.5,40.14-45.4q12.65-13.2,23.5-26.62,2.07-2.55,4.08-5.11l1.14-1.46A394.52,394.52,0,0,0,612,548a402,402,0,0,0,22.4-135.67l.5.31,21.73,13.28C667.84,497.55,668,572.31,665.63,627.68Z"/><path class="cls-13" d="M657.17,434.84c3.93,26.64,7.22,53.36,10.1,80.14s5.17,53.61,6.77,80.49q1.26,20.17,1.84,40.37c.21,6.73.27,13.47.34,20.21s-.05,13.48-.27,20.21l-.15,5.06-.24,5c-.19,3.36-.28,6.73-.55,10.09l-.74,10.09-1,10.06c-.4,3.35-.89,6.68-1.34,10-.19,1.67-.53,3.33-.81,5l-.87,5c-.27,1.66-.68,3.3-1.05,4.95l-1.12,4.93c-.17.82-.39,1.64-.63,2.44l-.7,2.43-1.39,4.86-.19-.06,1.22-4.89.61-2.45c.21-.81.4-1.63.54-2.46l1-5c.3-1.65.66-3.29.86-5,.47-3.33,1.06-6.63,1.44-10s.77-6.67,1.1-10c1.27-13.37,1.85-26.81,2.09-40.25s.22-26.88-.05-40.32-.75-26.89-1.46-40.33c-1.4-26.87-3.56-53.7-6.17-80.48s-5.63-53.54-9.3-80.21Z"/><path class="cls-22" d="M648.2,428.08s36,222.59,7.66,305.38"/><path class="cls-13" d="M565.5,234.17a1.25,1.25,0,0,1,.78-.82,4,4,0,0,1,1.06-.19,11,11,0,0,1,2.08.16,31.21,31.21,0,0,1,4,1,75.12,75.12,0,0,1,7.68,3,142.84,142.84,0,0,1,14.6,7.54,181.56,181.56,0,0,1,26.67,19.23c8.27,7.22,16.12,15.11,22.29,24.32s11,19.39,13,30.21a.16.16,0,0,1-.12.18.15.15,0,0,1-.17-.1,109.45,109.45,0,0,0-15.12-28.58,164.27,164.27,0,0,0-21.43-24.25,181.1,181.1,0,0,0-25.85-19.73,145.6,145.6,0,0,0-14.2-8,77.31,77.31,0,0,0-7.49-3.2,29.32,29.32,0,0,0-3.89-1.13,10.31,10.31,0,0,0-2-.24c-.63,0-1.38.14-1.55.71h0a.14.14,0,0,1-.18.1A.16.16,0,0,1,565.5,234.17Z"/><path class="cls-13" d="M565.52,234.29a2.89,2.89,0,0,1-.3-.61.71.71,0,0,1,0-.39.52.52,0,0,1,.29-.35,2.47,2.47,0,0,1,1.36.06,16.56,16.56,0,0,1,2.41.9c1.55.7,3,1.51,4.52,2.36,2.93,1.7,5.76,3.57,8.53,5.53a168.63,168.63,0,0,1,15.82,12.78,181.49,181.49,0,0,1,26.81,30.62c7.73,11.18,14.3,23.35,18.38,36.42a115.26,115.26,0,0,1,4.39,20c.42,3.38.69,6.78.83,10.18s.07,6.8-.18,10.18a.15.15,0,0,1-.16.14.15.15,0,0,1-.14-.14c-.21-3.38-.45-6.74-.88-10.08s-.88-6.66-1.54-9.95a143.36,143.36,0,0,0-5.17-19.38,161.35,161.35,0,0,0-17.53-36,179.3,179.3,0,0,0-25.83-30.87,171.41,171.41,0,0,0-15.33-13.15c-2.69-2-5.45-4-8.31-5.74-1.44-.88-2.89-1.73-4.4-2.46a14.84,14.84,0,0,0-2.32-.94,2.14,2.14,0,0,0-1.12-.12c-.25.06,0,.56.16.87a.17.17,0,0,1,0,.21.15.15,0,0,1-.21,0Z"/><path class="cls-13" d="M430.92,214.15a178.28,178.28,0,0,0-27,5.69,201,201,0,0,0-25.94,9.47,174.2,174.2,0,0,0-24.26,13.06,144.11,144.11,0,0,0-21.62,16.94,141.38,141.38,0,0,0-17.85,20.79c-2.46,3.84-5.07,7.6-7.16,11.66-2.37,3.92-4.18,8.12-6.15,12.24-.93,2.08-1.71,4.24-2.57,6.35l-1.26,3.19c-.38,1.08-.69,2.18-1.05,3.27l-2.1,6.54L292.23,330l-.84,3.34c-.32,1.11-.44,2.25-.67,3.38l-1.23,6.79-.32,1.7-.22,1.71-.42,3.43q-.4,3.44-.87,6.87h0a.16.16,0,0,1-.17.13.15.15,0,0,1-.13-.15c.09-2.31.19-4.63.31-6.94l.17-3.47.09-1.74.21-1.73.87-6.91c.17-1.14.24-2.31.5-3.45l.68-3.42c.46-2.27.88-4.57,1.41-6.83l1.89-6.73c.32-1.12.62-2.25,1-3.36l1.21-3.28c.82-2.18,1.57-4.4,2.46-6.56,2-4.23,3.8-8.54,6.18-12.57,2.16-4.15,4.9-7.95,7.46-11.86a144.64,144.64,0,0,1,18.64-20.82,146.32,146.32,0,0,1,22.21-16.84,177.84,177.84,0,0,1,24.71-12.79,202.12,202.12,0,0,1,26.3-9,178.92,178.92,0,0,1,27.26-5.13.16.16,0,0,1,.16.14.15.15,0,0,1-.13.16Z"/><path class="cls-13" d="M646.54,366.75a15.12,15.12,0,0,0-2.71,2.29l-9.54,3.54c-.93-6.94-1.77-11.06-1.93-11.82,0,0,0,0,0-.06a.28.28,0,0,1,0-.06,187.94,187.94,0,0,0-40.72-55.12c-1-.92-2-1.82-3-2.71s-2-1.76-3-2.61q-6.84-5.77-14-10.64c-1-.73-2.11-1.43-3.16-2.13-44.13-29-93.57-33.77-122.64-33.59h-1.48l-2.86.05-2.46.07c-4.92.17-9,.46-12.06.74l-.8.08c-2.06.19-3.59.38-4.53.5l-.32,0-.26,0-.94.11H420l-.33,0a1.31,1.31,0,0,0-.27,0c-169.79,61.59-72.68,268.31-60.16,312.72,4.19,14.87,40.23,145.16,33.58,196.38q-.86,6.68-1.85,13.05c-6.38,41.11-182.76,10.77-182.75,10.74,42.33-90,78.41-131.38,69-212.65,0,0-17.6-103.26,4.93-199.75A322.86,322.86,0,0,1,292,342l.09-.23q1.86-4.95,3.94-9.76c21.88-50.83,60.71-89.63,104.82-108.5l.07,0c20.71-8.85,42.58-13.31,64.4-12.56,67.75,2.32,108.54,20.67,133.06,50.46q5.85,7.68,11.11,16.09C625.64,303.26,637.67,333.87,646.54,366.75Z"/></g><path class="cls-5" d="M832.44,24V1055.9H24V24H832.44m24-24H0V1079.9H856.44V0Z"/><path class="cls-8" d="M331,858.76a99.66,99.66,0,0,1,9.71,6.76q4.66,3.65,9,7.67a134.78,134.78,0,0,1,15.87,17.69c4.72,6.39,9.18,13.14,12,20.65.75,1.85,1.34,3.78,2,5.67l.78,2.89c.13.49.27,1,.39,1.45l.3,1.47a60.77,60.77,0,0,1,1.4,11.85l-.4.06a164.33,164.33,0,0,0-8.13-21.83c-1.58-3.51-3.33-6.94-5.09-10.37a101.37,101.37,0,0,0-5.89-10,139.95,139.95,0,0,0-32.2-33.63Z"/><path class="cls-8" d="M478.69,869.78a140.18,140.18,0,0,0-38.79,25.76A97.41,97.41,0,0,0,432,904c-2.48,3-4.93,5.92-7.24,9A162.8,162.8,0,0,0,412,932.52l-.38-.15a60.42,60.42,0,0,1,4-11.25l.61-1.37c.22-.45.46-.89.69-1.33l1.41-2.65c1-1.71,2-3.46,3.17-5.1,4.43-6.71,10.27-12.31,16.27-17.51a135,135,0,0,1,19.36-13.79c3.42-2,6.93-3.81,10.49-5.5a100.93,100.93,0,0,1,10.95-4.47Z"/><path class="cls-8" d="M193.37,799.38q-15.9,20.86-31.35,42.06T131.42,884c-10,14.31-19.57,28.94-29.35,43.38q-3.64,5.43-7.22,10.9t-7.06,11l-1.73,2.77-1.69,2.79-1.7,2.79L81,960.48c-2.26,3.74-4.21,7.62-6.16,11.54l-.38-.15a155.36,155.36,0,0,1,10.86-24c4.17-7.73,8.7-15.25,13.36-22.67,2.37-3.69,4.73-7.38,7.2-11s5-7.21,7.47-10.81q7.67-10.67,15.43-21.25,15.56-21.17,31.61-41.92t32.63-41.1Z"/><path class="cls-3" d="M518.81,745.62a171.94,171.94,0,0,0-18.91,13.2c-1.5,1.21-3,2.38-4.49,3.62L491,766.17,486.77,770c-1.43,1.27-2.75,2.66-4.13,4l-2.05,2-2,2.09c-1.29,1.41-2.61,2.8-3.88,4.23-2.46,2.92-5.11,5.67-7.58,8.58-1.27,1.43-2.59,2.82-3.82,4.28s-2.45,2.93-3.73,4.37-2.49,2.92-3.71,4.42-2.48,3-3.81,4.39l-.34-.21c.82-1.76,1.73-3.48,2.64-5.21l1.41-2.57c.46-.87,1-1.65,1.54-2.48,1-1.65,2.15-3.26,3.23-4.89s2.35-3.11,3.52-4.67a96.33,96.33,0,0,1,7.78-8.74c1.4-1.36,2.84-2.67,4.26-4l2.12-2,2.2-1.92c1.47-1.27,2.88-2.61,4.4-3.82l4.51-3.7,4.63-3.54c1.55-1.17,3.15-2.28,4.72-3.41a159,159,0,0,1,19.92-12Z"/></g></svg>
