<svg xmlns="http://www.w3.org/2000/svg" xmlns:xlink="http://www.w3.org/1999/xlink" width="856.44" height="1079.9" viewBox="0 0 856.44 1079.9"><defs><style>.cls-1{fill:url(#radial-gradient);}.cls-2{fill:#e9ffee;}.cls-3{fill:#e8cfb8;}.cls-4{fill:#ffe2ca;}.cls-10,.cls-11,.cls-15,.cls-30,.cls-5{fill:none;}.cls-15,.cls-5{stroke:#3d3d3d;}.cls-10,.cls-5,.cls-7{stroke-linecap:round;}.cls-5{stroke-linejoin:bevel;stroke-width:4px;}.cls-6{fill:#fff;}.cls-7{fill:#f3d7c0;stroke:#f3d7c0;stroke-width:0.75px;}.cls-10,.cls-11,.cls-13,.cls-15,.cls-30,.cls-7{stroke-miterlimit:10;}.cls-8{fill:#dcc3ae;}.cls-9{fill:#fceee3;}.cls-10{stroke:#dcc3ae;}.cls-10,.cls-11,.cls-15{stroke-width:3px;}.cls-11,.cls-13{stroke:#000;}.cls-12,.cls-13{fill:#ff876a;}.cls-14{fill:#3d3d3d;}.cls-16{fill:#352b19;}.cls-17{fill:#666;}.cls-18{fill:#ffece9;}.cls-19{fill:#d3a879;}.cls-20{fill:url(#radial-gradient-2);}.cls-21{fill:url(#radial-gradient-3);}.cls-22{fill:url(#radial-gradient-4);}.cls-23{fill:url(#radial-gradient-5);}.cls-24{fill:#ffd550;}.cls-25{fill:#382e26;}.cls-26{fill:#ff8969;}.cls-27{fill:#c30900;}.cls-28{fill:#ffd8bd;}.cls-29{fill:#381e17;}.cls-30{stroke:#381e17;}</style><radialGradient id="radial-gradient" cx="372.63" cy="509.17" fx="65.75814802702018" fy="478.9034285902972" r="509.63" gradientTransform="translate(749.98 121.7) rotate(87.79) scale(1 0.77)" gradientUnits="userSpaceOnUse"><stop offset="0" stop-color="#fff"/><stop offset="0.99" stop-color="#fff38a"/></radialGradient><radialGradient id="radial-gradient-2" cx="364.36" cy="454.08" r="33.51" gradientUnits="userSpaceOnUse"><stop offset="0" stop-color="#ffcfca"/><stop offset="1" stop-color="#ffe2ca" stop-opacity="0.3"/></radialGradient><radialGradient id="radial-gradient-3" cx="581.06" cy="460.08" r="33.51" xlink:href="#radial-gradient-2"/><radialGradient id="radial-gradient-4" cx="-178.11" cy="704.68" r="6.05" gradientTransform="matrix(0, 0.78, -4.93, 0, 3832.52, 521.39)" gradientUnits="userSpaceOnUse"><stop offset="0" stop-color="#fff"/><stop offset="1" stop-color="#ffe2ca" stop-opacity="0.3"/></radialGradient><radialGradient id="radial-gradient-5" cx="-1876.82" cy="634.12" r="6.05" gradientTransform="matrix(0, 0.49, -6.75, 0, 4643.04, 1312.89)" xlink:href="#radial-gradient-4"/></defs><title>girl5</title><g id="The_girl" data-name="The girl"><rect class="cls-1" x="0.5" y="0.5" width="855.44" height="1078.9"/><path class="cls-2" d="M855.44,1V1078.9H1V1H855.44m1-1H0V1079.9H856.44V0Z"/><path class="cls-3" d="M561.78,583.92l-11.15,50.33-1.14,1.46q-2,2.56-4.08,5.11-10.87,13.41-23.5,26.62c-15.24,15.9-10.74,9.93-22.33,24.29L387.84,608.37l8.94-39.56c2.14,1.31,8.32,14.64,10.55,15.83,14.63,7.78,58.23,38.37,70.05,35.54,27.6-6.61,52-14.53,72.75-28C554.15,589.54,558,586.81,561.78,583.92Z"/><path class="cls-4" d="M635,406.5c0,46.05-7.92,84.33-23,115.48a170,170,0,0,1-50.23,61.94c-3.75,2.89-53,49.78-84.4,38.26-110-40.37-132.33-104.35-132.48-104.78-27.06-77.08-29.27-91.33-29.59-137.1a.14.14,0,0,1,0-.09,1.5,1.5,0,0,1,0-.3,2.28,2.28,0,0,1,0-.37c-.65-138.49,92.62-151.66,104.12-153l.27,0,.33,0h.11l.94-.11.26,0h.13l.19,0c.94-.12,2.47-.31,4.53-.5l.8-.08c3.06-.28,7.14-.57,12.06-.74l2.46-.07,2.86-.05h1.48c29.07-.18,78.51,4.61,122.64,33.59,1,.7,2.11,1.41,3.16,2.13q7.1,4.88,14,10.64,1.53,1.29,3,2.61c1,.89,2,1.79,3,2.71a187.94,187.94,0,0,1,40.72,55.12.28.28,0,0,0,0,.06s0,0,0,.06c.17,1.83.34,3.66.49,5.51v0c.18,2.2.35,4.4.51,6.62.95,13.67,1.38,27.94,1.55,42.69Q635,396.42,635,406.5Z"/><path class="cls-5" d="M492.28,358.07l122.29-1.9s9.66,61.85-52.82,76.12S484,392.33,492.28,358.07Z"/><path class="cls-5" d="M337.27,364.57,464.78,360s26.79,61.64-43.57,75.86S344.41,401.66,337.27,364.57Z"/><path d="M590.5,366.5s-77,31-80,40c0,0,75-29,76-28s3.27,9.52,1.27,10.52S600.5,374.5,590.5,366.5Z"/><path class="cls-6" d="M564.84,388.52l-.37-.19h0Z"/><path class="cls-6" d="M568.62,393H560l3.57-7A10.91,10.91,0,0,1,565,387,11.94,11.94,0,0,1,568.62,393Z"/><path d="M565.65,389a.16.16,0,0,0-.08-.06l0,0Z"/><path d="M569,396c0,.21,0,.41,0,.62a3.25,3.25,0,0,1,0,.44,4.52,4.52,0,0,1-.06.53c0,.18-.23,1.26-.27,1.41s-.08.31-.13.46a11.93,11.93,0,0,1-1.19,2.71l-.22.35c-.13.2-.26.39-.4.58s-.22.3-.34.44a12.21,12.21,0,0,1-2,1.92l-.36.27c-.21.15-.41.29-.62.42l-.45.27a11.92,11.92,0,0,1-6,1.58l-.62,0a3.25,3.25,0,0,1-.44,0,4.52,4.52,0,0,1-.53-.06l-.53-.08-.43-.08-.45-.11-.46-.13a11.93,11.93,0,0,1-2.71-1.19l-.35-.22-.58-.4c-.15-.11-.3-.22-.44-.34a12.21,12.21,0,0,1-1.92-1.95l-.27-.36c-.15-.21-.29-.41-.42-.62s-.19-.3-.27-.45a11.92,11.92,0,0,1-1.58-6c0-.21,0-.41,0-.62a3.25,3.25,0,0,1,0-.44,4.52,4.52,0,0,1,.06-.53c0-.18,0-.36.08-.53s0-.29.08-.43.07-.3.11-.45.08-.31.13-.46a11.93,11.93,0,0,1,1.19-2.71c.07-.11.14-.23.23-.35s.25-.39.39-.58.22-.3.34-.44a13.72,13.72,0,0,1,1.1-1.19l.46-.41.14-.12c.21-.17.43-.34.65-.49a10.92,10.92,0,0,1,1.45-.9l0,0a13.25,13.25,0,0,1,1.56-.66c.26-.09.54-.18.81-.25A11.54,11.54,0,0,1,557,384a11.85,11.85,0,0,1,5.47,1.33l.37.19c.25.14.49.28.73.44L560,393h8.62a.36.36,0,0,1,0,.1c.06.21.1.42.14.63s.09.49.12.74,0,.34.06.52,0,.26,0,.39S569,395.79,569,396Z"/><line class="cls-5" x1="492.28" y1="358.07" x2="465.34" y2="359.77"/><path d="M475.09,484c-4.27,0-12.93-5.16-12.15-4.9,20,6.67,41.65-6.69,41.87-6.82C505.51,471.87,491.56,484,475.09,484Z"/><path class="cls-7" d="M538.27,526.08s-38.8-5.27-40.62-1.07c-2.75,6.34-7,5.47-9.57,6.46-3,1.16-12.28-4.87-12.28-4.87l-30.46,19.33c24.07,7.76,66-5.28,92.93-19.85,14.72-8,25.8-12.66,25.8-12.66"/><path class="cls-8" d="M525.78,549.73a38,38,0,0,1-10.47,12A46.06,46.06,0,0,1,501,569.3c-1.31.4-2.64.75-4,1.05s-2.71.53-4.09.64a34.32,34.32,0,0,1-8.29,0,28.86,28.86,0,0,1-14.94-6.16l-.06,0a.26.26,0,0,1,0-.35.25.25,0,0,1,.27-.07,44,44,0,0,0,7.29,1.94,40.24,40.24,0,0,0,7.5.68c1.26,0,2.51-.07,3.77-.13s2.5-.25,3.73-.49a48.25,48.25,0,0,0,7.32-1.79,63.9,63.9,0,0,0,13.75-6.2q3.25-1.94,6.31-4.19a62.49,62.49,0,0,0,5.88-4.77.24.24,0,0,1,.34,0,.24.24,0,0,1,0,.28Z"/><path class="cls-9" d="M489.87,588.82a15.07,15.07,0,0,1,5.19-6.93A21.32,21.32,0,0,1,502.9,578a23.79,23.79,0,0,1,4.34-.7c.73,0,1.46-.07,2.18-.06s1.45.1,2.17.18a23,23,0,0,1,4.21.9,22.76,22.76,0,0,1,3.91,1.82l-.06.29c-1.34-.16-2.67-.38-4-.5l-2-.11-1,0-1,0-2,.07c-.67,0-1.33.16-2,.24l-1,.13c-.33,0-.66.14-1,.21-.66.15-1.32.27-2,.45a29.19,29.19,0,0,0-7.39,3.08,25.4,25.4,0,0,0-6.18,5.07Z"/><path class="cls-8" d="M499.22,444s-17.05-5.07-33.88,0Z"/><path class="cls-8" d="M385.56,413.23s28.52,6.2,45.35,1.12Z"/><path class="cls-10" d="M487.21,381.23c-.39-39.58-6,17.76,9.44,57.21"/><path class="cls-8" d="M455.15,408.86s-38.35-24-90.8-22.36c0,0,7.54-18.37,43.88-20.5C451.58,363.47,455.15,408.86,455.15,408.86Z"/><path d="M452.32,403.5c17,11.83-41.38-13.38-82.47-7.4l-5.5-12.6S420.13,381.08,452.32,403.5Z"/><path class="cls-8" d="M590.5,366.5c3.49-1.35-17.76-11.7-52.86-3-21.51,5.31-28.89,39.42-27.14,43C508.34,403.67,552.77,381.13,590.5,366.5Z"/><path class="cls-11" d="M634.29,343.58c.52,3.88,1.07,8.64,1.55,14.18"/><line class="cls-11" x1="142.76" y1="945.8" x2="142.75" y2="945.81"/><path class="cls-4" d="M300.63,547.81s-.17,3.22-.33,6.23c-.15,2.61-.28,5.07-.28,5.08-.21,5-.71,10.76-1.46,17.31-8.7,75.86-51.1,250.51-70.93,330.73-2.53,10.2-4.69,18.88-6.36,25.62-.38,1.51-.73,2.93-1.05,4.24s-.63,2.54-.91,3.65c-1.24,5-1.93,7.88-1.95,8.14a78.08,78.08,0,0,1-6.66,8.88c-.65.77-1.32,1.54-2,2.31s-1.39,1.54-2.12,2.31l-.31.32a3.5,3.5,0,0,1-.27.28c-28.42,29.76-82.23,60.83-72.43,59.13,7.67-1.34,44.5,14.89,73.66,30.59l.55.3,3.6,2,2.37,1.32,2.73,1.54,1.4.8h0c16.2,9.3,27.84,17.56,26.61,20.7a4.11,4.11,0,0,0-.19.65H71s-59-12-7.8-78.12C75.85,985.44,86.3,976.11,97,962.11c39.55-51.94,91.35-119.41,132.29-199.66l0,0c1.86-3.65,3.71-7.35,5.54-11l0,0q6.16-12.57,11.92-25.54a.42.42,0,0,1,0-.1,629.2,629.2,0,0,0,29-78.78,542.91,542.91,0,0,0,13.39-57.2q1-5.64,1.88-11.34C291.21,577,296.27,565.12,300.63,547.81Z"/><path class="cls-11" d="M635.84,357.76c.67,7.8,1.2,17.15,1.3,27.8A57,57,0,0,1,634.8,369,60.33,60.33,0,0,1,635.84,357.76Z"/><path class="cls-11" d="M646.85,338.91l-3,1.13a15.12,15.12,0,0,1,2.71-2.29C646.65,338.14,646.76,338.52,646.85,338.91Z"/><path class="cls-12" d="M419.43,226.56c-15.22,1.87-172.41,28.81-66.19,336C243.89,251.09,404.12,228.31,419.43,226.56Z"/><path class="cls-13" d="M420,226.49h.11l-.44.05Z"/><path class="cls-13" d="M420.14,226.48l.94-.11-.48.07Z"/><path class="cls-14" d="M634.29,343.58h0Zm0,0-.54.35-19.33,10.89,1.79,2.11,17.53-7.05.55-6.3Z"/><polygon class="cls-15" points="337.27 364.57 312.44 347.05 311.74 352.05 337.27 364.57"/><path class="cls-16" d="M458.72,337a9.15,9.15,0,0,0-5.46-10,112.81,112.81,0,0,0-52.39-8.26c-34.19,2.86-68.6,21.3-68.6,21.3s48-16.85,66-11.12A99.25,99.25,0,0,0,409,331.64c14.7,2.94,44.29,9.16,46.3,11.94C456.83,345.63,458,341.28,458.72,337Z"/><path class="cls-16" d="M494.29,330.44l.29,5.61a6.12,6.12,0,0,0,8.17,5.45c18-6.45,63.06-21.11,85.06-15.34,27.28,7.16-25.59-24.16-89.43-1.82A6.14,6.14,0,0,0,494.29,330.44Z"/><ellipse class="cls-17" cx="490.99" cy="400.82" rx="3.83" ry="9.45" transform="translate(-80.73 127.22) rotate(-13.65)"/><ellipse class="cls-17" cx="470.49" cy="402.71" rx="10.89" ry="3.57" transform="translate(-44.62 746.5) rotate(-74.28)"/><path class="cls-11" d="M526.84,834.17a29.92,29.92,0,0,0-6.49,6C522.21,836.78,524.36,834.56,526.84,834.17Z"/><path class="cls-18" d="M371.26,684l-1.75,7.67c0-1,0-1.95,0-2.92C370.08,687.14,370.67,685.55,371.26,684Z"/><path class="cls-4" d="M856.44,803.8v276.1H811.11c-46.45-59.42-120.81-150.52-157.85-186.4-3.82-3.7-36.37-26.24-38.84-28.61-6.43-6.14-11.69,3.64-15.89,22.57v0c-1,4.57-2,9.67-2.85,15.22-1.56,9.69-2.93,20.71-4.12,32.58-2.81,27.92-4.62,60.47-5.54,91.09,0,.15,0,.29,0,.43-.56,19-.78,37.2-.69,53.1H206c.75-7.94,1.37-16.9,1.78-27,.47-11.88.65-25.31.39-40.42,0-.21,0-.42,0-.62q-.19-10.71-.69-22.57v0q-.51-11.92-1.38-25l-.09-1.35q-.83-12.3-2-25.69a.82.82,0,0,1,0-.1c0-.54,1.8-1.14,3.41-1.74l.53-.2a5.32,5.32,0,0,0,1.65-.85,1.4,1.4,0,0,1,.81-.41q5.49-.72,10.92-1.14c53-4.23,99.67,11.05,105,12.86a1.35,1.35,0,0,0,1,0c4.88-2.17,9.22-6.44,13.07-12.45,9.11-14.17,15.5-38,19.94-66.58q1-6.37,1.85-13.05c5.44-41.88,7.25-91.7,7.48-136.06,0,0,0,0,0,0s0,0,0,0,0,0,0,0c0-3.24-1.59-30.54-1.6-33.42a39.5,39.5,0,0,1,1.23-6.23v0c4-16.12,16.27-56.65,18.36-67.19a1.34,1.34,0,0,1,2-.85l.07,0L498.55,691a1.35,1.35,0,0,0,1.78-.16l0,0,0,0,1-1.17.45-.55.42-.53.63-.78.54-.65.36-.44.89-1.08.31-.38a.43.43,0,0,0,.09-.1l.43-.51.07-.09c.06-.06.11-.13.17-.2l.16-.19,1.43-1.65.63-.7h0l.41-.43.22-.24.37-.39.2-.21.21-.21.2-.21.21-.21.42-.42.44-.44.46-.46.4-.4,1.21-1.2.6-.6,0,0,.33-.33.35-.35.38-.38.52-.53.42-.42.43-.43c1.17-1.19,2.55-2.6,4.2-4.31l2-2q12.65-13.2,23.5-26.62c.55-.68,1.1-1.35,1.64-2a1.34,1.34,0,0,1,2.38.87l0,1.16-.33.4q-10.73,13.21-23.17,26.22c-15.47,16.14-28.95,31.5-40.67,46q-10.82,13.43-19.7,25.92c-15.62,21.9-27.08,41.7-35.43,59.34a261.51,261.51,0,0,0-11.95,29.6,198.05,198.05,0,0,0-5.68,20.58c-6.82,31.36-1.93,49.5-.59,53.6a1.34,1.34,0,0,0,1.23.93c1.46,0,4.64.15,9.21.27l1.33,0,.8,0,2,0,1,0c14.21.33,37.13.64,63.4.22l.06-.06,1.26-1.16a105.49,105.49,0,0,1,12.6-41.21,0,0,0,0,1,0,0,102.9,102.9,0,0,1,6.92-10.78c1.1-1.5,2.18-2.89,3.19-4.15a1.34,1.34,0,0,1,2.33,1.23c-5.86,18.92-6.81,51.31-7.05,55.74v.1c5.16-.12,10.3-.27,15.34-.46h.31l.35,0c.25,0,.49,0,.73,0,.88,0,1.75-.06,2.62-.09,2.6-.11,5.16-.22,7.69-.35l1.29-.07-6,.25,7.94-.38v0c.74,0,1.47-.07,2.21-.13l-2.21.1,0-.2c4.89-45.9,22.16-75.36,31.8-87.23l.58-.71h0c.11-.13.21-.26.32-.38-.33.59-.63,1.21-.94,1.85,0,0,0,0,0,0l-.06.12a53.7,53.7,0,0,0-2.17,5.4.38.38,0,0,0,0,.1c-8.84,25.75-8.61,74.26-8.56,79.15,0,.26,0,.4,0,.4,19.11-1.83,28.47-4.7,29.37-9.09.94-4.56-.27-20.2,2.73-36.69,2.63-14.46,8.52-29.6,14.2-48.43a.74.74,0,0,1,0-.14c.79-2.58,1.56-5.25,2.33-8,1.64-5.88,3.34-11.88,5.16-18h0a372.5,372.5,0,0,1,17.39-47.93,7.36,7.36,0,0,0,.59.91C646.35,750.87,773.64,783.86,856.44,803.8Z"/><path class="cls-9" d="M211.15,971.5c0,19.63,5.67,35.54,4,35.54s-9.93-15.91-9.93-35.54S223.38,936,225,936,211.15,951.88,211.15,971.5Z"/><path class="cls-4" d="M665.6,369c0,11.67-3.18,21.92-8,27.81a18.34,18.34,0,0,1-2.24,2.32,11,11,0,0,1-7.17,2.93,9.93,9.93,0,0,1-4.49-1.11c-4.51-2.28-8.29-7.91-10.57-15.41-.1-10.65-.63-20-1.3-27.8,1.44-7.58,4.31-13.88,8-17.72l3-1.13c-.09-.39-.2-.77-.31-1.16A10.26,10.26,0,0,1,648.2,336C657.81,336,665.6,350.77,665.6,369Z"/><path class="cls-8" d="M660.85,370.26c0,9.19-3.51,17.1-8.55,20.66a10.37,10.37,0,0,1-6,2c-5.38,0-10.08-4.55-12.58-11.33-.09-7.31-.53-13.72-1.09-19.07,1.2-5.2,3.6-9.52,6.68-12.15,0,0,2.35-1.3,2.26-1.57a9.9,9.9,0,0,1,4.73-1.23C654.34,347.58,660.85,357.74,660.85,370.26Z"/><path class="cls-4" d="M648.25,372.25c0,5.09-1.94,9.47-4.73,11.44a5.78,5.78,0,0,1-3.32,1.11c-3,0-5.58-2.52-7-6.27-.05-4-.29-7.59-.6-10.55a12.56,12.56,0,0,1,3.7-6.73l1.39-.43c0-.15-.09-.29-.14-.44a5.5,5.5,0,0,1,2.62-.68C644.64,359.7,648.25,365.32,648.25,372.25Z"/><circle class="cls-19" cx="493.66" cy="971.95" r="9.18"/><circle class="cls-19" cx="263.1" cy="968.5" r="11.1"/><polygon class="cls-18" points="369.51 691.65 369.51 691.73 369.49 691.73 369.51 691.65"/><circle class="cls-20" cx="364.36" cy="454.08" r="33.51"/><circle class="cls-21" cx="581.06" cy="460.08" r="33.51"/><ellipse class="cls-9" cx="382.26" cy="647.13" rx="31.79" ry="2.37" transform="translate(-351.1 811.7) rotate(-72.08)"/><path class="cls-8" d="M562.1,969.7a102,102,0,0,1-6.58,17.47,113.66,113.66,0,0,1-9.44,16.24,92.66,92.66,0,0,1-12.33,14.4,75.16,75.16,0,0,1-15.47,11.25,41.43,41.43,0,0,1-4.35,2.1l-2.23.94-1.11.46-1.15.38c-1.54.48-3.06,1-4.62,1.44s-3.15.7-4.73,1a65.19,65.19,0,0,1-19.17.16,84.2,84.2,0,0,1-34.51-14.35l.15-.26c10.69,6.13,22.4,10.7,34.63,12.27a66.18,66.18,0,0,0,18.38-.6,59.7,59.7,0,0,0,17.29-6.2c10.88-5.8,20-14.57,27.33-24.42a128.06,128.06,0,0,0,9.93-15.59,125.58,125.58,0,0,0,7.7-16.81Z"/><path class="cls-9" d="M856.44,821.21v5.07c-22.66-8.1-49.7-16.46-76.15-21.3-82.78-15.16-138.53-44.34-137.83-44.82s17.73,15.24,140.38,41.1A698.42,698.42,0,0,1,856.44,821.21Z"/><path class="cls-9" d="M220.08,1079.9H218c-.78-8.92-1.33-16.88-1.56-22.15-.19-4.09-.18-6.55.07-6.57s.75,2.79,1.33,7.37h0C218.53,1063.8,219.33,1071.42,220.08,1079.9Z"/><path class="cls-9" d="M573.93,1079.9c-2.49-22.73-5.11-58-2.62-86.28,4-45.66,7.74-82.63,8.32-82.63s-2.22,37.12-6.24,82.81c-2.49,28.26-.24,63.42,1.7,86.1Z"/><ellipse class="cls-22" cx="355.02" cy="382.62" rx="17.71" ry="4.71" transform="translate(-125.86 585.58) rotate(-70.03)"/><ellipse class="cls-23" cx="361.5" cy="388.44" rx="24.23" ry="2.98" transform="translate(-127.06 595.5) rotate(-70.03)"/><path class="cls-24" d="M656.68,396.72a33,33,0,0,1,4.8,5.2,33.32,33.32,0,0,1,3.48,6.23,75.06,75.06,0,0,1,4.09,13.59c1.87,9.25,3,18.56,4.15,27.84a136,136,0,0,1,1.12,14.16,92.44,92.44,0,0,1-.64,14.36,46,46,0,0,1-1.51,7.23,27.42,27.42,0,0,1-3.12,7.07,16.4,16.4,0,0,1-2.63,3.19,13,13,0,0,1-3.58,2.44,13.57,13.57,0,0,1-4.2,1.17,19.12,19.12,0,0,1-4.09-.08,20.64,20.64,0,0,1-7.6-2.5,23.36,23.36,0,0,1-6.06-5,33.39,33.39,0,0,1-6.71-13.42,51.65,51.65,0,0,1-1.35-7.21,65.21,65.21,0,0,1-.3-7.25c0-4.73.17-9.4.41-14.1a207.62,207.62,0,0,1,3.11-28,115.21,115.21,0,0,1,3.37-13.71c1.43-4.47,3.27-8.94,6.28-12.6l.23.19c-2.79,3.72-4.39,8.19-5.69,12.64a115.87,115.87,0,0,0-2.89,13.68,234.26,234.26,0,0,0-2.41,27.87c-.14,4.67-.19,9.34-.12,14a54.15,54.15,0,0,0,1.92,13.77,31.56,31.56,0,0,0,6.32,12.25,20.27,20.27,0,0,0,5.32,4.35,17.56,17.56,0,0,0,10,2.16,10.36,10.36,0,0,0,6.08-2.79,13.44,13.44,0,0,0,2.18-2.63,24.36,24.36,0,0,0,2.82-6.31,47.16,47.16,0,0,0,1.47-6.79,91.41,91.41,0,0,0,.82-13.93c-.05-4.67-.35-9.32-.78-14-.93-9.28-1.83-18.59-3.4-27.79a73.82,73.82,0,0,0-3.47-13.51,31.34,31.34,0,0,0-7.58-11.56Z"/><path class="cls-9" d="M552.06,948.22c0,19.63-5.66,35.54-4,35.54S558,967.85,558,948.22s-18.12-35.54-19.75-35.54S552.06,928.6,552.06,948.22Z"/><path class="cls-12" d="M619.7,768.18c-3.64,10-6.74,20.24-9.53,30.53s-5.18,20.7-7.11,31.18A301.66,301.66,0,0,0,599,861.58c-.38,5.3-.6,10.63-.59,15.95s.27,10.65.8,16h-.1a139.51,139.51,0,0,1-1.4-16c-.15-5.34,0-10.69.29-16s.94-10.66,1.63-16,1.64-10.56,2.64-15.81q3.06-15.72,7.42-31.16c2.92-10.27,6.15-20.45,9.92-30.44Z"/><path class="cls-12" d="M575.24,809.28a248.7,248.7,0,0,0-15.33,46.2c-.84,4-1.61,7.95-2.19,12s-1.09,8-1.35,12.07a120.14,120.14,0,0,0-.32,12.15,100.55,100.55,0,0,0,1.11,12.11l-.09,0a79.4,79.4,0,0,1-1.71-12.1,108.65,108.65,0,0,1,0-12.24c.27-4.08.77-8.13,1.38-12.17s1.47-8,2.38-12A229.62,229.62,0,0,1,566,831.85a234.55,234.55,0,0,1,9.18-22.61Z"/><path class="cls-25" d="M567.08,510.94a201,201,0,0,1-27.66,16.95c-4.79,2.52-9.73,4.76-14.69,7s-10.07,4.08-15.19,5.9-10.38,3.29-15.67,4.61a132.81,132.81,0,0,1-16.12,2.93c-2.71.34-5.44.55-8.17.68s-5.48.12-8.21-.07a63.17,63.17,0,0,1-16.07-2.84l.07-.29a74,74,0,0,0,16,1.55,102.74,102.74,0,0,0,16-1.36,181.23,181.23,0,0,0,31.16-8.05,294.9,294.9,0,0,0,29.85-12.17c9.73-4.59,19.28-9.55,28.51-15.07Z"/><path class="cls-26" d="M573.93,1079.9H205c1-9.14,1.67-18.28,2.16-27.27.76-13.92,1-27.48.94-40.12,0-.21,0-.42,0-.62,0-7.58-.21-14.81-.45-21.6-.35-10.14-.86-19.27-1.39-27,0-.23,0-.46,0-.68-1.05-14.89-2.15-24.35-2.28-25.41a.82.82,0,0,1,0-.1c-9.22-22.15,2.5-29.88,23.68-30,29.55-.11,77.5,14.68,112.65,26l1.54.49c21.07,6.79,37.26,12.21,41.63,12.16L538.15,913l.6-.13,43-9.11c5.17,0,12.71-9.59,13.94-1.09.5,3.51-.07,10.1-2.33,21.73-.65,3.33-1.24,7-1.79,10.85-3.43,24.42-4.94,59-5.54,91.09,0,.15,0,.29,0,.43-.36,19.59-.38,38.25-.29,53.1Z"/><path class="cls-27" d="M225.43,1011c-.29.37.13,1,.48,1.49a10.3,10.3,0,0,0,1.28,1.37,26.19,26.19,0,0,0,2.95,2.4,53.59,53.59,0,0,0,6.54,4,83.93,83.93,0,0,0,14.1,5.71,103.11,103.11,0,0,0,14.82,3.35,111.1,111.1,0,0,0,15.14,1.28A125.27,125.27,0,0,0,296,1030c5.08-.42,10.13-1.18,15.18-2.08a267,267,0,0,0,30-7.62l.12.28a173.43,173.43,0,0,1-29.65,9.64,129.75,129.75,0,0,1-31,3.29,100.1,100.1,0,0,1-30.67-5.38,76.07,76.07,0,0,1-14.14-6.59,50.81,50.81,0,0,1-6.38-4.53,26.79,26.79,0,0,1-2.82-2.72,10.83,10.83,0,0,1-1.18-1.58,4.22,4.22,0,0,1-.43-.91,1,1,0,0,1,.21-1.07Z"/><path class="cls-27" d="M426.72,1017.05c-.3.36.13,1,.47,1.48a11.08,11.08,0,0,0,1.28,1.38,26.42,26.42,0,0,0,3,2.39,53,53,0,0,0,6.53,4,84.07,84.07,0,0,0,14.11,5.72,104.31,104.31,0,0,0,14.81,3.34,109.68,109.68,0,0,0,15.15,1.28,125,125,0,0,0,15.23-.52c5.08-.41,10.14-1.18,15.19-2.07a269.26,269.26,0,0,0,30-7.63l.11.28A173.07,173.07,0,0,1,513,1036.3a130.38,130.38,0,0,1-31,3.29,100.05,100.05,0,0,1-30.67-5.39,75.22,75.22,0,0,1-14.15-6.59,51.68,51.68,0,0,1-6.37-4.52,26.92,26.92,0,0,1-2.82-2.73,11.37,11.37,0,0,1-1.19-1.57,4.83,4.83,0,0,1-.43-.92,1,1,0,0,1,.21-1.07Z"/><path class="cls-28" d="M213.72,1056.21c-1.13,8.4-2.53,16.47-3.95,23.69h-2c1.27-7.59,2.54-16.13,3.54-25,1.68-15.06,2.57-31.1,1.33-45.19-.21-2.42-.42-4.8-.62-7.16-1.4-16.21-2.57-30.93-3.39-42.54-.07-1.07-.15-2.1-.22-3.11-.63-9.22-1-16.15-1.09-19.85,0-.66,0-1.21,0-1.66,0-.89.07-1.35.16-1.36s.21.4.37,1.16c.09.47.2,1.09.32,1.84.5,3.19,1.19,8.78,2,16.18.16,1.43.32,2.93.48,4.49.28,2.57.57,5.32.86,8.22,1.11,10.86,2.35,23.85,3.61,37.91l.27,2.94h0c.07.88.15,1.77.23,2.66C217,1024,215.8,1040.68,213.72,1056.21Z"/><g id="HAIR"><path class="cls-29" d="M665.63,601.68a342.8,342.8,0,0,1-31,129c-.33.71-.66,1.43-1,2.14-.14.3-.27.61-.41.91a460.53,460.53,0,0,0-23.14,65c-6.34,22.71-10.7,43.75-13.7,60.24s-4.66,28.45-5.6,33c-.84,4.08-12.42,6.84-29.38,8.69l-4,.4s2.9-60.32,14.75-85.05c.33-.69.66-1.36,1-2-.3.35-.6.72-.91,1.1-9.41,11.87-22.86,41-27.72,87l-2.24.15-1.84.11-.85,0-3.18.18-3.23.17c-2.53.13-5.09.24-7.69.35l-4,.15c-3.73.14-7.52.26-11.34.36l-4,.1c.23-4.21-.79-35.27,5.53-52.92a34,34,0,0,1,2.17-4.93,51.58,51.58,0,0,0-9.09,15.71,0,0,0,0,0,0,0c-3.48,9.07-6.45,22.15-8.29,42.29l-4.42.07c-25.21.35-49.67.09-65.6-.17l-2,0-.8,0-1.33,0c-8.81-.16-14.12-.31-14.12-.31s-7.54-18.57.27-54.49a198.05,198.05,0,0,1,5.68-20.58,261.51,261.51,0,0,1,11.95-29.6c8.35-17.64,19.81-37.44,35.43-59.34q9.13-12.81,20.23-26.57c11.59-14.36,24.9-29.5,40.14-45.4q12.65-13.2,23.5-26.62,2.07-2.55,4.08-5.11l1.14-1.46A394.52,394.52,0,0,0,612,522a402,402,0,0,0,22.4-135.67l.5.31,21.73,13.28C667.84,471.55,668,546.31,665.63,601.68Z"/><path class="cls-29" d="M657.17,408.84c3.93,26.64,7.22,53.36,10.1,80.14s5.17,53.61,6.77,80.49q1.26,20.17,1.84,40.37c.21,6.73.27,13.47.34,20.21s-.05,13.48-.27,20.21l-.15,5.06-.24,5c-.19,3.36-.28,6.73-.55,10.09l-.74,10.09-1,10.06c-.4,3.35-.89,6.68-1.34,10-.19,1.67-.53,3.33-.81,5l-.87,5c-.27,1.66-.68,3.3-1.05,4.95l-1.12,4.93c-.17.82-.39,1.64-.63,2.44l-.7,2.43-1.39,4.86-.19-.06,1.22-4.89.61-2.45c.21-.81.4-1.63.54-2.46l1-5c.3-1.65.66-3.29.86-5,.47-3.33,1.06-6.63,1.44-10s.77-6.67,1.1-10c1.27-13.37,1.85-26.81,2.09-40.25s.22-26.88-.05-40.32-.75-26.89-1.46-40.33c-1.4-26.87-3.56-53.7-6.17-80.48s-5.63-53.54-9.3-80.21Z"/><path class="cls-29" d="M301.68,549.57C294,575.38,285.78,601,277.14,626.5s-17.8,50.82-27.63,75.88q-7.32,18.82-15.27,37.39c-2.63,6.2-5.41,12.33-8.16,18.47s-5.64,12.23-8.63,18.26c-6,12.07-12.23,24-19.15,35.57s-14.45,22.8-23.38,32.89l-.08-.07L178,841l1.59-2c.54-.65,1-1.31,1.53-2l3-4.09c1-1.37,2-2.71,2.89-4.13,1.83-2.82,3.76-5.57,5.52-8.44s3.53-5.72,5.23-8.62c6.81-11.59,12.94-23.58,18.81-35.67,3-6,5.78-12.15,8.63-18.24s5.52-12.26,8.15-18.45q8.05-18.51,15.44-37.29c9.91-25,19.11-50.31,27.9-75.75s17.14-51,24.91-76.8Z"/><path class="cls-29" d="M300.68,569.54c-7.64,25.81-15.9,51.43-24.54,76.93s-17.8,50.81-27.63,75.88q-7.32,18.81-15.27,37.39c-2.63,6.19-5.41,12.32-8.16,18.47s-5.64,12.23-8.63,18.26c-6,12.06-12.23,24-19.15,35.57s-14.45,22.79-23.38,32.89l-.08-.07,3.18-3.92,1.59-2c.54-.64,1-1.31,1.53-2l3-4.09c1-1.36,2-2.7,2.89-4.12,1.83-2.82,3.76-5.58,5.52-8.44s3.53-5.73,5.23-8.62c6.81-11.6,12.94-23.58,18.81-35.68,3-6,5.78-12.14,8.63-18.23s5.52-12.27,8.15-18.46q8.05-18.5,15.44-37.29c9.91-25,19.11-50.31,27.9-75.74s17.14-51,24.91-76.8Z"/><path class="cls-30" d="M275.63,625.52S209.07,852.58,148.88,920.89"/><path class="cls-30" d="M648.2,402.08s36,222.59,7.66,305.38"/><path class="cls-29" d="M565.5,208.17a1.25,1.25,0,0,1,.78-.82,4,4,0,0,1,1.06-.19,11,11,0,0,1,2.08.16,31.21,31.21,0,0,1,4,1,75.12,75.12,0,0,1,7.68,3,142.84,142.84,0,0,1,14.6,7.54,181.56,181.56,0,0,1,26.67,19.23c8.27,7.22,16.12,15.11,22.29,24.32s11,19.39,13,30.21a.16.16,0,0,1-.12.18.15.15,0,0,1-.17-.1,109.45,109.45,0,0,0-15.12-28.58,164.27,164.27,0,0,0-21.43-24.25,181.1,181.1,0,0,0-25.85-19.73,145.6,145.6,0,0,0-14.2-8,77.31,77.31,0,0,0-7.49-3.2,29.32,29.32,0,0,0-3.89-1.13,10.31,10.31,0,0,0-2-.24c-.63,0-1.38.14-1.55.71h0a.14.14,0,0,1-.18.1A.16.16,0,0,1,565.5,208.17Z"/><path class="cls-29" d="M565.52,208.29a2.89,2.89,0,0,1-.3-.61.71.71,0,0,1,0-.39.52.52,0,0,1,.29-.35,2.47,2.47,0,0,1,1.36.06,16.56,16.56,0,0,1,2.41.9c1.55.7,3,1.51,4.52,2.36,2.93,1.7,5.76,3.57,8.53,5.53a168.63,168.63,0,0,1,15.82,12.78,181.49,181.49,0,0,1,26.81,30.62c7.73,11.18,14.3,23.35,18.38,36.42a115.26,115.26,0,0,1,4.39,20c.42,3.38.69,6.78.83,10.18s.07,6.8-.18,10.18a.15.15,0,0,1-.16.14.15.15,0,0,1-.14-.14c-.21-3.38-.45-6.74-.88-10.08s-.88-6.66-1.54-9.95a143.36,143.36,0,0,0-5.17-19.38,161.35,161.35,0,0,0-17.53-36,179.3,179.3,0,0,0-25.83-30.87,171.41,171.41,0,0,0-15.33-13.15c-2.69-2-5.45-4-8.31-5.74-1.44-.88-2.89-1.73-4.4-2.46a14.84,14.84,0,0,0-2.32-.94,2.14,2.14,0,0,0-1.12-.12c-.25.06,0,.56.16.87a.17.17,0,0,1,0,.21.15.15,0,0,1-.21,0Z"/><path class="cls-29" d="M430.92,188.15a178.28,178.28,0,0,0-27,5.69,201,201,0,0,0-25.94,9.47,174.2,174.2,0,0,0-24.26,13.06,144.11,144.11,0,0,0-21.62,16.94,141.38,141.38,0,0,0-17.85,20.79c-2.46,3.84-5.07,7.6-7.16,11.66-2.37,3.92-4.18,8.12-6.15,12.24-.93,2.08-1.71,4.24-2.57,6.35l-1.26,3.19c-.38,1.08-.69,2.18-1.05,3.27l-2.1,6.54L292.23,304l-.84,3.34c-.32,1.11-.44,2.25-.67,3.38l-1.23,6.79-.32,1.7-.22,1.71-.42,3.43q-.4,3.44-.87,6.87h0a.16.16,0,0,1-.17.13.15.15,0,0,1-.13-.15c.09-2.31.19-4.63.31-6.94l.17-3.47.09-1.74.21-1.73.87-6.91c.17-1.14.24-2.31.5-3.45l.68-3.42c.46-2.27.88-4.57,1.41-6.83l1.89-6.73c.32-1.12.62-2.25,1-3.36l1.21-3.28c.82-2.18,1.57-4.4,2.46-6.56,2-4.23,3.8-8.54,6.18-12.57,2.16-4.15,4.9-7.95,7.46-11.86a144.64,144.64,0,0,1,18.64-20.82,146.32,146.32,0,0,1,22.21-16.84,177.84,177.84,0,0,1,24.71-12.79,202.12,202.12,0,0,1,26.3-9,178.92,178.92,0,0,1,27.26-5.13.16.16,0,0,1,.16.14.15.15,0,0,1-.13.16Z"/><path class="cls-29" d="M646.54,340.75a15.12,15.12,0,0,0-2.71,2.29l-9.54,3.54c-.93-6.94-1.77-11.06-1.93-11.82,0,0,0,0,0-.06a.28.28,0,0,1,0-.06,187.94,187.94,0,0,0-40.72-55.12c-1-.92-2-1.82-3-2.71s-2-1.76-3-2.61q-6.84-5.77-14-10.64c-1-.73-2.11-1.43-3.16-2.13-44.13-29-93.57-33.77-122.64-33.59h-1.48l-2.86.05-2.46.07c-4.92.17-9,.46-12.06.74l-.8.08c-2.06.19-3.59.38-4.53.5l-.32,0-.26,0-.94.11H420l-.33,0a1.31,1.31,0,0,0-.27,0c-169.79,61.59-72.68,268.31-60.16,312.72,4.19,14.87,9.93,116.82,10.22,149.45.45,50.46-.77,113.57-7.42,164.79q-.85,6.68-1.85,13.05c-6.38,41.11-16.81,72.34-33.5,79.24,0,0-87.7-17.88-148.71-9.69-13.46,1.8-25.62,4.87-35.25,9.68.42-.75,22-39.39,47.79-94.22a.11.11,0,0,0,0,0c42.33-90,96.09-223.47,86.67-304.74,0,0-17.6-103.26,4.93-199.75A322.86,322.86,0,0,1,292,316l.09-.23q1.86-4.95,3.94-9.76c21.88-50.83,60.71-89.63,104.82-108.5l.07,0c20.71-8.85,42.58-13.31,64.4-12.56,67.75,2.32,108.54,20.67,133.06,50.46q5.85,7.68,11.11,16.09C625.64,277.26,637.67,307.87,646.54,340.75Z"/></g><path class="cls-6" d="M832.44,24V1055.9H24V24H832.44m24-24H0V1079.9H856.44V0Z"/></g></svg>
