<svg id="Layer_1" data-name="Layer 1" xmlns="http://www.w3.org/2000/svg" xmlns:xlink="http://www.w3.org/1999/xlink" viewBox="0 0 350.77 158.56"><defs><style>.cls-1{fill:url(#linear-gradient);}.cls-2{fill:url(#linear-gradient-2);}.cls-3{fill:none;stroke:#000;stroke-miterlimit:10;}.cls-4{font-size:163.59px;font-family:MachineGunk, Machine Gunk;}.cls-5{letter-spacing:-0.08em;}</style><linearGradient id="linear-gradient" x1="8.98" y1="86.5" x2="350.77" y2="86.5" gradientUnits="userSpaceOnUse"><stop offset="0" stop-color="#f7931e"/><stop offset="1" stop-color="#fcee21"/></linearGradient><linearGradient id="linear-gradient-2" y1="82.64" x2="337.38" y2="82.64" gradientUnits="userSpaceOnUse"><stop offset="0" stop-color="#f7961e"/><stop offset="0.35" stop-color="#fcee21"/><stop offset="0.82" stop-color="#f79e1e"/><stop offset="1" stop-color="#fcee21"/></linearGradient></defs><title>play</title><path class="cls-1" d="M350.77,28.33V148.84a9,9,0,0,1-8.92,8.92H22.31a8.88,8.88,0,0,1-6.61-2.95l-6.72-3H328.46a9,9,0,0,0,8.92-8.93V22.38a8.62,8.62,0,0,0-.51-3,9.05,9.05,0,0,0-3.06-4.17l8.5,4.18,6.28,3.09A8.85,8.85,0,0,1,350.77,28.33Z"/><path class="cls-2" d="M337.38,22.38V142.89a9,9,0,0,1-8.92,8.93H8.92A9,9,0,0,1,0,142.89V22.38a9,9,0,0,1,8.92-8.92H328.46a8.88,8.88,0,0,1,5.33,1.78h0a9.05,9.05,0,0,1,3.06,4.17A8.62,8.62,0,0,1,337.38,22.38Z"/><line class="cls-3" x1="2.28" y1="148.83" x2="2.26" y2="148.82"/><text class="cls-4" transform="translate(29.81 139.07)">PL<tspan class="cls-5" x="155.76" y="0">A</tspan><tspan x="214.39" y="0">Y</tspan></text></svg>
