<svg xmlns="http://www.w3.org/2000/svg" xmlns:xlink="http://www.w3.org/1999/xlink" viewBox="0 0 426.29 463.14"><defs><style>.cls-1{fill:#0f7700;}.cls-2{fill:#15d400;}.cls-3{fill:#0a6a00;}.cls-4{fill:url(#linear-gradient);}</style><linearGradient id="linear-gradient" x1="1037.71" y1="633.73" x2="1034.73" y2="393.42" gradientUnits="userSpaceOnUse"><stop offset="0.01" stop-color="#f6f"/><stop offset="0.5" stop-color="#9718c9"/><stop offset="1" stop-color="#2e3192"/></linearGradient></defs><title>seaweed</title><g id="Layer_5" data-name="Layer 5"><g id="SEAWEED"><path class="cls-1" d="M151.25,179.62c-.61,10.55-1.62,22.42-2.63,34.7v0q-.45,5.24-.87,10.55c-1.32,16.47-2.44,33.19-2.44,48a194.72,194.72,0,0,0,.94,20.4c.2,1.87.43,3.68.71,5.41.22,1.37.46,2.7.73,4-1.24-.62-2.5-1.27-3.78-1.94-.39-.21-.78-.42-1.18-.62-.12-.44-.23-.88-.35-1.33-.62-2.34-1.28-4.84-2-7.48q-.94-3.72-1.95-7.79h0c-2.19-8.9-4.51-19-6.67-29.65-4.25-21.1-7.87-44.67-8.59-66.67-.46-14-.74-29.8-.91-46-.39-38.68-.09-79.55.14-102.25a2.43,2.43,0,0,1,4.78-.57C132.14,57.6,140,90,145.42,120.6a0,0,0,0,1,0,0C149.43,143.26,152.09,164.92,151.25,179.62Z"/><path class="cls-2" d="M156.61,296.49a63.34,63.34,0,0,0-2.91-8A113.2,113.2,0,0,0,145.31,273c-3.92-6.2-8.51-12.56-13.52-19-7.81-10.12-16.63-20.56-25.42-31.21q-3.08-3.72-6.12-7.46a47.2,47.2,0,0,1-2.91-4C90.61,200.85,87.22,187,86.1,171.63a183,183,0,0,1-.34-19.27C87,111,99.92,64.2,106.81,41.86a2.43,2.43,0,0,1,4.75.61c.87,20,3.41,59,10.73,98.73,4.83,26.23,11.74,52.82,21.62,74.54q2.1,4.63,3.84,9.16c1.66,4.3,3.07,8.52,4.27,12.66.35,1.2.68,2.4,1,3.58a145,145,0,0,1,4.12,22.58A138.33,138.33,0,0,1,156.61,296.49Z"/><path class="cls-3" d="M147.69,302.73c-1.24-.62-2.5-1.27-3.78-1.94-.39-.21-.78-.42-1.18-.62l-.22-.11-.08-.06c-8.68-10.15-24.83-27.91-37.89-37.23a252.51,252.51,0,0,1-25.32-20.92,72.93,72.93,0,0,1-3.5-7.14,397.29,397.29,0,0,0,34.43,28.06,158,158,0,0,1,18.65,16.35,334.44,334.44,0,0,1-24.91-50.05c-2.3-5.68-4.48-11.66-6.55-17.84-4.21-12.58-8-26-11.24-39.6C74,121.85,67.84,70.27,66,52.68a2.09,2.09,0,0,1,0-.5c.35-3.6.59-5.6.59-5.6S73,97.73,85.76,152.36c5.64,24.14,12.52,49,20.61,70.34.85,2.23,1.71,4.43,2.58,6.58,9.66,23.86,20,41.46,29.51,54.28h0c2.68,3.63,5.28,6.88,7.78,9.78.2,1.87.43,3.68.71,5.41C147.18,300.13,147.42,301.46,147.69,302.73Z"/><path class="cls-3" d="M171.16,315.08l-.11-.05h0Z"/><path class="cls-2" d="M128.8,279.12a158,158,0,0,0-18.65-16.35,397.29,397.29,0,0,1-34.43-28.06c-2.61-2.36-5.12-4.67-7.52-6.9-7.22-21.48-3.55-51.5-9.79-79.63C43,78.72,65.3,46.37,65.3,46.37s.2,2.16.62,6.07c1.86,17.35,8,69.18,20.18,119.19,3.29,13.58,7,27,11.24,39.6,2.07,6.18,4.25,12.16,6.55,17.84A334.44,334.44,0,0,0,128.8,279.12Z"/><path class="cls-2" d="M142.73,300.17c0,.09.05.19.08.28l-.38-.45c-8.68-10.15-24.83-27.91-37.89-37.23a252.51,252.51,0,0,1-25.32-20.92c-3.19-3-6.23-5.93-9.1-8.82q-1-2.52-1.92-5.22c2.4,2.23,4.91,4.54,7.52,6.9a397.29,397.29,0,0,0,34.43,28.06,158,158,0,0,1,18.65,16.35,219.8,219.8,0,0,0,13.58,19.72l1.53,2C143.52,300.58,143.13,300.37,142.73,300.17Z"/><path class="cls-3" d="M143.91,300.79c-.39-.21-.78-.42-1.18-.62,0,.09.05.19.08.28l-.38-.45c-8.68-10.15-24.83-27.91-37.89-37.23a252.51,252.51,0,0,1-25.32-20.92c-3.19-3-6.23-5.93-9.1-8.82C54.85,217.68,44.47,204.49,43,203c1.38,1.34,11.26,11.82,25.18,24.84,2.4,2.23,4.91,4.54,7.52,6.9a397.29,397.29,0,0,0,34.43,28.06,158,158,0,0,1,18.65,16.35c4.13,4.12,8.1,8.35,11.62,12.24,2.43,2.67,4.64,5.18,6.54,7.4.22,1.37.46,2.7.73,4C146.45,302.11,145.19,301.46,143.91,300.79Z"/><path class="cls-2" d="M157.13,263.72A145,145,0,0,0,153,241.14c0,.47-.08.93-.11,1.4-.3-1.65-.59-3.31-.88-5-1.31-7.62-2.47-15.41-3.4-23.21q-.45,5.24-.87,10.55c-1.32,16.47-2.44,33.19-2.44,48a113.2,113.2,0,0,1,8.39,15.56,63.34,63.34,0,0,1,2.91,8A138.33,138.33,0,0,0,157.13,263.72Zm-2.3,61.52a16.86,16.86,0,0,0,0,2.15c0,.49,1.53,0,3.53-1A12.79,12.79,0,0,1,154.83,325.24Z"/><path class="cls-3" d="M169.16,289.31c-.07-.26-.13-.52-.19-.78-2.08-9.18-1.94-19.39-.08-30.13a280.85,280.85,0,0,0,.19,29.92C169.11,288.65,169.13,289,169.16,289.31Z"/><path class="cls-3" d="M173.9,157.88h0c-2.19,7.42-4.55,14.56-7.09,21.26a230.87,230.87,0,0,0-13.8,62c0,.47-.08.93-.11,1.4-.3-1.65-.59-3.31-.88-5-1.31-7.62-2.47-15.41-3.4-23.21v0c-1.08-9.1-1.85-18.22-2.14-27.08-.65-19.82-.95-43.46-1.06-66.6a0,0,0,0,0,0,0c-.14-32,.1-63,.29-81.66a2.43,2.43,0,0,1,4.79-.57C157.53,65.84,170.57,120.18,173.9,157.88Z"/><path class="cls-3" d="M229.38,45.44a2.43,2.43,0,0,1,4.71,1c-2.79,34.4-10.16,109.33-23.3,141.38-11.6,28.27-30,65.82-38.86,95q-1.31,4.28-2.31,8.28h0c-.08.32-.16.63-.23.94-.08-.89-.16-1.79-.23-2.71h0v0c-.07-.26-.13-.52-.19-.78-2.08-9.18-1.94-19.39-.08-30.13a0,0,0,0,1,0,0c4.87-28,21.41-59.65,40.44-86.4,15.91-22.35,15.54-61.8,10.36-98.35a2.44,2.44,0,0,1,.12-1.14C223.51,62,226.79,52.71,229.38,45.44Z"/><path class="cls-2" d="M169.62,291.1h0c-.08.32-.16.63-.23.94-.08-.89-.16-1.79-.23-2.71C169.3,289.93,169.46,290.52,169.62,291.1Z"/><path class="cls-2" d="M171.16,315.08l-.11-.05h0Z"/><path class="cls-1" d="M281.84,176.92c-28,21-100,86-118.38,123.82a48.32,48.32,0,0,1-3.17-8.36c-.08.32-.16.63-.23.94-.08-.89-.16-1.79-.23-2.71h0v0c-.07-.26-.13-.52-.19-.78l.11-.21c.92-1.8,1.87-3.64,2.85-5.5,10.18-19.46,22.87-42.15,32.06-63.9,19-45,54.46-49.2,69.1-70.74C289.22,112,292.22,58,288.36,37.33a2.43,2.43,0,0,1,4.24-2C310.75,56.88,349.3,126.33,281.84,176.92Z"/><path class="cls-2" d="M291.17,175.65c-28,21-100,86-118.38,123.82a48.32,48.32,0,0,1-3.17-8.36c-.08.32-.16.63-.23.94-.08-.89-.16-1.79-.23-2.71h0v0c-.07-.26-.13-.52-.19-.78l.11-.21c.92-1.8,1.87-3.64,2.85-5.5,10.18-19.46,22.87-42.15,32.06-63.9,19-45,54.46-49.2,69.1-70.74,25.46-37.43,19.1-90,15.24-110.68a2.43,2.43,0,0,1,4.24-2C310.72,57.05,358.63,125.06,291.17,175.65Z"/><path class="cls-2" d="M168.9,258.37c4.87-28,21.41-59.65,40.44-86.4,16-22.46,15.54-62.22,10.28-98.93A538.59,538.59,0,0,0,203.91,1.76a2.43,2.43,0,0,0-4.75.49c-2.2,29-9,100.33-25.26,155.63h0c-2.19,7.42-4.55,14.56-7.09,21.26a230.87,230.87,0,0,0-13.8,62,145,145,0,0,1,4.12,22.58,138.33,138.33,0,0,1-.52,32.77,63.34,63.34,0,0,0-2.91-8A113.2,113.2,0,0,0,145.31,273a194.72,194.72,0,0,0,.94,20.4c.2,1.87.43,3.68.71,5.41.22,1.37.46,2.7.73,4-1.24-.62-2.5-1.27-3.78-1.94-.39-.21-.78-.42-1.18-.62,0,.09.05.19.08.28l-.38-.45c-8.68-10.15-24.83-27.91-37.89-37.23a252.51,252.51,0,0,1-25.32-20.92c-3.19-3-6.23-5.93-9.1-8.82C54.85,217.68,44.47,204.49,43,203l-.1-.09v0c-.38.84-12.08,27.46,11.74,48.47,11.29,10,16.59,26,32.21,30.93,28.25,8.94,45.5,19.73,58.56,27.81.5,1.83.94,3.44,1.31,4.81.13.48.54.44,1,.12a12.92,12.92,0,0,0,7.07,10.2,12.79,12.79,0,0,0,3.57,1.17,12.25,12.25,0,0,0,2.2.19A12.9,12.9,0,0,0,173.08,317c5.45-1.47,10.78-3.11,10.45-3.4a45.19,45.19,0,0,1-10.74-14.08,48.32,48.32,0,0,1-3.17-8.36c-.08.32-.16.63-.23.94-.08-.89-.16-1.79-.23-2.71h0v0c-.07-.26-.13-.52-.19-.78-2.08-9.18-1.94-19.39-.08-30.13A0,0,0,0,1,168.9,258.37ZM171.07,315l.09.06-.11-.05Z"/><path class="cls-2" d="M171.16,315.08l-.11-.05h0Z"/></g><g id="SEAWEED-2" data-name="SEAWEED"><path class="cls-1" d="M151.25,179.62c-.61,10.55-1.62,22.42-2.63,34.7v0q-.45,5.24-.87,10.55c-1.32,16.47-2.44,33.19-2.44,48a194.72,194.72,0,0,0,.94,20.4c.2,1.87.43,3.68.71,5.41.22,1.37.46,2.7.73,4-1.24-.62-2.5-1.27-3.78-1.94-.39-.21-.78-.42-1.18-.62-.12-.44-.23-.88-.35-1.33-.62-2.34-1.28-4.84-2-7.48q-.94-3.72-1.95-7.79h0c-2.19-8.9-4.51-19-6.67-29.65-4.25-21.1-7.87-44.67-8.59-66.67-.46-14-.74-29.8-.91-46-.39-38.68-.09-79.55.14-102.25a2.43,2.43,0,0,1,4.78-.57C132.14,57.6,140,90,145.42,120.6a0,0,0,0,1,0,0C149.43,143.26,152.09,164.92,151.25,179.62Z"/><path class="cls-2" d="M156.61,296.49a63.34,63.34,0,0,0-2.91-8A113.2,113.2,0,0,0,145.31,273c-3.92-6.2-8.51-12.56-13.52-19-7.81-10.12-16.63-20.56-25.42-31.21q-3.08-3.72-6.12-7.46a47.2,47.2,0,0,1-2.91-4C90.61,200.85,87.22,187,86.1,171.63a183,183,0,0,1-.34-19.27C87,111,99.92,64.2,106.81,41.86a2.43,2.43,0,0,1,4.75.61c.87,20,3.41,59,10.73,98.73,4.83,26.23,11.74,52.82,21.62,74.54q2.1,4.63,3.84,9.16c1.66,4.3,3.07,8.52,4.27,12.66.35,1.2.68,2.4,1,3.58a145,145,0,0,1,4.12,22.58A138.33,138.33,0,0,1,156.61,296.49Z"/><path class="cls-3" d="M147.69,302.73c-1.24-.62-2.5-1.27-3.78-1.94-.39-.21-.78-.42-1.18-.62l-.22-.11-.08-.06c-8.68-10.15-24.83-27.91-37.89-37.23a252.51,252.51,0,0,1-25.32-20.92,72.93,72.93,0,0,1-3.5-7.14,397.29,397.29,0,0,0,34.43,28.06,158,158,0,0,1,18.65,16.35,334.44,334.44,0,0,1-24.91-50.05c-2.3-5.68-4.48-11.66-6.55-17.84-4.21-12.58-8-26-11.24-39.6C74,121.85,67.84,70.27,66,52.68a2.09,2.09,0,0,1,0-.5c.35-3.6.59-5.6.59-5.6S73,97.73,85.76,152.36c5.64,24.14,12.52,49,20.61,70.34.85,2.23,1.71,4.43,2.58,6.58,9.66,23.86,20,41.46,29.51,54.28h0c2.68,3.63,5.28,6.88,7.78,9.78.2,1.87.43,3.68.71,5.41C147.18,300.13,147.42,301.46,147.69,302.73Z"/><path class="cls-3" d="M171.16,315.08l-.11-.05h0Z"/><path class="cls-2" d="M128.8,279.12a158,158,0,0,0-18.65-16.35,397.29,397.29,0,0,1-34.43-28.06c-2.61-2.36-5.12-4.67-7.52-6.9-7.22-21.48-3.55-51.5-9.79-79.63C43,78.72,65.3,46.37,65.3,46.37s.2,2.16.62,6.07c1.86,17.35,8,69.18,20.18,119.19,3.29,13.58,7,27,11.24,39.6,2.07,6.18,4.25,12.16,6.55,17.84A334.44,334.44,0,0,0,128.8,279.12Z"/><path class="cls-2" d="M142.73,300.17c0,.09.05.19.08.28l-.38-.45c-8.68-10.15-24.83-27.91-37.89-37.23a252.51,252.51,0,0,1-25.32-20.92c-3.19-3-6.23-5.93-9.1-8.82q-1-2.52-1.92-5.22c2.4,2.23,4.91,4.54,7.52,6.9a397.29,397.29,0,0,0,34.43,28.06,158,158,0,0,1,18.65,16.35,219.8,219.8,0,0,0,13.58,19.72l1.53,2C143.52,300.58,143.13,300.37,142.73,300.17Z"/><path class="cls-3" d="M143.91,300.79c-.39-.21-.78-.42-1.18-.62,0,.09.05.19.08.28l-.38-.45c-8.68-10.15-24.83-27.91-37.89-37.23a252.51,252.51,0,0,1-25.32-20.92c-3.19-3-6.23-5.93-9.1-8.82C54.85,217.68,44.47,204.49,43,203c1.38,1.34,11.26,11.82,25.18,24.84,2.4,2.23,4.91,4.54,7.52,6.9a397.29,397.29,0,0,0,34.43,28.06,158,158,0,0,1,18.65,16.35c4.13,4.12,8.1,8.35,11.62,12.24,2.43,2.67,4.64,5.18,6.54,7.4.22,1.37.46,2.7.73,4C146.45,302.11,145.19,301.46,143.91,300.79Z"/><path class="cls-2" d="M157.13,263.72A145,145,0,0,0,153,241.14c0,.47-.08.93-.11,1.4-.3-1.65-.59-3.31-.88-5-1.31-7.62-2.47-15.41-3.4-23.21q-.45,5.24-.87,10.55c-1.32,16.47-2.44,33.19-2.44,48a113.2,113.2,0,0,1,8.39,15.56,63.34,63.34,0,0,1,2.91,8A138.33,138.33,0,0,0,157.13,263.72Zm-2.3,61.52a16.86,16.86,0,0,0,0,2.15c0,.49,1.53,0,3.53-1A12.79,12.79,0,0,1,154.83,325.24Z"/><path class="cls-3" d="M169.16,289.31c-.07-.26-.13-.52-.19-.78-2.08-9.18-1.94-19.39-.08-30.13a280.85,280.85,0,0,0,.19,29.92C169.11,288.65,169.13,289,169.16,289.31Z"/><path class="cls-3" d="M173.9,157.88h0c-2.19,7.42-4.55,14.56-7.09,21.26a230.87,230.87,0,0,0-13.8,62c0,.47-.08.93-.11,1.4-.3-1.65-.59-3.31-.88-5-1.31-7.62-2.47-15.41-3.4-23.21v0c-1.08-9.1-1.85-18.22-2.14-27.08-.65-19.82-.95-43.46-1.06-66.6a0,0,0,0,0,0,0c-.14-32,.1-63,.29-81.66a2.43,2.43,0,0,1,4.79-.57C157.53,65.84,170.57,120.18,173.9,157.88Z"/><path class="cls-3" d="M229.38,45.44a2.43,2.43,0,0,1,4.71,1c-2.79,34.4-10.16,109.33-23.3,141.38-11.6,28.27-30,65.82-38.86,95q-1.31,4.28-2.31,8.28h0c-.08.32-.16.63-.23.94-.08-.89-.16-1.79-.23-2.71h0v0c-.07-.26-.13-.52-.19-.78-2.08-9.18-1.94-19.39-.08-30.13a0,0,0,0,1,0,0c4.87-28,21.41-59.65,40.44-86.4,15.91-22.35,15.54-61.8,10.36-98.35a2.44,2.44,0,0,1,.12-1.14C223.51,62,226.79,52.71,229.38,45.44Z"/><path class="cls-2" d="M169.62,291.1h0c-.08.32-.16.63-.23.94-.08-.89-.16-1.79-.23-2.71C169.3,289.93,169.46,290.52,169.62,291.1Z"/><path class="cls-2" d="M171.16,315.08l-.11-.05h0Z"/><path class="cls-1" d="M281.84,176.92c-28,21-100,86-118.38,123.82a48.32,48.32,0,0,1-3.17-8.36c-.08.32-.16.63-.23.94-.08-.89-.16-1.79-.23-2.71h0v0c-.07-.26-.13-.52-.19-.78l.11-.21c.92-1.8,1.87-3.64,2.85-5.5,10.18-19.46,22.87-42.15,32.06-63.9,19-45,54.46-49.2,69.1-70.74C289.22,112,292.22,58,288.36,37.33a2.43,2.43,0,0,1,4.24-2C310.75,56.88,349.3,126.33,281.84,176.92Z"/><path class="cls-2" d="M291.17,175.65c-28,21-100,86-118.38,123.82a48.32,48.32,0,0,1-3.17-8.36c-.08.32-.16.63-.23.94-.08-.89-.16-1.79-.23-2.71h0v0c-.07-.26-.13-.52-.19-.78l.11-.21c.92-1.8,1.87-3.64,2.85-5.5,10.18-19.46,22.87-42.15,32.06-63.9,19-45,54.46-49.2,69.1-70.74,25.46-37.43,19.1-90,15.24-110.68a2.43,2.43,0,0,1,4.24-2C310.72,57.05,358.63,125.06,291.17,175.65Z"/><path class="cls-2" d="M168.9,258.37c4.87-28,21.41-59.65,40.44-86.4,16-22.46,15.54-62.22,10.28-98.93A538.59,538.59,0,0,0,203.91,1.76a2.43,2.43,0,0,0-4.75.49c-2.2,29-9,100.33-25.26,155.63h0c-2.19,7.42-4.55,14.56-7.09,21.26a230.87,230.87,0,0,0-13.8,62,145,145,0,0,1,4.12,22.58,138.33,138.33,0,0,1-.52,32.77,63.34,63.34,0,0,0-2.91-8A113.2,113.2,0,0,0,145.31,273a194.72,194.72,0,0,0,.94,20.4c.2,1.87.43,3.68.71,5.41.22,1.37.46,2.7.73,4-1.24-.62-2.5-1.27-3.78-1.94-.39-.21-.78-.42-1.18-.62,0,.09.05.19.08.28l-.38-.45c-8.68-10.15-24.83-27.91-37.89-37.23a252.51,252.51,0,0,1-25.32-20.92c-3.19-3-6.23-5.93-9.1-8.82C54.85,217.68,44.47,204.49,43,203l-.1-.09v0c-.38.84-12.08,27.46,11.74,48.47,11.29,10,16.59,26,32.21,30.93,28.25,8.94,45.5,19.73,58.56,27.81.5,1.83.94,3.44,1.31,4.81.13.48.54.44,1,.12a12.92,12.92,0,0,0,7.07,10.2,12.79,12.79,0,0,0,3.57,1.17,12.25,12.25,0,0,0,2.2.19A12.9,12.9,0,0,0,173.08,317c5.45-1.47,10.78-3.11,10.45-3.4a45.19,45.19,0,0,1-10.74-14.08,48.32,48.32,0,0,1-3.17-8.36c-.08.32-.16.63-.23.94-.08-.89-.16-1.79-.23-2.71h0v0c-.07-.26-.13-.52-.19-.78-2.08-9.18-1.94-19.39-.08-30.13A0,0,0,0,1,168.9,258.37ZM171.07,315l.09.06-.11-.05Z"/><path class="cls-2" d="M171.16,315.08l-.11-.05h0Z"/></g></g><g id="gamescreen"><rect class="cls-4" x="76.11" y="460.35" width="1920" height="89.22"/></g></svg>
