<svg id="Layer_1" data-name="Layer 1" xmlns="http://www.w3.org/2000/svg" viewBox="0 0 815.15 722.06"><defs><style>.cls-1{fill:#fff;}</style></defs><title>settings_button</title><path d="M532.53,391.26c-5.61.6-10.75.26-15.22,1.84-7.61,2.7-9.69,10.19-5.65,17.2a34.22,34.22,0,0,0,2.56,3.69c1.71,2.22,3.08,4.45.93,7.14-2,2.49-4.43,3-7.51,2.17a14.47,14.47,0,0,0-6.25-.51c-9.16,1.7-12.83,9.9-8.44,18.22,1.38,2.62,4.07,4.85,1.89,8.52-1.79,3-3.61,4.65-7.16,2.84a20.83,20.83,0,0,0-4.22-1.52,11.6,11.6,0,0,0-14.55,13.24c.6,3.41,2.26,6.62,3,10,.3,1.48-.08,3.81-1.07,4.65s-3.4,1.11-5,.72c-2-.5-3.82-2-5.8-2.84-4.41-1.88-8.75-2-12.75,1.09s-5.15,7.18-4.27,12c.14.82.2,1.66.39,2.47,1.53,6.83,1.54,6.83-4.36,11-1.54-1.05-3.19-2.13-4.78-3.28-4.8-3.47-9.79-5-15.28-1.55-4.56,2.88-5.94,7.77-5.17,14.57.31,2.79-.79,5.87-1.89,8.56-.23.58-3.42.58-4.82-.08-1.72-.81-3-2.6-4.45-4-3.9-3.54-8.37-4.82-13.37-2.84s-7,6-7.42,11c-.23,2.63.36,5.38-.14,7.94-.31,1.62-1.71,3.77-3.09,4.22s-3.49-.75-4.84-1.8c-1.54-1.18-2.54-3.06-3.87-4.54-3.68-4-8.12-5.71-13.49-3.94-5.22,1.73-7.53,5.7-8.18,10.89-.29,2.32-.15,4.8-1,6.9a6.59,6.59,0,0,1-3.86,3.58c-1.16.28-3.16-1.06-4.16-2.22-1.93-2.23-3.11-5.14-5.13-7.27-6.95-7.34-18-4.47-20.81,5.26-.69,2.4-.8,5-1.95,7.18a7.22,7.22,0,0,1-4.49,3.22c-.93.18-2.57-1.76-3.42-3-1-1.5-1.18-3.53-2.22-5-3.27-4.58-7-8.72-13.43-7.87s-9.43,5.22-11.17,10.77c-1.32,4.22-2.49,8.27-7.26,6.55-2.66-5.21-4.44-10.06-7.35-14.07-4.38-6-13.09-5.78-17.63.09-2,2.63-3.44,5.76-5.63,8.22a8.07,8.07,0,0,1-5.14,2.25c-.69,0-1.71-2.42-2.29-3.86-1.71-4.23-2.67-8.9-5.06-12.68-3.11-4.93-10.83-5.6-15.61-1.82a32.84,32.84,0,0,0-6,6.63c-3.43,4.72-3.33,4.79-8.12,3-1-5.18-1.31-10.2-2.93-14.76-2.7-7.65-11.57-9.94-18.08-5-2.35,1.8-4,4.51-6.41,6.23a6.43,6.43,0,0,1-5.23.83c-1.11-.42-1.91-2.73-2.1-4.29-.52-4.05.1-8.36-1-12.18-2.28-7.65-10.6-10.35-17.4-6.09-2.94,1.85-5.65,4.08-8.31,6-5.5-1.59-6.1-4.94-4.76-9.74,1.57-5.61.88-11.07-4.19-14.84s-10.35-2.72-15.46.24c-1.86,1.09-3.7,2.22-5.46,3.27-6.34-3.93-6.38-4-3.82-10.48,2.18-5.54,2.3-10.81-2.22-15.23-4.22-4.13-9.21-4-14.39-1.88a29.56,29.56,0,0,1-5.66,1.87c-1.35.25-3.52.36-4.09-.4-1-1.39-1.91-3.64-1.53-5.21.6-2.52,2.41-4.72,3.47-7.15,4-9.16-2.68-18.14-12.58-16.88-3.89.49-7.71,1.51-11.45,2.27-3.19-4.08-2.46-7.4.69-11.1,3.81-4.46,5.2-9.83,1.88-15.25-3.18-5.2-8.27-6.18-14-5.5a14.1,14.1,0,0,1-5.87-.29c-4.48-1.48-5.13-4.7-1.92-8.12,1-1.1,2.15-2.11,3.07-3.28,3.32-4.22,4.78-8.85,2.27-13.94-2.29-4.66-6.47-6.44-11.43-6.8-2.46-.17-5.09,0-7.35-.83-4.19-1.5-4.62-5-1.29-7.84,1.53-1.29,3.19-2.45,4.57-3.87,3.64-3.72,5.31-8.18,3.61-13.26-1.64-4.9-5.62-7.28-10.5-8.14-2.12-.38-4.48.1-6.43-.61-1.54-.57-3.36-2.19-3.7-3.66s.68-3.66,1.85-4.75c2-1.91,4.85-3,6.93-4.82,7.56-6.76,5.5-17.23-4-20.71-2.33-.85-5-.95-7.17-2C2.7,305.3,1,303.52.87,302.09s1.23-3.48,2.54-4.45c2.11-1.55,4.83-2.23,7.07-3.64,4.06-2.55,6.5-6.18,6.2-11.2s-3.41-8.13-7.58-10.32a31,31,0,0,0-5.55-2.23c-2.3-.68-3.68-1.58-3.54-4.44s1.31-4.15,3.88-4.93a36.77,36.77,0,0,0,8.34-3.18c8.09-4.85,8.27-14.83.5-20.19-1.91-1.31-4.37-1.95-6-3.49a9,9,0,0,1-2.42-5.08c-.37-2.7,1.51-3.49,4.06-3.75a31,31,0,0,0,8.71-2c8.59-3.62,10.21-13.65,3.35-20a24.24,24.24,0,0,0-5.16-3.9c-2.88-1.48-3.5-3.71-1.91-6.05a8.59,8.59,0,0,1,4.77-2.83c3-.76,6.4-.44,9.28-1.5C36,185.76,38.17,177,32.29,170c-1.49-1.77-3.67-3-4.92-4.91-.89-1.35-1.54-3.79-.9-5a7,7,0,0,1,4.68-2.86c2.58-.38,5.3.35,7.94.22A11.86,11.86,0,0,0,50,149.85c1.8-4.3.71-8.53-2.16-12.21-1.23-1.57-3-2.87-3.74-4.63a6.28,6.28,0,0,1,.21-5.11c.82-1.19,3.07-2,4.67-2,2.78,0,5.54,1.17,8.32,1.3a11.79,11.79,0,0,0,11.47-6.6c2.44-4.47,1.29-8.68-1.22-12.71-1.31-2.09-2.68-4.14-3.93-6.09,2.1-5.38,5.28-5.91,10.2-3.69a20.09,20.09,0,0,0,9.71,1.16c6.38-.6,10.78-7.34,9.16-13.5a46.83,46.83,0,0,0-2.86-8C88.7,75.5,89.09,74,91,72.21s3.44-1.61,5.69-.53c3.39,1.62,7,3.28,10.63,3.76,7.85,1,13.9-8.31,11.61-15.14-.73-2.2-1.66-4.49-1.63-6.73a6,6,0,0,1,2.61-4.11,5.2,5.2,0,0,1,4.32-.14c2.23,1,4,2.93,6.24,4.1,4.22,2.25,8.61,2.67,12.79-.11a11.41,11.41,0,0,0,5.33-11.59c-.24-2-1.21-4-.89-5.86a7.61,7.61,0,0,1,3-4.84c1.16-.71,3.58-.22,5,.55,1.85,1,3.18,2.92,4.9,4.21,4,3,8.56,3.84,13.19,1.72s6.43-6.07,6.76-10.87c.14-2-.4-4.16.23-5.95a8,8,0,0,1,3.6-4.29c1.07-.51,3.22.43,4.46,1.32,1.44,1,2.35,2.79,3.61,4.11,3.42,3.59,7.48,5.7,12.54,4.35s8-5.14,9-10.28c.42-2.12.26-4.43,1.06-6.36a5.71,5.71,0,0,1,3.59-3,5.88,5.88,0,0,1,4.54,1.38c1.62,1.59,2.44,4,3.89,5.76,6.56,8.08,17.29,6.44,21.07-3.21.78-2,.81-4.4,1.93-6.14a7.27,7.27,0,0,1,4.55-3.21C256,1,258,2.42,259,3.72c1.3,1.65,1.72,4,2.84,5.8,5.12,8.38,15.79,8.3,20.77-.14,1.09-1.86,1.62-4.09,2.9-5.78A9.36,9.36,0,0,1,289.94.2c2.56-.73,4.25.61,4.88,3.48,1.46,6.69,4.19,12.8,12,13.48,7.54.65,11-4.85,14.05-10.76a5.47,5.47,0,0,1,4.63-2.24,7.16,7.16,0,0,1,4.33,3.54c1,2,.93,4.54,1.62,6.76,2.81,9,12.55,11.64,19.38,5.2a32.81,32.81,0,0,0,4.79-5.73c1.64-2.47,3.76-2.91,5.9-1.42a8.15,8.15,0,0,1,2.83,4.35c.59,2.21.25,4.66.7,6.93,1.84,9.19,11.43,12.78,18.82,7.06a43.88,43.88,0,0,0,4.66-4.49c2-2.05,4.31-3.08,6.52-1,1.27,1.2,1.83,3.35,2.26,5.17.29,1.23-.26,2.63-.35,4-.34,5.25,1.4,9.61,6,12.28s9.31,1.74,13.58-1.31c1.35-1,2.65-2,3.95-3,2-1.56,4.24-2.59,6.05-.22a10,10,0,0,1,1.77,5.37c.07,2.1-.9,4.22-1,6.36-.7,9.65,7.58,15.71,16.48,12,3.05-1.27,5.83-3.19,8.84-4.87,4.7,1.68,6.1,4.33,3.88,9.4A18.22,18.22,0,0,0,455.08,81c1.42,6.58,7.85,9.77,14.41,8,2.56-.7,4.93-2.19,7.51-2.65a6,6,0,0,1,4.86,1.32c1,1.08,1.19,3.41.83,5-.47,2-1.83,3.88-2.83,5.8-2.35,4.53-1.61,8.68,1.51,12.54s7.37,4.89,12.11,4.06a45.06,45.06,0,0,0,5.29-1.45c2.52-.76,4.49-.93,6.43,1.77s.56,4.2-.83,6.08a39.89,39.89,0,0,0-3.12,4.52c-2.27,4.22-2.81,8.48.06,12.74s7,6,12.05,5.36c1.82-.23,3.62-.58,5.41-.92,2.57-.49,5,0,5.36,2.82a9.24,9.24,0,0,1-1.27,5.46c-1.13,2-3.2,3.42-4.44,5.36-5.21,8.19-.29,17.83,9.42,18.56a30.74,30.74,0,0,0,6,0c3.3-.42,5.35,1.23,5.53,4.12.1,1.53-1.64,3.3-2.78,4.79-2.28,3-5.41,5.53-6.94,8.83-2.9,6.26,2.59,13.8,10.74,15.48,2,.41,4.24.05,5.86,1a10.66,10.66,0,0,1,4.07,4.75c.26.6-1.73,2.81-3.07,3.4-6.11,2.66-10.42,8.44-10.11,14.09.31,5.4,4.07,9.39,10.9,11.53a10.87,10.87,0,0,0,2.42.61c5,.36,6.69,2.95,5.82,6.22-4.8,3.26-9.22,5.29-12.3,8.58-5.6,6-3.92,14,3.17,18.12a29.22,29.22,0,0,0,6.36,2.84c3.29,1,3.68,3.4,2.73,5.82a6,6,0,0,1-4,2.88c-5.18,1-10.92,5.86-12,10.68-1.28,5.44,1,10.2,6.63,13.83a24.48,24.48,0,0,0,3.51,1.85c3.94,1.69,5.27,4.32,4,6.76-6,2.46-11.21,3.74-15.42,6.5-6.09,4-6.23,12.09-1,17.38,2.3,2.35,5.09,4.31,7.05,6.92,2.48,3.29,1.19,5.22-2.87,5.74-3.38.43-7.08.67-10,2.25-10,5.45-10.72,15.63-1.39,22.26C535.16,385.62,534.92,388.17,532.53,391.26ZM276.29,478.12c25.76-.1,47.41-3.38,68.5-10.09,15.07-4.79,20.48-22.15,10-33.64-13.62-15-27.82-29.45-42.12-43.8-3-3-7.3-5.84-11.35-6.46-9.32-1.43-18.55-3.08-28.39-1.58-10.49,1.59-21.23-1.27-30.9-6-14.08-6.91-27.75-5.3-41.24,1.15-8.34,4-16.35,8.67-24.59,12.87-6.91,3.52-14.07,6.54-20.86,10.26-14.68,8-15.68,25.65-2.19,35.68a204.89,204.89,0,0,0,56.72,29.75A222.93,222.93,0,0,0,276.29,478.12ZM77.2,276.36c.07,20.41,2.3,40.55,8.24,60.12,5.85,19.23,23.87,23.68,38.4,9.59,13-12.62,25.9-25.4,38.84-38.12,9.29-9.12,11-20.65,10.76-32.94-.15-7.77-.5-15.68.7-23.29,1-6.27,4.53-12.08,6.22-18.29,1.77-6.49,4.55-13.52,3.52-19.75-1.49-9-5.74-17.57-9.36-26.1-3.48-8.16-7.64-16-11.53-24-2.6-5.35-4.36-11.44-8.13-15.8s-9.35-6.83-14.29-9.91a4.53,4.53,0,0,0-3.89,0c-5.85,3.28-12.13,5.76-16.31,11.71C108,167.17,97.44,185.65,90.11,206.06,81.93,228.86,77,252.1,77.2,276.36Zm404.62,8c0-30.59-3.45-53.14-10.32-72.73-3.85-11-14-17.48-25.19-15-4.08.88-8.21,3.7-11.27,6.7-13,12.82-26,25.77-38.36,39.21A38.18,38.18,0,0,0,386.9,273a83.14,83.14,0,0,1-6.71,43.72c-3.42,7.62-4.72,15.69-2.22,23.82a128.48,128.48,0,0,0,6.74,17.66c6.52,13.63,13.31,27.14,20.23,40.58,7.8,15.16,26.34,16.06,36.26,1.91,13-18.6,23.65-38.34,30.5-60.18C478.05,320.17,481.49,299.56,481.82,284.36ZM337.75,180.27c5-1.34,10.09-2,14.53-4,17.38-7.89,34.66-16,51.76-24.45,13.46-6.67,15.76-22.24,4.32-32.09a246.22,246.22,0,0,0-30.22-22c-7.48-4.66-15.37-8.88-24.7-10-5.13-.61-9.77-4.6-14.93-5.91-8-2-16.23-3.12-24.38-4.51-10.94-1.87-21.85-4.19-33.08-3-1.15.12-2.33-.16-3.49-.1-4.84.25-9.66.67-14.5.79-3.79.09-7.59-.18-11.39-.23a23.93,23.93,0,0,0-2.46.36c-11.31,1.13-21.85,5-32.36,9C207.17,87.82,202,95,202,104.39c0,7.54,4.24,12.67,9.19,17.6,11.56,11.51,23.21,23,34.45,34.78a37.84,37.84,0,0,0,31.48,12.15A93.07,93.07,0,0,1,322.35,176C327.17,178.08,332.52,178.87,337.75,180.27ZM280.38,219a56.88,56.88,0,0,0-56.78,57c.13,31,25.7,56.2,57,56.14A56.56,56.56,0,1,0,280.38,219ZM187.54,351.35c2.59-1.25,5.39-2.2,7.73-3.82,4.46-3.08,4.49-7.57,4.6-12.71.11-5.36-2.2-6.19-6.24-7.91-6.58-2.79-12.09.52-18,1.64-1.23.23-2.86,2.62-2.87,4,0,2.49,1.17,5,1.68,7.49C175.67,346,181.11,350.59,187.54,351.35ZM331,367.58c-.25,7.78,4.78,13.57,11.95,13.75,8.31.21,14-6.82,14.08-17.43,0-4.55-5.62-7.87-13.6-8C335.71,355.83,331.24,360,331,367.58Zm54.71-154.3a12.31,12.31,0,0,0-12.36-12.84c-6.88,0-12,4.76-12.24,11.45a12.79,12.79,0,0,0,12.5,13.42A12.09,12.09,0,0,0,385.71,213.28Zm-167.94-18.8c7.3.12,13.11-5.06,12.7-12.33-.44-7.67-3-11.81-11.85-12-7.12-.12-13,5.46-13,12.32A12.11,12.11,0,0,0,217.77,194.48Z"/><path d="M800.82,623.8c-3.32.36-6.38.16-9,1.1-4.52,1.6-5.76,6-3.36,10.2a19.43,19.43,0,0,0,1.52,2.19c1,1.31,1.83,2.64.55,4.24a3.84,3.84,0,0,1-4.45,1.29,8.53,8.53,0,0,0-3.71-.31c-5.44,1-7.62,5.87-5,10.81.82,1.55,2.42,2.88,1.12,5-1.06,1.8-2.14,2.77-4.25,1.69a12,12,0,0,0-2.5-.9,6.89,6.89,0,0,0-8.63,7.86c.36,2,1.34,3.92,1.75,5.94a3.32,3.32,0,0,1-.63,2.75,3.74,3.74,0,0,1-2.94.43,24.26,24.26,0,0,1-3.44-1.68c-2.62-1.12-5.2-1.18-7.57.64a6.8,6.8,0,0,0-2.54,7.12c.09.49.13,1,.24,1.47.91,4,.91,4-2.59,6.55-.91-.63-1.89-1.27-2.83-2-2.85-2.06-5.81-3-9.07-.92-2.71,1.71-3.52,4.61-3.07,8.65a10.94,10.94,0,0,1-1.12,5.07c-.14.35-2,.35-2.86,0a12.83,12.83,0,0,1-2.64-2.34c-2.31-2.11-5-2.87-7.93-1.69s-4.16,3.54-4.41,6.49c-.13,1.57.22,3.2-.08,4.72a3.63,3.63,0,0,1-1.83,2.5c-.78.25-2.07-.45-2.87-1.07a19.39,19.39,0,0,1-2.3-2.69c-2.18-2.4-4.82-3.39-8-2.34s-4.47,3.39-4.86,6.47a17.11,17.11,0,0,1-.58,4.09,3.88,3.88,0,0,1-2.29,2.12c-.69.17-1.87-.63-2.47-1.31-1.14-1.33-1.84-3-3-4.32-4.12-4.36-10.71-2.65-12.35,3.12-.4,1.42-.47,3-1.15,4.26a4.27,4.27,0,0,1-2.67,1.91c-.55.11-1.52-1-2-1.81s-.7-2.09-1.31-2.95c-1.94-2.72-4.15-5.18-8-4.67s-5.6,3.1-6.63,6.39c-.79,2.5-1.48,4.91-4.31,3.88-1.58-3.09-2.63-6-4.36-8.34a6.48,6.48,0,0,0-10.46,0c-1.2,1.56-2,3.42-3.34,4.88a4.82,4.82,0,0,1-3,1.33c-.41,0-1-1.43-1.36-2.29-1-2.51-1.58-5.28-3-7.52-1.85-2.93-6.43-3.32-9.27-1.08a20.13,20.13,0,0,0-3.54,3.93c-2,2.8-2,2.84-4.81,1.78-.58-3.08-.78-6-1.74-8.76-1.61-4.54-6.87-5.9-10.73-2.95-1.4,1.06-2.39,2.67-3.81,3.69a3.81,3.81,0,0,1-3.1.49c-.66-.25-1.13-1.62-1.24-2.54-.31-2.41.06-5-.62-7.23-1.35-4.54-6.29-6.14-10.32-3.61-1.75,1.1-3.35,2.42-4.93,3.57-3.27-1-3.62-2.93-2.83-5.78.93-3.33.53-6.57-2.48-8.8s-6.15-1.62-9.18.14c-1.1.64-2.19,1.31-3.23,1.94-3.77-2.34-3.79-2.35-2.27-6.22,1.29-3.28,1.36-6.41-1.32-9-2.51-2.45-5.46-2.37-8.54-1.11a18.53,18.53,0,0,1-3.35,1.11c-.81.15-2.09.21-2.43-.24a4.2,4.2,0,0,1-.91-3.09c.35-1.5,1.43-2.8,2.06-4.24,2.36-5.44-1.59-10.77-7.47-10-2.3.29-4.57.9-6.79,1.35-1.89-2.42-1.46-4.39.41-6.59,2.26-2.65,3.09-5.83,1.12-9s-4.91-3.66-8.3-3.26a8.3,8.3,0,0,1-3.48-.17c-2.66-.88-3-2.79-1.14-4.82.61-.65,1.28-1.25,1.82-2,2-2.5,2.83-5.25,1.35-8.27-1.36-2.76-3.84-3.82-6.78-4a16.86,16.86,0,0,1-4.36-.49c-2.49-.89-2.75-3-.77-4.65.91-.77,1.89-1.46,2.71-2.3,2.16-2.21,3.15-4.85,2.14-7.87s-3.33-4.32-6.23-4.83c-1.26-.22-2.65.06-3.81-.36a3.79,3.79,0,0,1-2.2-2.17,3.6,3.6,0,0,1,1.1-2.82c1.2-1.13,2.88-1.76,4.11-2.86,4.49-4,3.27-10.22-2.37-12.29-1.39-.5-3-.56-4.26-1.2a2.66,2.66,0,0,1-.45-5c1.25-.92,2.87-1.33,4.2-2.16a7.05,7.05,0,0,0,3.68-6.65c-.18-3-2-4.83-4.5-6.13A18.44,18.44,0,0,0,487,552c-1.36-.41-2.18-.94-2.09-2.64a2.78,2.78,0,0,1,2.3-2.92,22,22,0,0,0,4.94-1.89c4.8-2.88,4.92-8.8.3-12-1.13-.78-2.59-1.16-3.56-2.07a5.32,5.32,0,0,1-1.44-3c-.22-1.6.9-2.06,2.41-2.22a18.19,18.19,0,0,0,5.17-1.19c5.09-2.14,6.05-8.1,2-11.86a14.15,14.15,0,0,0-3.06-2.31c-1.71-.88-2.08-2.21-1.14-3.59a5.08,5.08,0,0,1,2.83-1.68c1.8-.45,3.8-.26,5.51-.89,5.09-1.88,6.39-7.1,2.9-11.24-.89-1.05-2.18-1.79-2.92-2.91a3.54,3.54,0,0,1-.53-3,4.12,4.12,0,0,1,2.77-1.69c1.53-.23,3.15.2,4.71.13a7.08,7.08,0,0,0,5.17-11.76c-.73-.93-1.79-1.7-2.22-2.74a3.74,3.74,0,0,1,.12-3,3.67,3.67,0,0,1,2.78-1.16c1.65,0,3.28.69,4.94.77a7,7,0,0,0,6.8-3.92c1.45-2.65.77-5.15-.73-7.54-.77-1.24-1.58-2.46-2.33-3.61,1.25-3.19,3.14-3.51,6-2.19a11.94,11.94,0,0,0,5.77.68,6.48,6.48,0,0,0,5.43-8,27.82,27.82,0,0,0-1.7-4.73,2.5,2.5,0,0,1,.71-3.34c1.17-1.09,2-.95,3.38-.31a21.63,21.63,0,0,0,6.31,2.23c4.65.6,8.24-4.94,6.89-9a12.88,12.88,0,0,1-1-4A3.56,3.56,0,0,1,556,421a3,3,0,0,1,2.55-.09c1.33.62,2.41,1.74,3.71,2.43,2.5,1.34,5.11,1.59,7.59-.06a6.78,6.78,0,0,0,3.16-6.88c-.14-1.17-.72-2.38-.53-3.48a4.55,4.55,0,0,1,1.76-2.87,3.62,3.62,0,0,1,3,.33c1.1.59,1.88,1.73,2.91,2.5a7.31,7.31,0,0,0,7.82,1c2.69-1.23,3.81-3.61,4-6.45.08-1.18-.24-2.47.13-3.53a4.74,4.74,0,0,1,2.14-2.55c.64-.3,1.91.26,2.65.79a18.14,18.14,0,0,1,2.14,2.44c2,2.13,4.44,3.38,7.44,2.57s4.75-3,5.36-6.1a19.92,19.92,0,0,1,.63-3.77,3.35,3.35,0,0,1,2.13-1.77,3.48,3.48,0,0,1,2.69.82c1,.94,1.45,2.35,2.31,3.41,3.89,4.8,10.26,3.82,12.5-1.9.46-1.19.48-2.61,1.14-3.64a4.33,4.33,0,0,1,2.71-1.91,3.77,3.77,0,0,1,2.61,1.55c.77,1,1,2.35,1.69,3.44,3,5,9.36,4.92,12.32-.09a34.14,34.14,0,0,1,1.72-3.42,5.59,5.59,0,0,1,2.63-2c1.52-.43,2.52.37,2.9,2.07.86,4,2.48,7.59,7.11,8,4.47.39,6.53-2.88,8.33-6.39a3.27,3.27,0,0,1,2.75-1.33,4.24,4.24,0,0,1,2.57,2.11c.62,1.18.55,2.69,1,4,1.67,5.35,7.45,6.91,11.5,3.09a19.77,19.77,0,0,0,2.85-3.4c1-1.46,2.23-1.73,3.5-.84a4.78,4.78,0,0,1,1.67,2.58c.35,1.31.15,2.76.42,4.11,1.09,5.46,6.78,7.59,11.17,4.19a25.74,25.74,0,0,0,2.76-2.67c1.16-1.21,2.56-1.82,3.87-.59a6.37,6.37,0,0,1,1.34,3.07,8.71,8.71,0,0,1-.21,2.35c-.2,3.11.83,5.71,3.59,7.29s5.52,1,8-.78c.8-.57,1.57-1.19,2.35-1.8,1.18-.92,2.51-1.54,3.59-.13a5.94,5.94,0,0,1,1,3.19c0,1.24-.53,2.5-.62,3.77-.41,5.72,4.5,9.32,9.78,7.12a54.6,54.6,0,0,0,5.25-2.9c2.78,1,3.62,2.58,2.3,5.58a10.87,10.87,0,0,0-.84,6.23c.85,3.91,4.66,5.8,8.55,4.74,1.52-.42,2.93-1.3,4.46-1.58a3.61,3.61,0,0,1,2.88.79,3.73,3.73,0,0,1,.49,3,15.81,15.81,0,0,1-1.67,3.44,6.33,6.33,0,0,0,.89,7.44c1.88,2.34,4.38,2.9,7.18,2.41a24.89,24.89,0,0,0,3.15-.86c1.49-.45,2.66-.55,3.81,1.05s.33,2.49-.49,3.6a23,23,0,0,0-1.85,2.69c-1.35,2.5-1.67,5,0,7.56a7,7,0,0,0,7.15,3.18c1.08-.14,2.15-.35,3.21-.55,1.53-.29,2.94,0,3.18,1.68a5.53,5.53,0,0,1-.75,3.24c-.67,1.17-1.9,2-2.63,3.17-3.1,4.86-.18,10.59,5.58,11a19.13,19.13,0,0,0,3.55,0c2-.25,3.18.73,3.29,2.44.06.91-1,2-1.65,2.84-1.35,1.77-3.21,3.28-4.12,5.24-1.72,3.71,1.54,8.18,6.37,9.19,1.16.24,2.52,0,3.48.57a6.32,6.32,0,0,1,2.41,2.82c.16.35-1,1.67-1.82,2-3.62,1.58-6.18,5-6,8.35S806,534.69,810,536a7.31,7.31,0,0,0,1.43.36c2.95.21,4,1.75,3.46,3.69-2.85,1.93-5.47,3.14-7.3,5.09-3.32,3.54-2.32,8.29,1.88,10.75a17.24,17.24,0,0,0,3.78,1.68c2,.58,2.18,2,1.62,3.46a3.58,3.58,0,0,1-2.37,1.71c-3.07.61-6.47,3.47-7.14,6.33-.76,3.23.58,6.05,3.93,8.21a14.75,14.75,0,0,0,2.08,1.1c2.34,1,3.13,2.56,2.38,4-3.57,1.46-6.65,2.22-9.15,3.85-3.61,2.37-3.69,7.18-.62,10.32a45.13,45.13,0,0,1,4.19,4.1c1.47,2,.71,3.1-1.7,3.41-2,.25-4.21.4-5.92,1.33-5.92,3.24-6.36,9.28-.82,13.21C802.39,620.46,802.24,622,800.82,623.8Zm-152,51.54c15.29-.06,28.13-2,40.64-6,8.94-2.84,12.15-13.14,6-20-8.09-8.89-16.51-17.47-25-26a13.28,13.28,0,0,0-6.73-3.84c-5.53-.84-11-1.83-16.85-.94-6.22,1-12.59-.75-18.33-3.56-8.36-4.1-16.46-3.15-24.47.68-5,2.37-9.7,5.14-14.59,7.64-4.09,2.09-8.35,3.88-12.38,6.08-8.7,4.78-9.3,15.23-1.29,21.17a121,121,0,0,0,33.65,17.65A132.08,132.08,0,0,0,648.79,675.34ZM530.67,555.63a123.22,123.22,0,0,0,4.89,35.67c3.46,11.41,14.15,14.05,22.78,5.69,7.73-7.49,15.37-15.07,23-22.62,5.51-5.41,6.53-12.25,6.39-19.54-.09-4.61-.3-9.3.41-13.82.59-3.72,2.69-7.17,3.69-10.85,1-3.85,2.71-8,2.09-11.72-.89-5.33-3.4-10.43-5.55-15.48-2.06-4.85-4.54-9.51-6.84-14.25-1.55-3.18-2.59-6.79-4.82-9.38s-5.55-4.05-8.49-5.88a2.72,2.72,0,0,0-2.3,0c-3.48,1.95-7.2,3.43-9.68,6.95a141.54,141.54,0,0,0-17.95,33.54C533.47,527.44,530.57,541.24,530.67,555.63Zm240.07,4.75c0-18.15-2-31.53-6.12-43.15-2.29-6.52-8.3-10.38-15-8.94a14.88,14.88,0,0,0-6.69,4c-7.73,7.61-15.41,15.29-22.76,23.26a22.67,22.67,0,0,0-5.8,18.08,49.28,49.28,0,0,1-4,25.94c-2,4.52-2.8,9.3-1.32,14.13a76.67,76.67,0,0,0,4,10.48c3.87,8.09,7.9,16.1,12,24.07,4.63,9,15.63,9.53,21.51,1.14a129.5,129.5,0,0,0,18.1-35.71C768.5,581.62,770.54,569.39,770.74,560.38Zm-85.48-61.77c3-.79,6-1.17,8.62-2.36,10.31-4.69,20.56-9.49,30.71-14.51,8-4,9.35-13.2,2.56-19a145.43,145.43,0,0,0-17.93-13.07c-4.43-2.77-9.12-5.27-14.65-5.93-3.05-.36-5.8-2.73-8.86-3.5-4.74-1.21-9.63-1.85-14.47-2.68-6.49-1.11-13-2.48-19.63-1.81-.68.07-1.38-.09-2.07-.06-2.87.15-5.73.4-8.6.47-2.25.06-4.5-.11-6.75-.13a12.22,12.22,0,0,0-1.46.21c-6.72.67-13,3-19.21,5.36-5.74,2.2-8.82,6.45-8.79,12,0,4.47,2.51,7.51,5.45,10.44,6.86,6.83,13.77,13.62,20.43,20.63a22.47,22.47,0,0,0,18.69,7.21,55.23,55.23,0,0,1,26.82,4.23C679,497.32,682.15,497.79,685.26,498.61Zm-34,23a33.56,33.56,0,1,0,33.65,33.53A33.75,33.75,0,0,0,651.22,521.59Zm-55.09,78.53a33.14,33.14,0,0,0,4.59-2.26c2.65-1.83,2.66-4.49,2.73-7.55s-1.31-3.67-3.71-4.69c-3.9-1.65-7.17.31-10.65,1a3.1,3.1,0,0,0-1.71,2.39c0,1.48.7,2.95,1,4.44A8.83,8.83,0,0,0,596.13,600.12Zm85.12,9.63c-.15,4.62,2.84,8,7.09,8.16,4.93.13,8.3-4,8.35-10.34,0-2.7-3.33-4.67-8.06-4.73S681.4,605.27,681.25,609.75Zm32.47-91.54a7.32,7.32,0,0,0-7.34-7.63,6.93,6.93,0,0,0-7.26,6.8,7.59,7.59,0,0,0,7.41,8A7.18,7.18,0,0,0,713.72,518.21Zm-99.65-11.16c4.33.07,7.78-3,7.53-7.32-.25-4.55-1.76-7-7-7.09a7.46,7.46,0,0,0-7.71,7.31A7.18,7.18,0,0,0,614.07,507.05Z"/><path class="cls-1" d="M276.29,478.12a222.93,222.93,0,0,1-66.39-11.87,204.89,204.89,0,0,1-56.72-29.75c-13.49-10-12.49-27.64,2.19-35.68,6.79-3.72,13.95-6.74,20.86-10.26,8.24-4.2,16.25-8.88,24.59-12.87,13.49-6.45,27.16-8.06,41.24-1.15,9.67,4.74,20.41,7.6,30.9,6,9.84-1.5,19.07.15,28.39,1.58,4,.62,8.35,3.45,11.35,6.46,14.3,14.35,28.5,28.81,42.12,43.8,10.45,11.49,5,28.85-10,33.64C323.7,474.74,302.05,478,276.29,478.12Z"/><path class="cls-1" d="M77.2,276.36c-.16-24.26,4.73-47.5,12.91-70.3,7.33-20.41,17.88-38.89,30.26-56.52,4.18-5.95,10.46-8.43,16.31-11.71a4.53,4.53,0,0,1,3.89,0c4.94,3.08,10.62,5.65,14.29,9.91s5.53,10.45,8.13,15.8c3.89,8,8,15.85,11.53,24,3.62,8.53,7.87,17.12,9.36,26.1,1,6.23-1.75,13.26-3.52,19.75-1.69,6.21-5.23,12-6.22,18.29-1.2,7.61-.85,15.52-.7,23.29.24,12.29-1.47,23.82-10.76,32.94-12.94,12.72-25.81,25.5-38.84,38.12-14.53,14.09-32.55,9.64-38.4-9.59C79.5,316.91,77.27,296.77,77.2,276.36Z"/><path class="cls-1" d="M481.82,284.36c-.33,15.2-3.77,35.81-10.12,56.1-6.85,21.84-17.47,41.58-30.5,60.18-9.92,14.15-28.46,13.25-36.26-1.91-6.92-13.44-13.71-27-20.23-40.58A128.48,128.48,0,0,1,378,340.49c-2.5-8.13-1.2-16.2,2.22-23.82A83.14,83.14,0,0,0,386.9,273a38.18,38.18,0,0,1,9.78-30.46C409.06,229.05,422,216.1,435,203.28c3.06-3,7.19-5.82,11.27-6.7,11.22-2.43,21.34,4.07,25.19,15C478.37,231.22,481.85,253.77,481.82,284.36Z"/><path class="cls-1" d="M337.75,180.27c-5.23-1.4-10.58-2.19-15.4-4.23a93.07,93.07,0,0,0-45.21-7.12,37.84,37.84,0,0,1-31.48-12.15c-11.24-11.83-22.89-23.27-34.45-34.78-5-4.93-9.15-10.06-9.19-17.6,0-9.41,5.15-16.57,14.83-20.29,10.51-4,21.05-7.9,32.36-9a23.93,23.93,0,0,1,2.46-.36c3.8.05,7.6.32,11.39.23,4.84-.12,9.66-.54,14.5-.79,1.16-.06,2.34.22,3.49.1,11.23-1.14,22.14,1.18,33.08,3,8.15,1.39,16.39,2.48,24.38,4.51,5.16,1.31,9.8,5.3,14.93,5.91,9.33,1.1,17.22,5.32,24.7,10a246.22,246.22,0,0,1,30.22,22c11.44,9.85,9.14,25.42-4.32,32.09-17.1,8.47-34.38,16.56-51.76,24.45C347.84,178.29,342.77,178.93,337.75,180.27Z"/><path class="cls-1" d="M280.38,219a56.56,56.56,0,1,1,.26,113.12c-31.34.06-56.91-25.1-57-56.14A56.88,56.88,0,0,1,280.38,219Z"/><path class="cls-1" d="M187.54,351.35c-6.43-.76-11.87-5.33-13.07-11.29-.51-2.52-1.7-5-1.68-7.49,0-1.4,1.64-3.79,2.87-4,5.88-1.12,11.39-4.43,18-1.64,4,1.72,6.35,2.55,6.24,7.91-.11,5.14-.14,9.63-4.6,12.71C192.93,349.15,190.13,350.1,187.54,351.35Z"/><path class="cls-1" d="M331,367.58c.24-7.56,4.71-11.75,12.43-11.65,8,.1,13.63,3.42,13.6,8-.09,10.61-5.77,17.64-14.08,17.43C335.78,381.15,330.75,375.36,331,367.58Z"/><path class="cls-1" d="M385.71,213.28a12.09,12.09,0,0,1-12.1,12,12.79,12.79,0,0,1-12.5-13.42c.23-6.69,5.36-11.49,12.24-11.45A12.31,12.31,0,0,1,385.71,213.28Z"/><path class="cls-1" d="M217.77,194.48a12.11,12.11,0,0,1-12.15-12c0-6.86,5.88-12.44,13-12.32,8.87.14,11.41,4.28,11.85,12C230.88,189.42,225.07,194.6,217.77,194.48Z"/></svg>
