<svg xmlns="http://www.w3.org/2000/svg" xmlns:xlink="http://www.w3.org/1999/xlink" width="1920" height="1080" viewBox="0 0 1920 1080"><defs><style>.cls-1{fill:#84c9d9;}.cls-2{fill:#666;}.cls-3{fill:#f28a2e;}.cls-4{fill:#5679bf;}.cls-12,.cls-5{fill:#fff;}.cls-6{fill:url(#radial-gradient);}.cls-7,.cls-8{fill:none;stroke:#fff;}.cls-12,.cls-7,.cls-8{stroke-miterlimit:10;}.cls-7{stroke-width:5.04px;}.cls-8{stroke-width:4.71px;}.cls-9{fill:#d92525;}.cls-10{fill:#ededed;}.cls-11{fill:#f2e205;}.cls-12{stroke:#000;stroke-width:0.49px;}</style><radialGradient id="radial-gradient" cx="2131.79" cy="508.08" fx="2148.737105288857" fy="571.2827493122115" r="69.25" gradientTransform="matrix(-0.6, 0.49, -0.41, -0.59, 3223.72, -192.12)" gradientUnits="userSpaceOnUse"><stop offset="0.04" stop-color="#fcee21"/><stop offset="0.23" stop-color="#f5a42b"/><stop offset="0.3" stop-color="#f28a2e"/><stop offset="0.41" stop-color="#ea833c"/><stop offset="0.6" stop-color="#d57260"/><stop offset="0.86" stop-color="#b3579a"/><stop offset="1" stop-color="#a047bb"/></radialGradient></defs><title>titelskærm</title><g id="Titelskærm"><g id="Baggrund-2" data-name="Baggrund"><rect class="cls-1" width="1920" height="1080"/></g><g id="Layer_3" data-name="Layer 3"><rect class="cls-2" x="965.37" y="499.89" width="21.44" height="38.15" rx="10.58"/><path class="cls-2" d="M1048.76,624c0,95.17-17,161.85-74.29,161.85S902.36,712.17,902.36,617s14.78-94.31,72.11-94.31S1048.76,528.81,1048.76,624Z"/><ellipse class="cls-2" cx="894.15" cy="583.64" rx="60.81" ry="12.74" transform="translate(-48.8 1084.64) rotate(-61.12)"/><ellipse class="cls-2" cx="1052.57" cy="584.81" rx="12.74" ry="60.81" transform="translate(-151.54 581.18) rotate(-28.88)"/><ellipse class="cls-2" cx="889.55" cy="650.27" rx="13.01" ry="34" transform="translate(-189.26 874.59) rotate(-47.91)"/><ellipse class="cls-2" cx="1056.71" cy="650.27" rx="34" ry="13.01" transform="translate(-163.36 875.94) rotate(-42.09)"/><rect class="cls-2" x="102.35" y="742.08" width="21.44" height="38.15" rx="10.58"/><ellipse class="cls-2" cx="32.39" cy="834.75" rx="62.71" ry="12.74" transform="translate(-714.11 459.78) rotate(-61.11)"/><ellipse class="cls-2" cx="192.03" cy="838.73" rx="12.74" ry="65.92" transform="translate(-381.5 197.32) rotate(-28.91)"/><path class="cls-2" d="M185.74,873.15c0,95.18-17,161.85-74.3,161.85S39.33,961.34,39.33,866.17s14.79-94.32,72.11-94.32S185.74,778,185.74,873.15Z"/><ellipse class="cls-2" cx="26.31" cy="901.16" rx="11.37" ry="32.57" transform="translate(-689.91 353.62) rotate(-50.93)"/><ellipse class="cls-2" cx="198.94" cy="908.15" rx="32.57" ry="11.37" transform="translate(-527.89 328.47) rotate(-39.07)"/><rect class="cls-2" x="277.17" y="698.99" width="21.44" height="38.15" rx="10.58"/><path class="cls-2" d="M360.56,823.09c0,95.17-17,161.84-74.3,161.84s-72.11-73.66-72.11-168.83,14.78-94.31,72.11-94.31S360.56,727.91,360.56,823.09Z"/><ellipse class="cls-2" cx="205.94" cy="782.75" rx="60.81" ry="12.74" transform="translate(-578.91 584.98) rotate(-61.12)"/><ellipse class="cls-2" cx="364.36" cy="783.91" rx="12.74" ry="60.81" transform="translate(-333.33 273.52) rotate(-28.88)"/><ellipse class="cls-2" cx="201.34" cy="849.38" rx="13.01" ry="34" transform="translate(-563.96 429.5) rotate(-47.91)"/><ellipse class="cls-2" cx="368.5" cy="849.38" rx="34" ry="13.01" transform="translate(-474.27 466.01) rotate(-42.09)"/><rect class="cls-2" x="102.35" y="742.08" width="21.44" height="38.15" rx="10.58"/><ellipse class="cls-2" cx="32.39" cy="834.75" rx="62.71" ry="12.74" transform="translate(-714.11 459.78) rotate(-61.11)"/><ellipse class="cls-2" cx="192.03" cy="838.73" rx="12.74" ry="65.92" transform="translate(-381.5 197.32) rotate(-28.91)"/><path class="cls-2" d="M185.74,873.15c0,95.18-17,161.85-74.3,161.85S39.33,961.34,39.33,866.17s14.79-94.32,72.11-94.32S185.74,778,185.74,873.15Z"/><ellipse class="cls-2" cx="26.31" cy="901.16" rx="11.37" ry="32.57" transform="translate(-689.91 353.62) rotate(-50.93)"/><ellipse class="cls-2" cx="198.94" cy="908.15" rx="32.57" ry="11.37" transform="translate(-527.89 328.47) rotate(-39.07)"/><rect class="cls-2" x="277.17" y="698.99" width="21.44" height="38.15" rx="10.58"/><path class="cls-2" d="M360.56,823.09c0,95.17-17,161.84-74.3,161.84s-72.11-73.66-72.11-168.83,14.78-94.31,72.11-94.31S360.56,727.91,360.56,823.09Z"/><ellipse class="cls-2" cx="205.94" cy="782.75" rx="60.81" ry="12.74" transform="translate(-578.91 584.98) rotate(-61.12)"/><ellipse class="cls-2" cx="364.36" cy="783.91" rx="12.74" ry="60.81" transform="translate(-333.33 273.52) rotate(-28.88)"/><ellipse class="cls-2" cx="201.34" cy="849.38" rx="13.01" ry="34" transform="translate(-563.96 429.5) rotate(-47.91)"/><ellipse class="cls-2" cx="368.5" cy="849.38" rx="34" ry="13.01" transform="translate(-474.27 466.01) rotate(-42.09)"/><rect class="cls-2" x="1127.61" y="508.6" width="21.56" height="39.5" rx="10.78" transform="translate(2276.79 1056.7) rotate(-180)"/><ellipse class="cls-2" cx="1219.55" cy="604.57" rx="12.9" ry="64.51" transform="translate(-140.98 646.5) rotate(-28.13)"/><ellipse class="cls-2" cx="1058.97" cy="608.69" rx="67.81" ry="12.9" transform="translate(22.64 1255.16) rotate(-61.85)"/><path class="cls-2" d="M1065.3,644.34c0,98.55,17.07,167.6,74.73,167.6s72.53-76.28,72.53-174.84-14.87-97.67-72.53-97.67S1065.3,545.78,1065.3,644.34Z"/><ellipse class="cls-2" cx="1225.66" cy="673.34" rx="33.15" ry="11.63" transform="translate(-145.51 948.17) rotate(-40.12)"/><ellipse class="cls-2" cx="1052.01" cy="680.58" rx="11.63" ry="33.15" transform="translate(-146.31 1046.55) rotate(-49.88)"/><rect class="cls-2" x="1127.61" y="508.6" width="21.56" height="39.5" rx="10.78" transform="translate(2276.79 1056.7) rotate(-180)"/><ellipse class="cls-2" cx="1219.55" cy="604.57" rx="12.9" ry="64.51" transform="translate(-140.98 646.5) rotate(-28.13)"/><ellipse class="cls-2" cx="1058.97" cy="608.69" rx="67.81" ry="12.9" transform="translate(22.64 1255.16) rotate(-61.85)"/><path class="cls-2" d="M1065.3,644.34c0,98.55,17.07,167.6,74.73,167.6s72.53-76.28,72.53-174.84-14.87-97.67-72.53-97.67S1065.3,545.78,1065.3,644.34Z"/><ellipse class="cls-2" cx="1225.66" cy="673.34" rx="33.15" ry="11.63" transform="translate(-145.51 948.17) rotate(-40.12)"/><ellipse class="cls-2" cx="1052.01" cy="680.58" rx="11.63" ry="33.15" transform="translate(-146.31 1046.55) rotate(-49.88)"/><rect class="cls-2" x="1460.61" y="635.2" width="21.56" height="39.5" rx="10.78" transform="translate(2942.79 1309.91) rotate(180)"/><ellipse class="cls-2" cx="1552.55" cy="731.17" rx="12.9" ry="64.51" transform="translate(-161.34 818.49) rotate(-28.13)"/><ellipse class="cls-2" cx="1391.97" cy="735.29" rx="67.81" ry="12.9" transform="translate(86.89 1615.63) rotate(-61.85)"/><path class="cls-2" d="M1398.3,770.94c0,98.56,17.07,167.6,74.73,167.6s72.53-76.28,72.53-174.83S1530.69,666,1473,666,1398.3,672.38,1398.3,770.94Z"/><ellipse class="cls-2" cx="1558.66" cy="799.95" rx="33.15" ry="11.63" transform="translate(-148.74 1192.53) rotate(-40.12)"/><ellipse class="cls-2" cx="1385.01" cy="807.18" rx="11.63" ry="33.15" transform="translate(-124.7 1346.23) rotate(-49.88)"/><rect class="cls-2" x="1290.27" y="589.38" width="21.56" height="39.5" rx="10.78" transform="translate(2602.1 1218.27) rotate(-180)"/><path class="cls-2" d="M1228,717.89c0,98.55,17.07,167.6,74.73,167.6s72.54-76.28,72.54-174.84S1360.34,613,1302.68,613,1228,619.33,1228,717.89Z"/><ellipse class="cls-2" cx="1383.47" cy="676.12" rx="12.9" ry="62.55" transform="translate(-155.36 731.91) rotate(-28.12)"/><ellipse class="cls-2" cx="1224.12" cy="677.32" rx="62.55" ry="12.9" transform="translate(49.77 1437.68) rotate(-61.88)"/><ellipse class="cls-2" cx="1388.1" cy="745.11" rx="34.66" ry="13.29" transform="matrix(0.73, -0.68, 0.68, 0.73, -133.83, 1152.23)"/><ellipse class="cls-2" cx="1219.96" cy="745.11" rx="13.29" ry="34.66" transform="translate(-158.34 1124.31) rotate(-46.8)"/><ellipse class="cls-2" cx="1846.38" cy="657.78" rx="22.83" ry="24.52"/><ellipse class="cls-2" cx="1834.45" cy="632.84" rx="22.83" ry="24.52"/><ellipse class="cls-2" cx="1812.72" cy="626.92" rx="22.83" ry="24.52"/><ellipse class="cls-2" cx="1789.89" cy="623.3" rx="22.83" ry="24.52"/><ellipse class="cls-2" cx="1769.51" cy="632.15" rx="22.83" ry="24.52"/><ellipse class="cls-2" cx="1759.62" cy="657.76" rx="22.83" ry="24.52"/><rect class="cls-2" x="1792.51" y="731.66" width="21.56" height="39.5" rx="10.78" transform="translate(3606.59 1502.83) rotate(180)"/><ellipse class="cls-2" cx="1884.45" cy="827.63" rx="12.9" ry="64.51" transform="translate(-167.6 986.39) rotate(-28.13)"/><ellipse class="cls-2" cx="1723.87" cy="831.75" rx="67.81" ry="12.9" transform="translate(177.14 1959.21) rotate(-61.85)"/><path class="cls-2" d="M1747.93,670.44c0,5.43-1.45,18.13,4.73,32.09,2.85,6.42,10.54,26.66,26.89,34.85a52.48,52.48,0,0,0,24.27,5.5c29.78-.86,40.6-28.35,41.69-30.26,8.28-14.6,13.54-29.12,13.26-36.86-.41-11.39-1.09-29.68-15.48-42.9-9.38-8.63-22.78-12.86-39.47-12.86C1769.29,620,1747.93,632.8,1747.93,670.44Z"/><path class="cls-2" d="M1730.2,867.4c0,98.56,17.07,167.6,74.73,167.6s72.53-76.28,72.53-174.83-14.87-97.67-72.53-97.67S1730.2,768.84,1730.2,867.4Z"/><ellipse class="cls-2" cx="1890.56" cy="896.41" rx="33.15" ry="11.63" transform="translate(-132.81 1429.08) rotate(-40.12)"/><ellipse class="cls-2" cx="1716.91" cy="903.64" rx="11.63" ry="33.15" transform="translate(-80.42 1634.35) rotate(-49.88)"/><rect class="cls-2" x="1616.67" y="687.05" width="21.56" height="39.5" rx="10.78" transform="translate(3254.91 1413.6) rotate(180)"/><path class="cls-2" d="M1552,657.65c0,46.4,30.21,37.93,72.44,37.93s80.48,8.47,80.48-37.93-34.81-92.65-77-92.65S1552,611.25,1552,657.65Z"/><path class="cls-2" d="M1554.35,815.55c0,98.56,17.08,167.6,74.74,167.6s72.53-76.28,72.53-174.83-14.87-97.67-72.53-97.67S1554.35,717,1554.35,815.55Z"/><ellipse class="cls-2" cx="1709.88" cy="773.78" rx="12.9" ry="62.55" transform="translate(-162.86 897.29) rotate(-28.12)"/><ellipse class="cls-2" cx="1550.52" cy="774.99" rx="62.55" ry="12.9" transform="translate(136.19 1777.18) rotate(-61.88)"/><ellipse class="cls-2" cx="1714.51" cy="842.78" rx="34.66" ry="13.29" transform="translate(-112.22 1402.15) rotate(-43.2)"/><ellipse class="cls-2" cx="1546.36" cy="842.78" rx="13.29" ry="34.66" transform="translate(-126.58 1393.04) rotate(-46.8)"/><ellipse class="cls-2" cx="1846.38" cy="657.78" rx="22.83" ry="24.52"/><ellipse class="cls-2" cx="1834.45" cy="632.84" rx="22.83" ry="24.52"/><ellipse class="cls-2" cx="1812.72" cy="626.92" rx="22.83" ry="24.52"/><ellipse class="cls-2" cx="1789.89" cy="623.3" rx="22.83" ry="24.52"/><ellipse class="cls-2" cx="1769.51" cy="632.15" rx="22.83" ry="24.52"/><ellipse class="cls-2" cx="1759.62" cy="657.76" rx="22.83" ry="24.52"/><rect class="cls-2" x="1792.51" y="731.66" width="21.56" height="39.5" rx="10.78" transform="translate(3606.59 1502.83) rotate(180)"/><ellipse class="cls-2" cx="1884.45" cy="827.63" rx="12.9" ry="64.51" transform="translate(-167.6 986.39) rotate(-28.13)"/><ellipse class="cls-2" cx="1723.87" cy="831.75" rx="67.81" ry="12.9" transform="translate(177.14 1959.21) rotate(-61.85)"/><path class="cls-2" d="M1730.2,867.4c0,98.56,17.07,167.6,74.73,167.6s72.53-76.28,72.53-174.83-14.87-97.67-72.53-97.67S1730.2,768.84,1730.2,867.4Z"/><ellipse class="cls-2" cx="1890.56" cy="896.41" rx="33.15" ry="11.63" transform="translate(-132.81 1429.08) rotate(-40.12)"/><ellipse class="cls-2" cx="1716.91" cy="903.64" rx="11.63" ry="33.15" transform="translate(-80.42 1634.35) rotate(-49.88)"/><rect class="cls-2" x="1616.67" y="687.05" width="21.56" height="39.5" rx="10.78" transform="translate(3254.91 1413.6) rotate(180)"/><path class="cls-2" d="M1554.35,815.55c0,98.56,17.08,167.6,74.74,167.6s72.53-76.28,72.53-174.83-14.87-97.67-72.53-97.67S1554.35,717,1554.35,815.55Z"/><ellipse class="cls-2" cx="1709.88" cy="773.78" rx="12.9" ry="62.55" transform="translate(-162.86 897.29) rotate(-28.12)"/><ellipse class="cls-2" cx="1550.52" cy="774.99" rx="62.55" ry="12.9" transform="translate(136.19 1777.18) rotate(-61.88)"/><ellipse class="cls-2" cx="1714.51" cy="842.78" rx="34.66" ry="13.29" transform="translate(-112.22 1402.15) rotate(-43.2)"/><ellipse class="cls-2" cx="1546.36" cy="842.78" rx="13.29" ry="34.66" transform="translate(-126.58 1393.04) rotate(-46.8)"/><polygon class="cls-2" points="-95 1032 -77 891 979 626 1985 908 2005 1281 -107 1223 -95 1032"/><ellipse class="cls-2" cx="1518.38" cy="563.78" rx="22.83" ry="24.52"/><ellipse class="cls-2" cx="1506.45" cy="538.84" rx="22.83" ry="24.52"/><ellipse class="cls-2" cx="1484.72" cy="532.92" rx="22.83" ry="24.52"/><ellipse class="cls-2" cx="1461.89" cy="529.3" rx="22.83" ry="24.52"/><ellipse class="cls-2" cx="1441.51" cy="538.15" rx="22.83" ry="24.52"/><ellipse class="cls-2" cx="1431.62" cy="563.76" rx="22.83" ry="24.52"/><path class="cls-2" d="M1419.93,576.44c0,5.43-1.45,18.13,4.73,32.09,2.85,6.42,10.54,26.66,26.89,34.85a52.48,52.48,0,0,0,24.27,5.5c29.78-.86,40.6-28.35,41.69-30.26,8.28-14.6,13.54-29.12,13.26-36.86-.41-11.39-1.09-29.68-15.48-42.9-9.38-8.63-22.78-12.86-39.47-12.86C1441.29,526,1419.93,538.8,1419.93,576.44Z"/><ellipse class="cls-2" cx="1518.38" cy="563.78" rx="22.83" ry="24.52"/><ellipse class="cls-2" cx="1506.45" cy="538.84" rx="22.83" ry="24.52"/><ellipse class="cls-2" cx="1484.72" cy="532.92" rx="22.83" ry="24.52"/><ellipse class="cls-2" cx="1461.89" cy="529.3" rx="22.83" ry="24.52"/><ellipse class="cls-2" cx="1441.51" cy="538.15" rx="22.83" ry="24.52"/><ellipse class="cls-2" cx="1431.62" cy="563.76" rx="22.83" ry="24.52"/><path class="cls-2" d="M1225,560.65c0,46.4,30.21,37.93,72.44,37.93s80.48,8.47,80.48-37.93-34.81-92.65-77-92.65S1225,514.25,1225,560.65Z"/><ellipse class="cls-2" cx="1182.38" cy="440.78" rx="22.83" ry="24.52"/><ellipse class="cls-2" cx="1170.45" cy="415.84" rx="22.83" ry="24.52"/><ellipse class="cls-2" cx="1148.72" cy="409.92" rx="22.83" ry="24.52"/><ellipse class="cls-2" cx="1125.89" cy="406.3" rx="22.83" ry="24.52"/><ellipse class="cls-2" cx="1105.51" cy="415.15" rx="22.83" ry="24.52"/><ellipse class="cls-2" cx="1095.62" cy="440.76" rx="22.83" ry="24.52"/><path class="cls-2" d="M1083.93,453.44c0,5.43-1.45,18.13,4.73,32.09,2.85,6.42,10.54,26.66,26.89,34.85a52.48,52.48,0,0,0,24.27,5.5c29.78-.86,40.6-28.35,41.69-30.26,8.28-14.6,13.54-29.12,13.26-36.86-.41-11.39-1.09-29.68-15.48-42.9-9.38-8.63-22.78-12.86-39.47-12.86C1105.29,403,1083.93,415.8,1083.93,453.44Z"/><ellipse class="cls-2" cx="1182.38" cy="440.78" rx="22.83" ry="24.52"/><ellipse class="cls-2" cx="1170.45" cy="415.84" rx="22.83" ry="24.52"/><ellipse class="cls-2" cx="1148.72" cy="409.92" rx="22.83" ry="24.52"/><ellipse class="cls-2" cx="1125.89" cy="406.3" rx="22.83" ry="24.52"/><ellipse class="cls-2" cx="1105.51" cy="415.15" rx="22.83" ry="24.52"/><ellipse class="cls-2" cx="1095.62" cy="440.76" rx="22.83" ry="24.52"/><path class="cls-2" d="M900,468.65c0,46.4,30.21,37.93,72.44,37.93s80.48,8.47,80.48-37.93-34.81-92.65-77-92.65S900,422.25,900,468.65Z"/><ellipse class="cls-2" cx="817.38" cy="459.78" rx="22.83" ry="24.52"/><ellipse class="cls-2" cx="805.45" cy="434.84" rx="22.83" ry="24.52"/><ellipse class="cls-2" cx="783.72" cy="428.92" rx="22.83" ry="24.52"/><ellipse class="cls-2" cx="760.89" cy="425.3" rx="22.83" ry="24.52"/><ellipse class="cls-2" cx="740.51" cy="434.15" rx="22.83" ry="24.52"/><ellipse class="cls-2" cx="730.62" cy="459.76" rx="22.83" ry="24.52"/><path class="cls-2" d="M718.93,472.44c0,5.43-1.45,18.13,4.73,32.09,2.85,6.42,10.54,26.66,26.89,34.85a52.48,52.48,0,0,0,24.27,5.5c29.78-.86,40.6-28.35,41.69-30.26,8.28-14.6,13.54-29.12,13.26-36.86-.41-11.39-1.09-29.68-15.48-42.9-9.38-8.63-22.78-12.86-39.47-12.86C740.29,422,718.93,434.8,718.93,472.44Z"/><ellipse class="cls-2" cx="817.38" cy="459.78" rx="22.83" ry="24.52"/><ellipse class="cls-2" cx="805.45" cy="434.84" rx="22.83" ry="24.52"/><ellipse class="cls-2" cx="783.72" cy="428.92" rx="22.83" ry="24.52"/><ellipse class="cls-2" cx="760.89" cy="425.3" rx="22.83" ry="24.52"/><ellipse class="cls-2" cx="740.51" cy="434.15" rx="22.83" ry="24.52"/><ellipse class="cls-2" cx="730.62" cy="459.76" rx="22.83" ry="24.52"/><path class="cls-2" d="M535,572.65c0,46.4,30.21,37.93,72.44,37.93s80.48,8.47,80.48-37.93S653.11,480,610.88,480,535,526.25,535,572.65Z"/><ellipse class="cls-2" cx="486.38" cy="581.78" rx="22.83" ry="24.52"/><ellipse class="cls-2" cx="474.45" cy="556.84" rx="22.83" ry="24.52"/><ellipse class="cls-2" cx="452.72" cy="550.92" rx="22.83" ry="24.52"/><ellipse class="cls-2" cx="429.89" cy="547.3" rx="22.83" ry="24.52"/><ellipse class="cls-2" cx="409.51" cy="556.15" rx="22.83" ry="24.52"/><ellipse class="cls-2" cx="399.62" cy="581.76" rx="22.83" ry="24.52"/><path class="cls-2" d="M387.93,594.44c0,5.43-1.45,18.13,4.73,32.09,2.85,6.42,10.54,26.66,26.89,34.85a52.48,52.48,0,0,0,24.27,5.5c29.78-.86,40.6-28.35,41.69-30.26,8.28-14.6,13.54-29.12,13.26-36.86-.41-11.39-1.09-29.68-15.48-42.9-9.38-8.63-22.78-12.86-39.47-12.86C409.29,544,387.93,556.8,387.93,594.44Z"/><ellipse class="cls-2" cx="486.38" cy="581.78" rx="22.83" ry="24.52"/><ellipse class="cls-2" cx="474.45" cy="556.84" rx="22.83" ry="24.52"/><ellipse class="cls-2" cx="452.72" cy="550.92" rx="22.83" ry="24.52"/><ellipse class="cls-2" cx="429.89" cy="547.3" rx="22.83" ry="24.52"/><ellipse class="cls-2" cx="409.51" cy="556.15" rx="22.83" ry="24.52"/><ellipse class="cls-2" cx="399.62" cy="581.76" rx="22.83" ry="24.52"/><path class="cls-2" d="M211,670.65c0,46.4,30.21,37.93,72.44,37.93s80.48,8.47,80.48-37.93S329.11,578,286.88,578,211,624.25,211,670.65Z"/><ellipse class="cls-2" cx="156.38" cy="673.78" rx="22.83" ry="24.52"/><ellipse class="cls-2" cx="144.45" cy="648.84" rx="22.83" ry="24.52"/><ellipse class="cls-2" cx="122.72" cy="642.92" rx="22.83" ry="24.52"/><ellipse class="cls-2" cx="99.89" cy="639.3" rx="22.83" ry="24.52"/><ellipse class="cls-2" cx="79.51" cy="648.15" rx="22.83" ry="24.52"/><ellipse class="cls-2" cx="69.62" cy="673.76" rx="22.83" ry="24.52"/><path class="cls-2" d="M57.93,686.44c0,5.43-1.45,18.13,4.73,32.09,2.85,6.42,10.54,26.66,26.89,34.85a52.48,52.48,0,0,0,24.27,5.5c29.78-.86,40.6-28.35,41.69-30.26,8.28-14.6,13.54-29.12,13.26-36.86-.41-11.39-1.09-29.68-15.48-42.9-9.38-8.63-22.78-12.86-39.47-12.86C79.29,636,57.93,648.8,57.93,686.44Z"/><ellipse class="cls-2" cx="156.38" cy="673.78" rx="22.83" ry="24.52"/><ellipse class="cls-2" cx="144.45" cy="648.84" rx="22.83" ry="24.52"/><ellipse class="cls-2" cx="122.72" cy="642.92" rx="22.83" ry="24.52"/><ellipse class="cls-2" cx="99.89" cy="639.3" rx="22.83" ry="24.52"/><ellipse class="cls-2" cx="79.51" cy="648.15" rx="22.83" ry="24.52"/><ellipse class="cls-2" cx="69.62" cy="673.76" rx="22.83" ry="24.52"/><rect class="cls-2" x="763.37" y="526.67" width="21.44" height="38.15" rx="10.58"/><ellipse class="cls-2" cx="693.41" cy="619.35" rx="62.71" ry="12.74" transform="translate(-183.88 927.19) rotate(-61.11)"/><ellipse class="cls-2" cx="853.06" cy="623.32" rx="12.74" ry="65.92" transform="translate(-195.02 490.01) rotate(-28.91)"/><path class="cls-2" d="M846.76,657.75c0,95.17-17,161.84-74.29,161.84s-72.12-73.66-72.12-168.83,14.79-94.31,72.12-94.31S846.76,562.57,846.76,657.75Z"/><ellipse class="cls-2" cx="687.34" cy="685.76" rx="11.37" ry="32.57" transform="translate(-278.28 787.18) rotate(-50.93)"/><ellipse class="cls-2" cx="859.97" cy="692.74" rx="32.57" ry="11.37" transform="translate(-244.31 696.93) rotate(-39.07)"/><rect class="cls-2" x="965.37" y="499.89" width="21.44" height="38.15" rx="10.58"/><ellipse class="cls-2" cx="864.55" cy="650.27" rx="13.01" ry="34" transform="translate(-197.51 856.04) rotate(-47.91)"/><rect class="cls-2" x="763.37" y="526.67" width="21.44" height="38.15" rx="10.58"/><ellipse class="cls-2" cx="693.41" cy="619.35" rx="62.71" ry="12.74" transform="translate(-183.88 927.19) rotate(-61.11)"/><ellipse class="cls-2" cx="853.06" cy="623.32" rx="12.74" ry="65.92" transform="translate(-195.02 490.01) rotate(-28.91)"/><path class="cls-2" d="M846.76,657.75c0,95.17-17,161.84-74.29,161.84s-72.12-73.66-72.12-168.83,14.79-94.31,72.12-94.31S846.76,562.57,846.76,657.75Z"/><ellipse class="cls-2" cx="687.34" cy="685.76" rx="11.37" ry="32.57" transform="translate(-278.28 787.18) rotate(-50.93)"/><ellipse class="cls-2" cx="859.97" cy="692.74" rx="32.57" ry="11.37" transform="translate(-244.31 696.93) rotate(-39.07)"/><rect class="cls-2" x="432.32" y="648.93" width="21.44" height="38.15" rx="10.58"/><ellipse class="cls-2" cx="362.35" cy="741.6" rx="62.71" ry="12.74" transform="translate(-462.02 700.53) rotate(-61.11)"/><ellipse class="cls-2" cx="522" cy="745.58" rx="12.74" ry="65.92" transform="translate(-295.36 345.21) rotate(-28.91)"/><path class="cls-2" d="M515.71,780c0,95.17-17,161.84-74.3,161.84S369.3,868.19,369.3,773s14.78-94.31,72.11-94.31S515.71,684.83,515.71,780Z"/><ellipse class="cls-2" cx="356.28" cy="808.01" rx="11.37" ry="32.57" transform="translate(-495.6 575.35) rotate(-50.93)"/><ellipse class="cls-2" cx="528.91" cy="815" rx="32.57" ry="11.37" transform="translate(-395.39 515.61) rotate(-39.07)"/><rect class="cls-2" x="601.67" y="604.68" width="21.44" height="38.15" rx="10.58"/><path class="cls-2" d="M685.06,728.77c0,95.18-17,161.85-74.3,161.85S538.65,817,538.65,721.79s14.79-94.32,72.11-94.32S685.06,633.6,685.06,728.77Z"/><ellipse class="cls-2" cx="530.44" cy="688.44" rx="60.81" ry="12.74" transform="translate(-328.58 820.35) rotate(-61.12)"/><ellipse class="cls-2" cx="688.87" cy="689.6" rx="12.74" ry="60.81" transform="translate(-247.41 418.53) rotate(-28.88)"/><ellipse class="cls-2" cx="525.84" cy="755.07" rx="13.01" ry="34" transform="translate(-386.97 639.23) rotate(-47.91)"/><ellipse class="cls-2" cx="693.01" cy="755.07" rx="34" ry="13.01" transform="translate(-327.38 659.19) rotate(-42.09)"/></g><g id="Layer_7" data-name="Layer 7"><rect class="cls-3" x="935.97" y="545.63" width="26.68" height="48.5" rx="13.29" transform="translate(1898.62 1139.76) rotate(180)"/><ellipse class="cls-3" cx="1049.72" cy="663.45" rx="15.93" ry="79.33" transform="translate(-189.13 577.8) rotate(-28.34)"/><ellipse class="cls-3" cx="851.03" cy="668.5" rx="83.4" ry="15.93" transform="translate(-141.46 1099.91) rotate(-61.64)"/><ellipse class="cls-3" cx="1057.28" cy="747.87" rx="40.89" ry="14.33" transform="translate(-233.67 850.79) rotate(-39.83)"/><ellipse class="cls-3" cx="842.43" cy="756.75" rx="14.33" ry="40.89" transform="translate(-278.31 918.94) rotate(-50.17)"/><rect class="cls-3" x="935.97" y="545.63" width="26.68" height="48.5" rx="13.29" transform="translate(1898.62 1139.76) rotate(180)"/><ellipse class="cls-3" cx="1049.72" cy="663.45" rx="15.93" ry="79.33" transform="translate(-189.13 577.8) rotate(-28.34)"/><ellipse class="cls-3" cx="851.03" cy="668.5" rx="83.4" ry="15.93" transform="translate(-141.46 1099.91) rotate(-61.64)"/><path class="cls-3" d="M858.86,703.32c0,112.58,21.12,191.45,92.47,191.45s89.75-87.14,89.75-199.72-18.4-111.56-89.75-111.56S858.86,590.74,858.86,703.32Z"/><ellipse class="cls-3" cx="1057.28" cy="747.87" rx="40.89" ry="14.33" transform="translate(-233.67 850.79) rotate(-39.83)"/><ellipse class="cls-3" cx="842.43" cy="756.75" rx="14.33" ry="40.89" transform="translate(-278.31 918.94) rotate(-50.17)"/><path class="cls-3" d="M881.91,477.92c0,6.66-1.79,22.25,5.86,39.4,3.52,7.88,13,32.73,33.28,42.77a65.49,65.49,0,0,0,30,6.76c36.85-1.06,50.24-34.8,51.58-37.15,10.25-17.92,16.76-35.74,16.41-45.25-.51-14-1.35-36.43-19.15-52.66C988.3,421.2,971.73,416,951.07,416,908.34,416,881.91,431.71,881.91,477.92Z"/><path class="cls-3" d="M895.68,1045.76v-45.23c0-18.73-1.56-36.35-1.56-55.07,0-16-4.69-32.59-4.69-48.61v-34h59.39v34c0,15-4.69,31.63-4.69,46.64,0,19.74-1.56,41.23-1.56,61v41.3"/><path class="cls-3" d="M960.87,1045.76V999.92c0-19-1.47-36.84-1.47-55.81,0-16.24-4.39-33-4.39-49.26V860.39h55.68v34.46c0,15.21-4.4,32.06-4.4,47.27,0,20-1.47,41.78-1.47,61.79v41.85"/><path class="cls-3" d="M946.34,1061.72c0,12.88-17.85,12.28-38.35,12.28s-39.6-.62-39.6-13.5,41.37-28.24,61.87-28.24S946.34,1048.84,946.34,1061.72Z"/><path class="cls-3" d="M955.41,1061.72c0,12.88,17.85,12.28,38.35,12.28s39.6-.62,39.6-13.5-41.37-28.24-61.87-28.24S955.41,1048.84,955.41,1061.72Z"/></g><g id="Sociale_Medier" data-name="Sociale Medier"><g id="_Group_Facebook_" data-name="&lt;Group Facebook&gt;"><rect class="cls-4" x="485.6" y="405.63" width="65.98" height="67.13" rx="9.98" transform="translate(-158.72 383.76) rotate(-35.58)"/><path class="cls-5" d="M543.78,462.67,528.31,441l-3.44,2.47-2.47-3.46,3.44-2.46-.87-1.21c-2.53-3.54-4-7.31-3.42-10.84a10.47,10.47,0,0,1,4.34-6.6,11.81,11.81,0,0,1,4.35-2l1.92,3.93a8.3,8.3,0,0,0-3.29,1.49c-3.79,2.71-2.34,6.83.43,10.71l1,1.35,6-4.26,2.47,3.46-5.93,4.24,15.47,21.63Z"/></g><g id="_Group_instagram_" data-name="&lt;Group instagram&gt;"><rect class="cls-6" x="1701.36" y="511.77" width="64.6" height="69.77" rx="10.09" transform="translate(639.44 1998.23) rotate(-70.49)"/><rect class="cls-7" x="1710.98" y="525.65" width="45.35" height="41.99" rx="10.09" transform="translate(282.08 -547.56) rotate(19.51)"/><ellipse class="cls-8" cx="1732.84" cy="547.65" rx="8.48" ry="9.16" transform="translate(637.96 1998.13) rotate(-70.49)"/><ellipse class="cls-5" cx="1748.39" cy="539.02" rx="2.42" ry="2.62" transform="translate(656.45 2007.03) rotate(-70.49)"/></g><g id="_Group_youtube_" data-name="&lt;Group youtube&gt;"><path class="cls-5" d="M1263.29,359.24l-45.58,17.08a10.57,10.57,0,0,1-13.52-5.87l-17.5-44.5a10.17,10.17,0,0,1,6-13.19l45.58-17.08a10.57,10.57,0,0,1,13.52,5.87l17.5,44.5A10.17,10.17,0,0,1,1263.29,359.24Z"/><path class="cls-9" d="M1250.45,347.65,1220.12,359a11.33,11.33,0,0,1-14.5-6.3l-5.08-12.92a10.9,10.9,0,0,1,6.45-14.15l30.33-11.37a11.35,11.35,0,0,1,14.5,6.3l5.08,12.93A10.91,10.91,0,0,1,1250.45,347.65Z"/><polygon class="cls-10" points="1222.65 331.91 1237.24 334.65 1227.69 344.71 1222.65 331.91"/></g><g id="Layer_10" data-name="Layer 10"><rect class="cls-11" x="27" y="525" width="70" height="65" rx="10.12" transform="translate(-301.05 129.89) rotate(-33.99)"/><path class="cls-12" d="M47.64,563.11s-19-16.58,4-27.67C73,525.06,73.16,549.39,73.16,549.39s2.57-5.39,4.46-4.66-.43,7.53-.43,7.53,12.13,8,14.39,1.85,1.86,2.28,1.86,2.28-1.69,4.38-3.43,4.16-1.74,2.78-1.74,2.78-3.31-.47-3.51,1.72c0,.32-1.8,1.11-3,2.17-.54.48-.63,1.25-1,1.65-3.9,4.23-9.54,9.5-14.52,9.78-.51,0-1.48.43-1.9.31-5.76-1.73-5.33,2.8-5.33,2.8a3.5,3.5,0,0,0-3.47-.78c-1.94.74-2.17,5.63-6.64,5.06s-3.43-1.92-3.43-1.92S50,584.45,50,582s2-14.06-4.61-14.39C35.22,567.08,47.64,563.11,47.64,563.11Z"/></g></g><g id="Talebobbler"><ellipse class="cls-5" cx="1405" cy="480" rx="40" ry="35"/><polygon class="cls-5" points="1371.67 492.19 1367.47 510.28 1383.39 505.5 1371.67 492.19"/><ellipse cx="1393.97" cy="480" rx="1.38" ry="1.57"/><ellipse cx="1405" cy="480" rx="1.38" ry="1.57"/><ellipse cx="1417.87" cy="480" rx="1.38" ry="1.57"/><ellipse class="cls-5" cx="329" cy="534" rx="40" ry="35"/><polygon class="cls-5" points="362.32 546.19 366.53 564.28 350.61 559.5 362.32 546.19"/><ellipse cx="340.03" cy="534" rx="1.38" ry="1.57"/><ellipse cx="329" cy="534" rx="1.38" ry="1.57"/><ellipse cx="316.13" cy="534" rx="1.38" ry="1.57"/><ellipse class="cls-5" cx="869" cy="364" rx="40" ry="35"/><polygon class="cls-5" points="835.67 376.19 831.47 394.28 847.39 389.5 835.67 376.19"/><ellipse cx="857.97" cy="364" rx="1.38" ry="1.57"/><ellipse cx="869" cy="364" rx="1.38" ry="1.57"/><ellipse cx="881.87" cy="364" rx="1.38" ry="1.57"/></g></g></svg>
